<svg xmlns="http://www.w3.org/2000/svg" xmlns:svg="http://www.w3.org/2000/svg" xmlns:xlink="http://www.w3.org/1999/xlink" id="svg3901" width="48" height="48" version="1.1"><defs id="defs3903"><linearGradient id="linearGradient3403"><stop id="stop3405" offset="0" style="stop-color:#fff;stop-opacity:1"/><stop id="stop3407" offset="0" style="stop-color:#fff;stop-opacity:.23529412"/><stop id="stop3409" offset="1" style="stop-color:#fff;stop-opacity:.15686275"/><stop id="stop3411" offset="1" style="stop-color:#fff;stop-opacity:.39215687"/></linearGradient><linearGradient id="linearGradient3600"><stop style="stop-color:#f4f4f4;stop-opacity:1" id="stop3602" offset="0"/><stop style="stop-color:#dbdbdb;stop-opacity:1" id="stop3604" offset="1"/></linearGradient><linearGradient id="linearGradient5060"><stop style="stop-color:#000;stop-opacity:1" id="stop5062" offset="0"/><stop style="stop-color:#000;stop-opacity:0" id="stop5064" offset="1"/></linearGradient><linearGradient id="linearGradient5048"><stop style="stop-color:#000;stop-opacity:0" id="stop5050" offset="0"/><stop style="stop-color:#000;stop-opacity:1" id="stop5056" offset=".5"/><stop style="stop-color:#000;stop-opacity:0" id="stop5052" offset="1"/></linearGradient><linearGradient id="linearGradient3104-6"><stop id="stop3106-3" offset="0" style="stop-color:#000;stop-opacity:.31782946"/><stop id="stop3108-9" offset="1" style="stop-color:#000;stop-opacity:.24031007"/></linearGradient><linearGradient id="linearGradient3106" x1="24" x2="24" y1="5.94" y2="42.111" gradientTransform="matrix(0.89189189,0,0,1.1351351,6.241569,-4.0624638)" gradientUnits="userSpaceOnUse" xlink:href="#linearGradient3403"/><linearGradient id="linearGradient3109" x1="25.132" x2="25.132" y1=".985" y2="47.013" gradientTransform="matrix(0.97142632,0,0,0.93431938,0.68576678,-1.3569996)" gradientUnits="userSpaceOnUse" xlink:href="#linearGradient3600"/><radialGradient id="radialGradient3112" cx="605.714" cy="486.648" r="117.143" fx="605.714" fy="486.648" gradientTransform="matrix(0.02303995,0,0,0.01470022,26.360882,37.040176)" gradientUnits="userSpaceOnUse" xlink:href="#linearGradient5060"/><radialGradient id="radialGradient3115" cx="605.714" cy="486.648" r="117.143" fx="605.714" fy="486.648" gradientTransform="matrix(-0.02303994,0,0,0.01470022,21.62311,37.040176)" gradientUnits="userSpaceOnUse" xlink:href="#linearGradient5060"/><linearGradient id="linearGradient3118" x1="302.857" x2="302.857" y1="366.648" y2="609.505" gradientTransform="matrix(0.06732488,0,0,0.01470022,-0.3411391,37.040146)" gradientUnits="userSpaceOnUse" xlink:href="#linearGradient5048"/><linearGradient id="linearGradient3170" x1="-51.786" x2="-51.786" y1="50.786" y2="2.906" gradientTransform="matrix(0.80749686,0,0,0.89471714,72.004432,-0.25427306)" gradientUnits="userSpaceOnUse" xlink:href="#linearGradient3104-6"/><linearGradient id="linearGradient3058" x1="28.534" x2="16.887" y1="24.24" y2="13.664" gradientTransform="matrix(1.0501977,0,0,0.9932209,-1.681624,-0.76407797)" gradientUnits="userSpaceOnUse" xlink:href="#linearGradient4102"/><linearGradient id="linearGradient4102"><stop style="stop-color:#667885;stop-opacity:.3019608" id="stop4104" offset="0"/><stop style="stop-color:#fff;stop-opacity:0" id="stop4106" offset="1"/></linearGradient></defs><metadata id="metadata3906"/><path style="color:#000;clip-rule:nonzero;display:inline;overflow:visible;visibility:visible;opacity:.2;isolation:auto;mix-blend-mode:normal;color-interpolation:sRGB;color-interpolation-filters:linearRGB;solid-color:#000;solid-opacity:1;fill:#95a3ab;fill-opacity:1;fill-rule:nonzero;stroke:none;stroke-width:1;stroke-linecap:round;stroke-linejoin:round;stroke-miterlimit:4;stroke-dasharray:none;stroke-dashoffset:0;stroke-opacity:1;marker:none;color-rendering:auto;image-rendering:auto;shape-rendering:auto;text-rendering:auto;enable-background:accumulate" id="path4160-3" d="m 7,0.99999976 c 7.791126,0 33.999958,0.00274 33.999958,0.00274 L 40.999999,44 7,44 Z"/><path style="display:inline;fill:none;stroke:#667885;stroke-width:.99992192;stroke-linecap:butt;stroke-linejoin:round;stroke-miterlimit:4;stroke-dasharray:none;stroke-dashoffset:0;stroke-opacity:1" id="path4160-6-1-6" d="m 6.4999605,0.49996196 c 8.0202885,0 35.0000405,0.00298 35.0000405,0.00298 l 3.7e-5,43.99709604 -35.0000775,0 0,-43.99989264 z"/><path id="path2783" d="m 15.493102,34.578022 c 4.386207,2.813793 13.962591,-0.950658 6.001067,-11.02474 C 13.604717,13.570396 29.332759,7.022814 34,18.567721" style="fill:url(#linearGradient3058);fill-opacity:1;fill-rule:evenodd;stroke:#667885;stroke-width:.99999982px;stroke-linecap:butt;stroke-linejoin:miter;stroke-opacity:1"/><path id="path3571" d="M 14.438316,14.480986 29.568109,33.402047" style="fill:none;fill-opacity:1;stroke:#667885;stroke-width:1px;stroke-linecap:butt;stroke-linejoin:miter;stroke-opacity:1"/><path id="path3575" d="m 30.5,33.500001 c 3.72e-4,0.552547 -0.447453,1.000673 -1,1.000673 -0.552547,0 -1.000372,-0.448126 -1,-1.000673 -3.72e-4,-0.552548 0.447453,-1.000674 1,-1.000674 0.552547,0 1.000372,0.448126 1,1.000674 l 0,0 z M 15.5,14.5 c 3.72e-4,0.552548 -0.447453,1.000673 -1,1.000673 -0.552547,0 -1.000372,-0.448125 -1,-1.000673 -3.72e-4,-0.552548 0.447453,-1.000673 1,-1.000673 0.552547,0 1.000372,0.448125 1,1.000673 l 0,0 z" style="fill:#e6e6e6;fill-opacity:1;stroke:#667885;stroke-width:1;stroke-linecap:butt;stroke-miterlimit:4;stroke-dasharray:none;stroke-opacity:1"/><path id="rect3569" d="m 20,22 3,0 0,3 -3,0 z m 12,-5 3,0 0,3 -3,0 z m -19,16 3,0 0,3 -3,0 z" style="fill:#667885;fill-opacity:1;stroke:none;color:#000;clip-rule:nonzero;display:inline;overflow:visible;visibility:visible;opacity:1;isolation:auto;mix-blend-mode:normal;color-interpolation:sRGB;color-interpolation-filters:linearRGB;solid-color:#000;solid-opacity:1;fill-rule:nonzero;stroke-width:1;stroke-linecap:butt;stroke-linejoin:round;stroke-miterlimit:4;stroke-dasharray:none;stroke-dashoffset:0;stroke-opacity:1;marker:none;filter-blend-mode:normal;filter-gaussianBlur-deviation:0;color-rendering:auto;image-rendering:auto;shape-rendering:auto;text-rendering:auto;enable-background:accumulate"/></svg>