<svg xmlns="http://www.w3.org/2000/svg" xmlns:svg="http://www.w3.org/2000/svg" xmlns:xlink="http://www.w3.org/1999/xlink" id="svg3828" width="24" height="24" version="1.1"><defs id="defs3830"><linearGradient id="linearGradient3958"><stop style="stop-color:#e8efff;stop-opacity:1" id="stop3960" offset="0"/><stop style="stop-color:#1166c9;stop-opacity:1" id="stop3963" offset="1"/></linearGradient><linearGradient id="linearGradient3916"><stop style="stop-color:#232323;stop-opacity:1" id="stop3918" offset="0"/><stop id="stop3926" offset=".8" style="stop-color:#535353;stop-opacity:1"/><stop id="stop3924" offset=".8" style="stop-color:#676767;stop-opacity:1"/><stop style="stop-color:#676767;stop-opacity:1" id="stop3920" offset="1"/></linearGradient><linearGradient id="linearGradient3801"><stop style="stop-color:#fff;stop-opacity:1" id="stop3803" offset="0"/><stop style="stop-color:#fff;stop-opacity:0" id="stop3805" offset="1"/></linearGradient><linearGradient id="linearGradient3977"><stop id="stop3979" offset="0" style="stop-color:#fff;stop-opacity:1"/><stop id="stop3981" offset=".036" style="stop-color:#fff;stop-opacity:.23529412"/><stop id="stop3983" offset=".951" style="stop-color:#fff;stop-opacity:.15686275"/><stop id="stop3985" offset="1" style="stop-color:#fff;stop-opacity:.39215687"/></linearGradient><linearGradient id="linearGradient3600-4"><stop id="stop3602-7" offset="0" style="stop-color:#f4f4f4;stop-opacity:1"/><stop id="stop3604-6" offset="1" style="stop-color:#dbdbdb;stop-opacity:1"/></linearGradient><linearGradient id="linearGradient3000" x1="24" x2="24" y1="5.564" y2="43" gradientTransform="matrix(0.40540511,0,0,0.51351253,1.2696879,-1.32431)" gradientUnits="userSpaceOnUse" xlink:href="#linearGradient3977"/><linearGradient id="linearGradient3003" x1="25.132" x2="25.132" y1=".985" y2="47.013" gradientTransform="matrix(0.48571543,0,0,-0.45629579,-0.6571703,22.651132)" gradientUnits="userSpaceOnUse" xlink:href="#linearGradient3988-5"/><linearGradient id="linearGradient3158" x1="144" x2="144" y1="280" y2="40" gradientTransform="matrix(0.175,0,0,0.175,-1.20002,-6.0000326)" gradientUnits="userSpaceOnUse" xlink:href="#linearGradient3988-5"/><linearGradient id="linearGradient3988-5"><stop style="stop-color:#ededed;stop-opacity:1" id="stop3990-5" offset="0"/><stop style="stop-color:#fafafa;stop-opacity:1" id="stop3992-0" offset="1"/></linearGradient><linearGradient id="linearGradient3807" x1="10" x2="10" y1="0" y2="22" gradientUnits="userSpaceOnUse" xlink:href="#linearGradient3801"/><radialGradient id="radialGradient3981" cx="311.469" cy="828.531" r="3.281" fx="311.469" fy="828.531" gradientUnits="userSpaceOnUse" xlink:href="#linearGradient6557"/><linearGradient id="linearGradient6557"><stop style="stop-color:#fce94f;stop-opacity:1" id="stop6559" offset="0"/><stop id="stop6565" offset=".673" style="stop-color:#fce94f;stop-opacity:1"/><stop style="stop-color:#fce94f;stop-opacity:0" id="stop6561" offset="1"/></linearGradient><linearGradient id="linearGradient6620"><stop id="stop6622" offset="0" style="stop-color:#fff;stop-opacity:1"/><stop style="stop-color:#fff;stop-opacity:1" id="stop6624" offset=".33"/><stop id="stop6626" offset="1" style="stop-color:#fce94f;stop-opacity:1"/></linearGradient><linearGradient id="linearGradient3952"><stop style="stop-color:#000;stop-opacity:1" id="stop3954" offset="0"/><stop style="stop-color:#000;stop-opacity:0" id="stop3956" offset="1"/></linearGradient><linearGradient id="linearGradient3944"><stop style="stop-color:#000;stop-opacity:1" id="stop3946" offset="0"/><stop style="stop-color:#000;stop-opacity:0" id="stop3948" offset="1"/></linearGradient><linearGradient id="linearGradient3051" x1="25" x2="25" y1="45" y2="42" gradientTransform="matrix(1.1428571,0,0,1,-11.857143,2)" gradientUnits="userSpaceOnUse" xlink:href="#linearGradient3960"/><linearGradient id="linearGradient3960"><stop style="stop-color:#000;stop-opacity:0" id="stop3962" offset="0"/><stop id="stop3970" offset=".5" style="stop-color:#000;stop-opacity:1"/><stop style="stop-color:#000;stop-opacity:0" id="stop3964" offset="1"/></linearGradient><linearGradient id="linearGradient3320" x1="25" x2="25" y1="45" y2="42" gradientTransform="translate(-9,-23)" gradientUnits="userSpaceOnUse" xlink:href="#linearGradient3960"/><radialGradient id="radialGradient3323" cx="9" cy="43.5" r="2" fx="9" fy="43.5" gradientTransform="matrix(1,0,0,0.75,-5,-12.125)" gradientUnits="userSpaceOnUse" xlink:href="#linearGradient3944"/><radialGradient id="radialGradient3326" cx="40" cy="43.5" r="2" fx="40" fy="43.5" gradientTransform="matrix(1,0,0,0.75,-22,-12.125)" gradientUnits="userSpaceOnUse" xlink:href="#linearGradient3952"/><linearGradient id="linearGradient4262" x1="25" x2="25" y1="45" y2="42" gradientTransform="translate(-9,-23)" gradientUnits="userSpaceOnUse" xlink:href="#linearGradient3960"/><radialGradient id="radialGradient4265" cx="9" cy="43.5" r="2" fx="9" fy="43.5" gradientTransform="matrix(1,0,0,0.75,-3,-12.125)" gradientUnits="userSpaceOnUse" xlink:href="#linearGradient3944"/><radialGradient id="radialGradient4268" cx="40" cy="43.5" r="2" fx="40" fy="43.5" gradientTransform="matrix(1,0,0,0.75,-22,-12.125)" gradientUnits="userSpaceOnUse" xlink:href="#linearGradient3952"/><radialGradient id="radialGradient4295" cx="40" cy="43.5" r="2" fx="40" fy="43.5" gradientTransform="matrix(1,0,0,0.75,-22,-12.125)" gradientUnits="userSpaceOnUse" xlink:href="#linearGradient3952"/><radialGradient id="radialGradient4297" cx="9" cy="43.5" r="2" fx="9" fy="43.5" gradientTransform="matrix(1,0,0,0.75,-3,-12.125)" gradientUnits="userSpaceOnUse" xlink:href="#linearGradient3944"/><linearGradient id="linearGradient4299" x1="25" x2="25" y1="45" y2="42" gradientTransform="translate(-9,-23)" gradientUnits="userSpaceOnUse" xlink:href="#linearGradient3960"/><linearGradient id="linearGradient4301" x1="25.132" x2="25.132" y1=".985" y2="47.013" gradientTransform="matrix(0.48571543,0,0,-0.45629579,-0.6571703,22.651132)" gradientUnits="userSpaceOnUse" xlink:href="#linearGradient3988-5"/><linearGradient id="linearGradient4303" x1="10" x2="10" y1="0" y2="22" gradientUnits="userSpaceOnUse" xlink:href="#linearGradient3801"/><radialGradient id="radialGradient4305" cx="40" cy="43.5" r="2" fx="40" fy="43.5" gradientTransform="matrix(1,0,0,0.75,-22,-12.125)" gradientUnits="userSpaceOnUse" xlink:href="#linearGradient3952"/><radialGradient id="radialGradient4307" cx="9" cy="43.5" r="2" fx="9" fy="43.5" gradientTransform="matrix(1,0,0,0.75,-3,-12.125)" gradientUnits="userSpaceOnUse" xlink:href="#linearGradient3944"/><linearGradient id="linearGradient4309" x1="25" x2="25" y1="45" y2="42" gradientTransform="translate(-9,-23)" gradientUnits="userSpaceOnUse" xlink:href="#linearGradient3960"/><linearGradient id="linearGradient4311" x1="25.132" x2="25.132" y1=".985" y2="47.013" gradientTransform="matrix(0.48571543,0,0,-0.45629579,-0.6571703,22.651132)" gradientUnits="userSpaceOnUse" xlink:href="#linearGradient3988-5"/><linearGradient id="linearGradient4313" x1="10" x2="10" y1="0" y2="22" gradientUnits="userSpaceOnUse" xlink:href="#linearGradient3801"/><linearGradient id="linearGradient4333" x1="10" x2="10" y1="0" y2="22" gradientTransform="translate(-3,-2)" gradientUnits="userSpaceOnUse" xlink:href="#linearGradient3801"/><linearGradient id="linearGradient4338" x1="25.132" x2="25.132" y1=".985" y2="47.013" gradientTransform="matrix(0.48571543,0,0,-0.45629579,-3.6571703,20.651132)" gradientUnits="userSpaceOnUse" xlink:href="#linearGradient3988-5"/><linearGradient id="linearGradient4341" x1="25" x2="25" y1="45" y2="42" gradientTransform="translate(-12,-25)" gradientUnits="userSpaceOnUse" xlink:href="#linearGradient3960"/><radialGradient id="radialGradient4344" cx="9" cy="43.5" r="2" fx="9" fy="43.5" gradientTransform="matrix(1,0,0,0.75,-6,-14.125)" gradientUnits="userSpaceOnUse" xlink:href="#linearGradient3944"/><radialGradient id="radialGradient4347" cx="40" cy="43.5" r="2" fx="40" fy="43.5" gradientTransform="matrix(1,0,0,0.75,-25,-14.125)" gradientUnits="userSpaceOnUse" xlink:href="#linearGradient3952"/><linearGradient id="linearGradient3129" x1="10" x2="10" y1="0" y2="22" gradientTransform="translate(0,-5)" gradientUnits="userSpaceOnUse" xlink:href="#linearGradient3801"/><linearGradient id="linearGradient3134" x1="25.132" x2="25.132" y1=".985" y2="47.013" gradientTransform="matrix(0.48571543,0,0,-0.25856743,-0.6571703,10.218952)" gradientUnits="userSpaceOnUse" xlink:href="#linearGradient3988-5"/><linearGradient id="linearGradient3922" x1="11" x2="11" y1="19" y2="9" gradientTransform="translate(1,-1)" gradientUnits="userSpaceOnUse" xlink:href="#linearGradient3916"/><linearGradient id="linearGradient4032" x1="25.132" x2="25.132" y1=".985" y2="47.013" gradientTransform="matrix(0.48571543,0,0,-0.25856743,-0.6571312,24.718969)" gradientUnits="userSpaceOnUse" xlink:href="#linearGradient3988-5"/></defs><metadata id="metadata3833"/><g id="layer1" transform="translate(0,2)" style="display:inline"><path id="path4291" d="m 6,1 0,1 c 4.157995,7.52e-5 11.292656,-7.52e-5 12,0 l 0,-1 c -0.707344,-7.52e-5 -7.842005,7.52e-5 -12,0 z" style="opacity:.4;fill:#fff;fill-opacity:1;stroke:none;display:inline"/><path id="path4293" d="M 6,1 6,15 18,15 18,1 z M 7,2 17,2 17,14 7,14 z" style="opacity:.4;fill:url(#linearGradient3129);fill-opacity:1"/><path style="fill:url(#linearGradient3922);fill-opacity:1;stroke:none" id="rect3145" d="m 4.78125,7.5 -0.125,0.15625 -2,2 L 2.5,9.78125 2.5,10 l 0,7 0,0.5 0.5,0 18,0 0.5,0 0,-0.5 0,-7 0,-0.21875 -0.15625,-0.125 -2,-2 L 19.21875,7.5 19,7.5 5,7.5 z"/><path id="path3935" d="m 4.78125,7.5 -0.125,0.15625 -2,2 L 2.5,9.78125 2.5,10 l 0,7 0,0.5 0.5,0 18,0 0.5,0 0,-0.5 0,-7 0,-0.21875 -0.15625,-0.125 -2,-2 L 19.21875,7.5 19,7.5 5,7.5 z" style="opacity:.70999995;fill:none;stroke:#000;stroke-opacity:1"/><path style="fill:url(#linearGradient3134);fill-opacity:1;stroke:none;display:inline" id="path4287" d="M 5.4999609,9 C 9.3955418,9 18.50002,8.9992064 18.50002,8.9992064 l 2.1e-5,-8.4992434 c 0,0 -7.333386,0 -13.0000801,0 0,3.9666667 0,4.5333346 0,8.5000021 z"/><rect style="opacity:.2;fill:#fff;fill-opacity:1;stroke:none" id="rect3937" width="18" height="1" x="3" y="10"/><path style="font-size:medium;font-style:normal;font-variant:normal;font-weight:400;font-stretch:normal;text-indent:0;text-align:start;text-decoration:none;line-height:normal;letter-spacing:normal;word-spacing:normal;text-transform:none;direction:ltr;block-progression:tb;writing-mode:lr-tb;text-anchor:start;baseline-shift:baseline;opacity:.41000001;color:#000;fill:#000;fill-opacity:1;stroke:none;stroke-width:.99992186;marker:none;visibility:visible;display:inline;overflow:visible;enable-background:accumulate;font-family:Sans;-inkscape-font-specification:Sans" id="path4289" d="M 5.34375,0 A 0.50001093,0.50001093 0 0 0 5,0.5 L 5,7 6,7 6,1 c 3.9461392,9.56e-5 11.37307,-9.56e-5 12,0 l 0,6 1,0 0,-6.5 A 0.50001093,0.50001093 0 0 0 18.5,0 L 5.5,0 A 0.50001093,0.50001093 0 0 0 5.40625,0 0.50001093,0.50001093 0 0 0 5.34375,0 z"/><rect style="opacity:.4;fill:#000;fill-opacity:1;stroke:none" id="rect3948" width="13" height="1" x="5.5" y="9"/><rect style="fill:#505050;fill-opacity:1;stroke:none" id="rect3950" width="14" height="1" x="5" y="-16" transform="scale(1,-1)"/><rect style="opacity:.2;fill:#000;fill-opacity:1;stroke:none" id="rect3952" width="12" height="1" x="6" y="14"/><rect id="rect3954" width="14" height="1" x="5" y="16" style="opacity:.4;fill:#000;fill-opacity:1;stroke:none"/><path id="path4030" d="m 19,19.5 -0.49992,-4.50002 c 0,0 -7.333386,0 -13.00008,0 L 5,19.5 z" style="fill:url(#linearGradient4032);fill-opacity:1;stroke:none;display:inline"/><path style="font-size:medium;font-style:normal;font-variant:normal;font-weight:400;font-stretch:normal;text-indent:0;text-align:start;text-decoration:none;line-height:normal;letter-spacing:normal;word-spacing:normal;text-transform:none;direction:ltr;block-progression:tb;writing-mode:lr-tb;text-anchor:start;baseline-shift:baseline;opacity:.61000001;color:#000;fill:#000;fill-opacity:1;stroke:none;stroke-width:1;marker:none;visibility:visible;display:inline;overflow:visible;enable-background:accumulate;font-family:Sans;-inkscape-font-specification:Sans" id="path4034" d="m 5,14.875 -0.5,4.5 C 4.4225572,19.67445 4.6908541,20.009821 5,20 l 14,0 c 0.309146,0.0098 0.577443,-0.32555 0.5,-0.625 l -0.5,-4.5 0,0.125 -0.90625,0 0,0.5 0,0 0.25,3.5 -0.25,0 0,0.03125 L 7,19.03125 7,19 l -1.34375,0 0.25,-3.5 0,0 0,-0.5 L 5,15 z"/><rect style="opacity:.2;fill:#000;fill-opacity:1;stroke:none" id="rect4046" width="9" height="1" x="7" y="16"/></g></svg>