<svg xmlns="http://www.w3.org/2000/svg" xmlns:svg="http://www.w3.org/2000/svg" xmlns:xlink="http://www.w3.org/1999/xlink" id="svg4392" width="24" height="24" version="1.1"><defs id="defs4394"><linearGradient id="linearGradient4125" x1="40.958" x2="18.681" y1="46.971" y2="46.971" gradientTransform="matrix(0,-0.5372019,0.57681717,0,-15.997188,19.865617)" gradientUnits="userSpaceOnUse" xlink:href="#linearGradient4297"/><linearGradient id="linearGradient4297"><stop id="stop4299" offset="0" style="stop-color:#fff;stop-opacity:1"/><stop id="stop4301" offset=".45" style="stop-color:#fff;stop-opacity:.23529412"/><stop id="stop4303" offset=".65" style="stop-color:#fff;stop-opacity:.15686275"/><stop id="stop4305" offset="1" style="stop-color:#fff;stop-opacity:.39215687"/></linearGradient><linearGradient id="linearGradient4129" x1="23.732" x2="23.732" y1="5.394" y2="39.735" gradientTransform="matrix(0.49219581,0,0,0.45839231,4.5093057,-4.7937184)" gradientUnits="userSpaceOnUse" xlink:href="#linearGradient2867-449-88-871-390-598-476-591-434-148-57-177-6"/><linearGradient id="linearGradient2867-449-88-871-390-598-476-591-434-148-57-177-6"><stop id="stop3750-1" offset="0" style="stop-color:#90dbec;stop-opacity:1"/><stop id="stop3752-0" offset=".262" style="stop-color:#55c1ec;stop-opacity:1"/><stop id="stop3754-0" offset=".705" style="stop-color:#3689e6;stop-opacity:1"/><stop id="stop3756-4" offset="1" style="stop-color:#2b63a0;stop-opacity:1"/></linearGradient><radialGradient id="radialGradient4132" cx="24.837" cy="36.421" r="15.645" fx="24.837" fy="36.421" gradientTransform="matrix(-0.27598143,0,0,-0.29583148,24.323798,16.819207)" gradientUnits="userSpaceOnUse" xlink:href="#linearGradient8662-8"/><linearGradient id="linearGradient8662-8"><stop id="stop8664-1" offset="0" style="stop-color:#000;stop-opacity:1"/><stop id="stop8666-5" offset="1" style="stop-color:#000;stop-opacity:0"/></linearGradient><linearGradient id="linearGradient4136" x1="20" x2="20" y1="43" y2="3" gradientTransform="matrix(0.48806853,0,0,0.48717974,0.303692,-8.163629)" gradientUnits="userSpaceOnUse" xlink:href="#linearGradient3104-5"/><linearGradient id="linearGradient3104-5"><stop id="stop3106-9" offset="0" style="stop-color:#aaa;stop-opacity:1"/><stop id="stop3108-8" offset="1" style="stop-color:#c8c8c8;stop-opacity:1"/></linearGradient><linearGradient id="linearGradient3034" x1="24" x2="24" y1="6.584" y2="41.416" gradientTransform="matrix(0.45945947,0,0,0.45945947,0.9742203,-7.0282672)" gradientUnits="userSpaceOnUse" xlink:href="#linearGradient4094"/><linearGradient id="linearGradient4094"><stop id="stop4096" offset="0" style="stop-color:#fff;stop-opacity:1"/><stop id="stop4098" offset=".02" style="stop-color:#fff;stop-opacity:.23529412"/><stop id="stop4100" offset=".991" style="stop-color:#fff;stop-opacity:.15686275"/><stop id="stop4102" offset="1" style="stop-color:#fff;stop-opacity:.39215687"/></linearGradient><radialGradient id="radialGradient3278" cx="7.496" cy="8.45" r="20" fx="7.496" fy="8.45" gradientTransform="matrix(0,0.8950525,-0.94685877,-2.4361953e-8,20.000788,-11.440166)" gradientUnits="userSpaceOnUse" xlink:href="#linearGradient3600-7-9"/><linearGradient id="linearGradient3600-7-9"><stop id="stop3602-4-6" offset="0" style="stop-color:#f4f4f4;stop-opacity:1"/><stop id="stop3604-5-4" offset="1" style="stop-color:#dbdbdb;stop-opacity:1"/></linearGradient><radialGradient id="radialGradient3082-993" cx="4.993" cy="43.5" r="2.5" fx="4.993" fy="43.5" gradientTransform="matrix(2.003784,0,0,1.4,27.98813,-17.4)" gradientUnits="userSpaceOnUse" xlink:href="#linearGradient3688-166-749-49"/><linearGradient id="linearGradient3688-166-749-49"><stop id="stop3079" offset="0" style="stop-color:#181818;stop-opacity:1"/><stop id="stop3081" offset="1" style="stop-color:#181818;stop-opacity:0"/></linearGradient><radialGradient id="radialGradient3084-992" cx="4.993" cy="43.5" r="2.5" fx="4.993" fy="43.5" gradientTransform="matrix(2.003784,0,0,1.4,-20.01187,-104.4)" gradientUnits="userSpaceOnUse" xlink:href="#linearGradient3688-464-309-276"/><linearGradient id="linearGradient3688-464-309-276"><stop id="stop3085" offset="0" style="stop-color:#181818;stop-opacity:1"/><stop id="stop3087" offset="1" style="stop-color:#181818;stop-opacity:0"/></linearGradient><linearGradient id="linearGradient3086-631" x1="25.058" x2="25.058" y1="47.028" y2="39.999" gradientUnits="userSpaceOnUse" xlink:href="#linearGradient3702-501-757-979"/><linearGradient id="linearGradient3702-501-757-979"><stop id="stop3091" offset="0" style="stop-color:#181818;stop-opacity:0"/><stop id="stop3093" offset=".5" style="stop-color:#181818;stop-opacity:1"/><stop id="stop3095" offset="1" style="stop-color:#181818;stop-opacity:0"/></linearGradient></defs><metadata id="metadata4397"/><g id="layer1" transform="translate(0,8)"><g id="g2036" transform="matrix(0.55,0,0,0.3333336,-1.2000011,-0.66669)" style="display:inline"><g id="g3712" transform="matrix(1.052632,0,0,1.285713,-1.263158,-13.42854)" style="opacity:.4"><rect id="rect2801" width="5" height="7" x="38" y="40" style="fill:url(#radialGradient3082-993);fill-opacity:1;stroke:none"/><rect id="rect3696" width="5" height="7" x="-10" y="-47" transform="scale(-1,-1)" style="fill:url(#radialGradient3084-992);fill-opacity:1;stroke:none"/><rect id="rect3700" width="28" height="7" x="10" y="40" style="fill:url(#linearGradient3086-631);fill-opacity:1;stroke:none"/></g></g><rect id="rect5505-21-9-4-3" width="18" height="18" x="3" y="-5" rx=".5" ry=".5" style="color:#000;fill:url(#radialGradient3278);fill-opacity:1;fill-rule:nonzero;stroke:none;stroke-width:1;marker:none;visibility:visible;display:inline;overflow:visible;enable-background:accumulate"/><rect id="rect5505-21-9-4" width="19" height="19" x="2.5" y="-5.5" rx="1" ry="1" style="opacity:.3;color:#000;fill:none;stroke:#000;stroke-width:1;stroke-linecap:round;stroke-linejoin:round;stroke-miterlimit:4;stroke-opacity:1;stroke-dasharray:none;stroke-dashoffset:0;marker:none;visibility:visible;display:inline;overflow:visible;enable-background:accumulate"/><rect id="rect6741-9" width="17" height="17" x="3.501" y="-4.501" style="fill:none;stroke:url(#linearGradient3034);stroke-width:.99999988;stroke-linecap:round;stroke-linejoin:round;stroke-miterlimit:4;stroke-opacity:1;stroke-dasharray:none;stroke-dashoffset:0"/><path id="path4564-0" d="m 11.514015,-4.174845 a 1.4329316,1.4303221 0 0 0 -0.686346,0.197917 l -5.384006,3.105771 a 1.4329316,1.4303221 0 0 0 -0.686347,0.989583 1.4329316,1.4303221 0 0 0 -0.01525,0 A 1.4329316,1.4303221 0 0 0 4.26925,1.184132 L 4.23874,7.38045 a 1.4329316,1.4303221 0 0 0 0.488069,1.065705 1.4329316,1.4303221 0 0 0 0,0.01522 1.4329316,1.4303221 0 0 0 0.701599,1.020032 l 5.368753,3.075322 a 1.4329316,1.4303221 0 0 0 1.174416,0.106571 1.4329316,1.4303221 0 0 0 0.01525,0 1.4329316,1.4303221 0 0 0 1.220171,-0.09134 l 5.368754,-3.090547 a 1.4329316,1.4303221 0 0 0 0.686346,-0.974359 1.4329316,1.4303221 0 0 0 0.533826,-1.096155 l 0,-6.196317 A 1.4329316,1.4303221 0 0 0 19.307856,0.148878 1.4329316,1.4303221 0 0 0 18.606257,-0.871155 l -5.384006,-3.090546 a 1.4329316,1.4303221 0 0 0 -1.174414,-0.121795 1.4329316,1.4303221 0 0 0 -0.533826,-0.09135 z" style="opacity:.05;color:#000;fill:url(#linearGradient4136);fill-opacity:1;fill-rule:nonzero;stroke:none;stroke-width:1;marker:none;visibility:visible;display:inline;overflow:visible;enable-background:accumulate"/><path id="path3501-4" d="m 13.151556,6.044686 a 4.317657,4.6282081 0 1 1 8.635314,0 4.317657,4.6282081 0 0 1 -8.635314,0 z" style="opacity:.14117647;fill:url(#radialGradient4132);fill-opacity:1;fill-rule:evenodd;stroke:none;stroke-width:1;marker:none;visibility:visible;display:inline;overflow:visible"/><path id="path3288-2-2" d="m 16.5,9.221611 7,-5.673017 -7,-5.6960218 0,3.6474278 -6,0 0,4 6,0 z" style="color:#000;fill:url(#linearGradient4129);fill-opacity:1;fill-rule:nonzero;stroke:none;stroke-width:.96392483;marker:none;visibility:visible;display:block;overflow:visible;enable-background:accumulate"/><path id="path3288-2-2-8" d="M 17.5,7.111422 21.934589,3.548594 17.5,-0.0742811 17.5,2.5 l -6,0 0,2 6,0 z" style="opacity:.40100002;color:#000;fill:none;stroke:url(#linearGradient4125);stroke-width:.96392483;stroke-linecap:butt;stroke-linejoin:miter;stroke-miterlimit:7;stroke-opacity:1;stroke-dasharray:none;stroke-dashoffset:0;marker:none;visibility:visible;display:block;overflow:visible;enable-background:accumulate"/><path id="path3288-2-2-80" d="m 16.5,9.221611 7,-5.673017 -7,-5.696022 0,3.6474278 -6,0 0,4.0000002 6,0 z" style="opacity:.5;color:#000;fill:none;stroke:#004372;stroke-width:1;stroke-linecap:butt;stroke-linejoin:round;stroke-miterlimit:7;stroke-opacity:1;stroke-dasharray:none;stroke-dashoffset:0;marker:none;visibility:visible;display:block;overflow:visible;enable-background:accumulate"/></g></svg>