<svg xmlns="http://www.w3.org/2000/svg" xmlns:svg="http://www.w3.org/2000/svg" xmlns:xlink="http://www.w3.org/1999/xlink" id="svg3877" width="24" height="24" version="1.1"><defs id="defs3879"><linearGradient id="linearGradient3067" x1="24.481" x2="24.481" y1="5.081" y2="45.074" gradientTransform="matrix(0.5384199,0,0,0.5384199,-0.92203488,38.53946)" gradientUnits="userSpaceOnUse" xlink:href="#linearGradient3781"/><linearGradient id="linearGradient3781"><stop id="stop3783" offset="0" style="stop-color:#fff;stop-opacity:1"/><stop id="stop3785" offset="1" style="stop-color:#fff;stop-opacity:0"/></linearGradient><linearGradient id="linearGradient3032" x1="71.204" x2="71.204" y1="6.238" y2="44.341" gradientTransform="matrix(0.45945944,0,0,-0.45945944,-20.958644,63.650623)" gradientUnits="userSpaceOnUse" xlink:href="#linearGradient4011-5"/><linearGradient id="linearGradient4011-5"><stop id="stop4013-4" offset="0" style="stop-color:#fff;stop-opacity:1"/><stop id="stop4015-7" offset=".508" style="stop-color:#fff;stop-opacity:.23529412"/><stop id="stop4017-6" offset=".835" style="stop-color:#fff;stop-opacity:.15686275"/><stop id="stop4019-5" offset="1" style="stop-color:#fff;stop-opacity:.39215687"/></linearGradient><linearGradient id="linearGradient3081" x1="71.204" x2="71.204" y1="6.238" y2="44.341" gradientTransform="matrix(0.5135135,0,0,0.5135135,-24.836132,38.978716)" gradientUnits="userSpaceOnUse" xlink:href="#linearGradient4011"/><linearGradient id="linearGradient4011"><stop id="stop4013" offset="0" style="stop-color:#fff;stop-opacity:1"/><stop id="stop4015" offset=".508" style="stop-color:#fff;stop-opacity:.23529412"/><stop id="stop4017" offset=".835" style="stop-color:#fff;stop-opacity:.15686275"/><stop id="stop4019" offset="1" style="stop-color:#fff;stop-opacity:.39215687"/></linearGradient><radialGradient id="radialGradient3057" cx="23.896" cy="3.99" r="20.397" fx="23.896" fy="3.99" gradientTransform="matrix(0,1.2316137,-1.6257082,0,18.486623,11.279175)" gradientUnits="userSpaceOnUse" xlink:href="#linearGradient3242-1"/><linearGradient id="linearGradient3242-1"><stop id="stop3244-9" offset="0" style="stop-color:#f8b17e;stop-opacity:1"/><stop id="stop3246-4" offset=".262" style="stop-color:#e35d4f;stop-opacity:1"/><stop id="stop3248-7" offset=".661" style="stop-color:#c6262e;stop-opacity:1"/><stop id="stop3250-8" offset="1" style="stop-color:#690b54;stop-opacity:1"/></linearGradient><linearGradient id="linearGradient3059" x1="18.379" x2="18.379" y1="44.98" y2="3.082" gradientTransform="matrix(0.5160413,0,0,0.5160413,-0.38494888,39.614967)" gradientUnits="userSpaceOnUse" xlink:href="#linearGradient2490-2"/><linearGradient id="linearGradient2490-2"><stop id="stop2492-9" offset="0" style="stop-color:#791235;stop-opacity:1"/><stop id="stop2494-3" offset="1" style="stop-color:#dd3b27;stop-opacity:1"/></linearGradient><linearGradient id="linearGradient8838"><stop id="stop8840" offset="0" style="stop-color:#000;stop-opacity:1"/><stop id="stop8842" offset="1" style="stop-color:#000;stop-opacity:0"/></linearGradient><radialGradient id="radialGradient3875" cx="62.625" cy="4.625" r="10.625" fx="62.625" fy="4.625" gradientTransform="matrix(1.1294118,0,0,0.2823525,-58.729414,59.694118)" gradientUnits="userSpaceOnUse" xlink:href="#linearGradient8838"/></defs><metadata id="metadata3882"/><g id="layer1" transform="translate(0,-40)"><path id="path8836" d="m 24,61 c 0,1.656854 -5.372583,3 -12,3 C 5.3725826,64 -2.5e-7,62.656854 -2.5e-7,61 -2.5e-7,59.343146 5.3725826,58 12,58 c 6.627417,0 12,1.343146 12,3 l 0,0 z" style="opacity:.3;fill:url(#radialGradient3875);fill-opacity:1;fill-rule:evenodd;stroke:none;stroke-width:.99999988;marker:none;visibility:visible;display:inline;overflow:visible"/><path id="path2555-0" d="M 12,41.5 C 6.2074471,41.5 1.5,46.207448 1.5,52 1.5,57.792554 6.2074471,62.500003 12,62.5 17.79255,62.5 22.500006,57.792554 22.5,52 22.5,46.207448 17.79255,41.5 12,41.5 z m 0,3 c 4.142136,0 7.5,3.357864 7.5,7.5 0,1.733172 -0.606501,3.323732 -1.59375,4.59375 L 8.375,45.4375 C 9.4519419,44.839483 10.680836,44.5 12,44.5 z M 6.0937499,47.40625 15.625,58.5625 C 14.548058,59.160518 13.319164,59.5 12,59.5 7.8578644,59.5 4.4999999,56.142136 4.4999999,52 c 0,-1.733171 0.6065009,-3.323732 1.59375,-4.59375 z" style="fill:url(#radialGradient3057);fill-opacity:1;stroke:url(#linearGradient3059);stroke-width:1.00365424;stroke-linecap:round;stroke-linejoin:round;stroke-miterlimit:4;stroke-opacity:1;stroke-dasharray:none;stroke-dashoffset:0"/><path id="path8655-6" d="M 21.5,51.999663 C 21.5,57.246537 17.246391,61.5 12.000121,61.5 6.7533684,61.5 2.5,57.246489 2.5,51.999663 c 0,-5.24663 4.2533684,-9.499662 9.500121,-9.499662 5.24627,0 9.499879,4.253032 9.499879,9.499662 l 0,0 z" style="opacity:.5;color:#000;fill:none;stroke:url(#linearGradient3081);stroke-width:.99999988;stroke-linecap:round;stroke-linejoin:round;stroke-miterlimit:4;stroke-opacity:1;stroke-dasharray:none;stroke-dashoffset:0;marker:none;visibility:visible;display:inline;overflow:visible;enable-background:accumulate"/><path id="path8655-6-6" d="m 20.5,52.000302 c 0,-4.694571 -3.805861,-8.500301 -8.499892,-8.500301 -4.6944626,0 -8.500108,3.805773 -8.500108,8.500301 0,4.694353 3.8056453,8.499697 8.500108,8.499697 4.694031,0 8.499892,-3.805344 8.499892,-8.499697 l 0,0 z" style="opacity:.25;color:#000;fill:none;stroke:url(#linearGradient3032);stroke-width:.99999988;stroke-linecap:round;stroke-linejoin:round;stroke-miterlimit:4;stroke-opacity:1;stroke-dasharray:none;stroke-dashoffset:0;marker:none;visibility:visible;display:inline;overflow:visible;enable-background:accumulate"/><path id="path3270" d="M 7.8042191,46.411203 16.919241,57.041535" style="opacity:.4;fill:none;stroke:url(#linearGradient3067);stroke-width:1px;stroke-linecap:round;stroke-linejoin:miter;stroke-opacity:1"/></g></svg>