<svg xmlns="http://www.w3.org/2000/svg" xmlns:svg="http://www.w3.org/2000/svg" xmlns:xlink="http://www.w3.org/1999/xlink" id="svg4296" width="24" height="24" version="1.1"><defs id="defs4298"><linearGradient id="linearGradient3810"><stop id="stop3812" offset="0" style="stop-color:#a60101;stop-opacity:1"/><stop id="stop3814" offset="1" style="stop-color:#5f0101;stop-opacity:1"/></linearGradient><linearGradient id="linearGradient3774"><stop id="stop3776" offset="0" style="stop-color:#444;stop-opacity:1"/><stop id="stop3778" offset="1" style="stop-color:#9e9e9e;stop-opacity:1"/></linearGradient><linearGradient id="linearGradient3764"><stop id="stop3766" offset="0" style="stop-color:#d1d1d1;stop-opacity:1"/><stop id="stop3768" offset="1" style="stop-color:#eaeaea;stop-opacity:1"/></linearGradient><radialGradient id="radialGradient3772" cx="15" cy="1039.7" r="3.527" fx="15" fy="1039.7" gradientTransform="matrix(0.56710644,-1.1342033,1.7012993,0.85065685,-1761.3473,171.9473)" gradientUnits="userSpaceOnUse" xlink:href="#linearGradient3764"/><linearGradient id="linearGradient3780" x1="17" x2="15" y1="1042.362" y2="1038.362" gradientTransform="translate(1,-2.0000083)" gradientUnits="userSpaceOnUse" xlink:href="#linearGradient3774"/><radialGradient id="radialGradient3784" cx="15" cy="1039.7" r="3.527" fx="15" fy="1039.7" gradientTransform="matrix(-0.56710644,-1.1342033,-1.7012993,0.85065685,1785.4006,171.9473)" gradientUnits="userSpaceOnUse" xlink:href="#linearGradient3764"/><linearGradient id="linearGradient3786" x1="17" x2="15" y1="1042.362" y2="1038.362" gradientTransform="matrix(-1,0,0,1,23.053316,-2.0000083)" gradientUnits="userSpaceOnUse" xlink:href="#linearGradient3774"/><radialGradient id="radialGradient3816" cx="12" cy="15.166" r="4.001" fx="12" fy="15.166" gradientTransform="matrix(-0.55698928,1.3924728,-2.4995652,-0.99982634,57.593265,1041.8163)" gradientUnits="userSpaceOnUse" xlink:href="#linearGradient3810"/><radialGradient id="radialGradient3824" cx="9" cy="1035.527" r="4.001" fx="9" fy="1035.527" gradientTransform="matrix(-1.9795548,0.28278205,-0.24994327,-1.749674,285.6389,2844.6513)" gradientUnits="userSpaceOnUse" xlink:href="#linearGradient3810"/><linearGradient id="linearGradient2264"><stop id="stop2266" offset="0" style="stop-color:#d7e866;stop-opacity:1"/><stop id="stop2268" offset="1" style="stop-color:#8cab2a;stop-opacity:1"/></linearGradient><linearGradient id="linearGradient2494" x1="24.481" x2="24.481" y1="5.081" y2="45.074" gradientTransform="matrix(0.5384199,0,0,0.5384199,-0.922077,-1.4604985)" gradientUnits="userSpaceOnUse" xlink:href="#linearGradient3781"/><linearGradient id="linearGradient3781"><stop id="stop3783" offset="0" style="stop-color:#fff;stop-opacity:1"/><stop id="stop3785" offset="1" style="stop-color:#fff;stop-opacity:0"/></linearGradient><linearGradient id="linearGradient2497" x1="63.397" x2="63.397" y1="-12.489" y2="5.468" gradientTransform="matrix(1.0862728,0,0,1.0862481,-55.56661,15.813638)" gradientUnits="userSpaceOnUse" xlink:href="#linearGradient4873"/><linearGradient id="linearGradient4873"><stop id="stop4875" offset="0" style="stop-color:#fff;stop-opacity:1"/><stop id="stop4877" offset="1" style="stop-color:#fff;stop-opacity:0"/></linearGradient><radialGradient id="radialGradient2500" cx="23.896" cy="3.99" r="20.397" fx="23.896" fy="3.99" gradientTransform="matrix(0,1.2316137,-1.6257082,0,18.486581,-28.720783)" gradientUnits="userSpaceOnUse" xlink:href="#linearGradient3242"/><linearGradient id="linearGradient3242"><stop id="stop3244" offset="0" style="stop-color:#f8b17e;stop-opacity:1"/><stop id="stop3246" offset=".262" style="stop-color:#e35d4f;stop-opacity:1"/><stop id="stop3248" offset=".661" style="stop-color:#c6262e;stop-opacity:1"/><stop id="stop3250" offset="1" style="stop-color:#690b54;stop-opacity:1"/></linearGradient><linearGradient id="linearGradient2502" x1="18.379" x2="18.379" y1="44.98" y2="3.082" gradientTransform="matrix(0.5160413,0,0,0.5160413,-0.384991,-0.3849911)" gradientUnits="userSpaceOnUse" xlink:href="#linearGradient2490"/><linearGradient id="linearGradient2490"><stop id="stop2492" offset="0" style="stop-color:#791235;stop-opacity:1"/><stop id="stop2494" offset="1" style="stop-color:#dd3b27;stop-opacity:1"/></linearGradient><radialGradient id="radialGradient2478" cx="62.625" cy="4.625" r="10.625" fx="62.625" fy="4.625" gradientTransform="matrix(1.1294118,0,0,0.2823525,-58.729414,19.694118)" gradientUnits="userSpaceOnUse" xlink:href="#linearGradient8838"/><linearGradient id="linearGradient8838"><stop id="stop8840" offset="0" style="stop-color:#000;stop-opacity:1"/><stop id="stop8842" offset="1" style="stop-color:#000;stop-opacity:0"/></linearGradient><linearGradient id="linearGradient3975" x1="24.481" x2="24.481" y1="5.081" y2="45.074" gradientTransform="matrix(0.5384199,0,0,0.5384199,-44.014327,1034.0991)" gradientUnits="userSpaceOnUse" xlink:href="#linearGradient3781"/><linearGradient id="linearGradient3978" x1="63.397" x2="63.397" y1="-12.489" y2="5.468" gradientTransform="matrix(1.0862728,0,0,1.0862481,-98.65886,1051.3732)" gradientUnits="userSpaceOnUse" xlink:href="#linearGradient4873"/><radialGradient id="radialGradient3981" cx="23.896" cy="3.99" r="20.397" fx="23.896" fy="3.99" gradientTransform="matrix(0,1.2316137,-1.6257082,0,-24.605669,1006.8388)" gradientUnits="userSpaceOnUse" xlink:href="#linearGradient3242"/><linearGradient id="linearGradient3983" x1="18.379" x2="18.379" y1="44.98" y2="3.082" gradientTransform="matrix(0.5160413,0,0,0.5160413,-43.477241,1035.1746)" gradientUnits="userSpaceOnUse" xlink:href="#linearGradient2490"/><radialGradient id="radialGradient3986" cx="62.625" cy="4.625" r="10.625" fx="62.625" fy="4.625" gradientTransform="matrix(0.5647059,0,0,0.2823525,-27.364705,1048.0563)" gradientUnits="userSpaceOnUse" xlink:href="#linearGradient8838"/><radialGradient id="radialGradient4009" cx="62.625" cy="4.625" r="10.625" fx="62.625" fy="4.625" gradientTransform="matrix(0.5647059,0,0,0.2823525,-19.364705,1048.0563)" gradientUnits="userSpaceOnUse" xlink:href="#linearGradient8838"/></defs><metadata id="metadata4301"/><g id="layer1" transform="translate(0,-1028.3622)"><g id="g4011"><path id="path3782" d="m 11.553316,1039.3622 -5.2999997,-9.8 c 0,0 -3.6999995,7.8 5.2999997,12.8 z" style="fill:url(#radialGradient3784);fill-opacity:1;stroke:url(#linearGradient3786);stroke-width:1px;stroke-linecap:butt;stroke-linejoin:miter;stroke-opacity:1"/><path id="path2990" d="m 12.5,1039.3622 5.3,-9.8 c 0,0 3.7,7.8 -5.3,12.8 z" style="fill:url(#radialGradient3772);fill-opacity:1;stroke:url(#linearGradient3780);stroke-width:1px;stroke-linecap:butt;stroke-linejoin:miter;stroke-opacity:1"/><path id="path8836" d="m 14,1049.3622 c 0,1.6569 -2.686291,3 -6,3 -3.3137085,0 -6,-1.3431 -6,-3 0,-1.6569 2.6862915,-3 6,-3 3.313709,0 6,1.3431 6,3 l 0,0 z" style="opacity:.4;fill:url(#radialGradient3986);fill-opacity:1;fill-rule:evenodd;stroke:none;stroke-width:.99999988;marker:none;visibility:visible;display:inline;overflow:visible"/><path id="path4007" d="m 22,1049.3622 c 0,1.6569 -2.686291,3 -6,3 -3.313709,0 -6,-1.3431 -6,-3 0,-1.6569 2.686291,-3 6,-3 3.313709,0 6,1.3431 6,3 l 0,0 z" style="opacity:.4;fill:url(#radialGradient4009);fill-opacity:1;fill-rule:evenodd;stroke:none;stroke-width:.99999988;marker:none;visibility:visible;display:inline;overflow:visible"/><path id="path3788" d="m 14,1042.3622 c -0.684728,0.1472 -1.54059,1.1088 -1.5,3.5 0.05092,2.9996 2.187468,4 3.5,4 1.312532,0 3.5,-1.0415 3.5,-4 0,-2.9586 -4.815272,-3.6472 -5.5,-3.5 z m 0.4375,1.875 c 0,0 5.23936,0.8914 2.25,3.125 -2.688286,2.0087 -2.25,-3.125 -2.25,-3.125 z" style="fill:#ee5050;fill-opacity:1;stroke:url(#radialGradient3816);stroke-width:1px;stroke-linecap:butt;stroke-linejoin:miter;stroke-opacity:1"/><g id="g3798" transform="translate(1,7.9999917)"><path id="path3793" d="m 8.5625,1034.3622 c -1.3803873,0.074 -5.0625,0.9112 -5.0625,3.5 0,2.9585 2.1874677,4.0034 3.5,4 1.3125323,0 3.449081,-1.0004 3.5,-4 0.04059,-2.3912 -0.815272,-3.3528 -1.5,-3.5 -0.085591,-0.018 -0.2403018,-0.011 -0.4375,0 z m 0,1.875 c 0,0 0.4382857,5.1337 -2.25,3.125 -2.9893599,-2.2336 2.25,-3.125 2.25,-3.125 z" style="fill:#ee5050;fill-opacity:1;stroke:url(#radialGradient3824);stroke-width:1px;stroke-linecap:butt;stroke-linejoin:miter;stroke-opacity:1"/></g></g></g></svg>