<svg xmlns="http://www.w3.org/2000/svg" xmlns:svg="http://www.w3.org/2000/svg" xmlns:xlink="http://www.w3.org/1999/xlink" id="svg3365" width="24" height="24" version="1.0"><metadata id="metadata37"/><defs id="defs3367"><linearGradient id="linearGradient8838"><stop id="stop8840" offset="0" style="stop-color:#000;stop-opacity:1"/><stop id="stop8842" offset="1" style="stop-color:#000;stop-opacity:0"/></linearGradient><radialGradient id="radialGradient2436" cx="62.625" cy="4.625" r="10.625" fx="62.625" fy="4.625" gradientTransform="matrix(1.1294118,0,0,0.2823525,-58.729414,19.694118)" gradientUnits="userSpaceOnUse" xlink:href="#linearGradient8838"/><linearGradient id="linearGradient3334-995-903-143-677-209-356-728"><stop id="stop5026" offset="0" style="stop-color:gray;stop-opacity:1"/><stop id="stop5028" offset=".873" style="stop-color:#6d6d6d;stop-opacity:1"/><stop id="stop5030" offset="1" style="stop-color:#4f5053;stop-opacity:1"/></linearGradient><linearGradient id="linearGradient2433" x1="12.963" x2="12.963" y1="2.684" y2="45.326" gradientTransform="matrix(0.5160413,0,0,0.5160413,-0.384991,-0.3849911)" gradientUnits="userSpaceOnUse" xlink:href="#linearGradient3334-995-903-143-677-209-356-728"/><linearGradient id="linearGradient3268"><stop id="stop3270" offset="0" style="stop-color:#fff;stop-opacity:1"/><stop id="stop3272" offset="1" style="stop-color:#cdcdcd;stop-opacity:1"/></linearGradient><linearGradient id="linearGradient3227"><stop id="stop3229" offset="0" style="stop-color:#4d4d4d;stop-opacity:1"/><stop id="stop3231" offset="1" style="stop-color:#333;stop-opacity:1"/></linearGradient><linearGradient id="linearGradient3354" x1="56.323" x2="72.452" y1="25.883" y2="25.883" gradientTransform="translate(-52.626503,-11.909638)" gradientUnits="userSpaceOnUse" xlink:href="#linearGradient3227"/><linearGradient id="linearGradient3356"><stop id="stop3358" offset="0" style="stop-color:gray;stop-opacity:1"/><stop id="stop3360" offset=".546" style="stop-color:#6d6d6d;stop-opacity:1"/><stop id="stop3362" offset="1" style="stop-color:#4f5053;stop-opacity:1"/></linearGradient><linearGradient id="linearGradient3352" x1="3.697" x2="19.821" y1="16.723" y2="16.723" gradientUnits="userSpaceOnUse" xlink:href="#linearGradient3356"/><linearGradient id="linearGradient4873"><stop id="stop4875" offset="0" style="stop-color:#fff;stop-opacity:1"/><stop id="stop4877" offset="1" style="stop-color:#fff;stop-opacity:0"/></linearGradient><linearGradient id="linearGradient2428" x1="63.397" x2="63.397" y1="-12.489" y2="5.468" gradientTransform="matrix(1.0862728,0,0,1.0862481,-55.56661,15.813638)" gradientUnits="userSpaceOnUse" xlink:href="#linearGradient4873"/><linearGradient id="linearGradient3914" x1="17.61" x2="17.61" y1="1" y2="23.063" gradientUnits="userSpaceOnUse" xlink:href="#linearGradient3268"/></defs><g id="layer1"><path id="path8836" d="m 24,21 c 0,1.656854 -5.372583,3 -12,3 C 5.3725828,24 -2.5e-7,22.656854 -2.5e-7,21 -2.5e-7,19.343146 5.3725828,18 12,18 c 6.627417,0 12,1.343146 12,3 l 0,0 z" style="opacity:.3;fill:url(#radialGradient2436);fill-opacity:1;fill-rule:evenodd;stroke:none;stroke-width:.99999988;marker:none;visibility:visible;display:inline;overflow:visible"/><path id="path2555" d="m 12.000002,1.501785 c -5.792553,0 -10.498217,4.7056616 -10.498217,10.498214 0,5.792554 4.705664,10.498219 10.498217,10.498216 5.79255,0 10.498219,-4.705662 10.498213,-10.498216 0,-5.7925524 -4.705663,-10.498214 -10.498213,-10.498214 z" style="fill:url(#linearGradient3914);fill-opacity:1;stroke:url(#linearGradient2433);stroke-width:1.00365424;stroke-linecap:round;stroke-linejoin:round;stroke-miterlimit:4;stroke-opacity:1;stroke-dasharray:none;stroke-dashoffset:0"/><path id="path3314" d="m 19.373494,12.915663 a 7.6144578,7.6144578 0 1 1 -15.2289155,-1e-6 l 7.6144575,1e-6 z" transform="matrix(0,1.3789557,-1.3132911,0,28.462025,-4.2151905)" style="fill:url(#linearGradient3352);fill-opacity:1;fill-rule:nonzero;stroke:url(#linearGradient3354);stroke-width:.74309504;stroke-linecap:butt;stroke-linejoin:miter;stroke-miterlimit:4;stroke-opacity:1;stroke-dasharray:none;stroke-dashoffset:0;marker:none;visibility:visible;display:inline;overflow:visible;enable-background:accumulate"/><path id="path2463" d="m 21.499999,11.999663 c 0,5.246874 -4.253609,9.500336 -9.499879,9.500336 -5.2467526,0 -9.5001201,-4.253509 -9.5001201,-9.500336 0,-5.2466312 4.2533675,-9.4996623 9.5001201,-9.4996623 5.24627,0 9.499879,4.2530311 9.499879,9.4996623 l 0,0 z" style="opacity:.4;fill:none;stroke:url(#linearGradient2428);stroke-width:.99999994;stroke-miterlimit:4;stroke-opacity:1;stroke-dasharray:none"/></g></svg>