<svg xmlns="http://www.w3.org/2000/svg" xmlns:svg="http://www.w3.org/2000/svg" xmlns:xlink="http://www.w3.org/1999/xlink" id="svg3338" width="64" height="64" version="1.0"><metadata id="metadata83"/><defs id="defs3340"><linearGradient id="linearGradient5048"><stop id="stop5050" offset="0" style="stop-color:#000;stop-opacity:0"/><stop id="stop5056" offset=".5" style="stop-color:#000;stop-opacity:1"/><stop id="stop5052" offset="1" style="stop-color:#000;stop-opacity:0"/></linearGradient><linearGradient id="linearGradient2566" x1="302.857" x2="302.857" y1="366.648" y2="609.505" gradientTransform="matrix(0.1018087,0,0,0.02745099,-4.7965709,43.268495)" gradientUnits="userSpaceOnUse" xlink:href="#linearGradient5048"/><radialGradient id="radialGradient2563" cx="605.714" cy="486.648" r="117.143" fx="605.714" fy="486.648" gradientTransform="matrix(0.05979662,0,0,0.02745099,20.518506,43.268495)" gradientUnits="userSpaceOnUse" xlink:href="#linearGradient5060"/><radialGradient id="radialGradient2560" cx="605.714" cy="486.648" r="117.143" fx="605.714" fy="486.648" gradientTransform="matrix(-0.05979662,0,0,0.02745099,43.481506,43.268495)" gradientUnits="userSpaceOnUse" xlink:href="#linearGradient5060"/><linearGradient id="linearGradient2215"><stop id="stop2223" offset="0" style="stop-color:#7a7a7a;stop-opacity:1"/><stop id="stop2219" offset="1" style="stop-color:#474747;stop-opacity:1"/></linearGradient><linearGradient id="linearGradient2557" x1="29.938" x2="30" y1="41" y2="50" gradientTransform="matrix(1.3573591,0,0,1.0098512,-7.3634079,6.5517759)" gradientUnits="userSpaceOnUse" xlink:href="#linearGradient2215"/><linearGradient id="linearGradient3484"><stop id="stop3486" offset="0" style="stop-color:#969696;stop-opacity:1"/><stop id="stop3488" offset="1" style="stop-color:#b4b4b4;stop-opacity:1"/></linearGradient><linearGradient id="linearGradient2553" x1="17.814" x2="18.073" y1="29.797" y2="10" gradientTransform="matrix(1.3526366,0,0,1.3652569,-0.463278,-2.8344302)" gradientUnits="userSpaceOnUse" xlink:href="#linearGradient3484"/><linearGradient id="linearGradient7056"><stop id="stop7064" offset="0" style="stop-color:#e6e6e6;stop-opacity:1"/><stop id="stop7060" offset="1" style="stop-color:#c8c8c8;stop-opacity:1"/></linearGradient><radialGradient id="radialGradient2551" cx="11.734" cy="8.49" r="23.048" fx="11.734" fy="8.49" gradientTransform="matrix(1.8621852,0.9518493,-0.6331808,1.2619694,-0.5297689,-5.4809546)" gradientUnits="userSpaceOnUse" xlink:href="#linearGradient7056"/><radialGradient id="radialGradient2547" cx="141.747" cy="206.426" r="78.728" fx="141.747" fy="206.426" gradientTransform="matrix(0.475706,-0.00690855,0.00352072,0.3975024,-37.03293,-36.799112)" gradientUnits="userSpaceOnUse" xlink:href="#linearGradient4035"/><linearGradient id="linearGradient7609"><stop id="stop7611" offset="0" style="stop-color:#fff;stop-opacity:1"/><stop id="stop7677" offset=".47" style="stop-color:#e7e7e7;stop-opacity:1"/><stop id="stop7613" offset=".672" style="stop-color:#8c8c8c;stop-opacity:1"/><stop id="stop7617" offset=".835" style="stop-color:#ddd;stop-opacity:1"/><stop id="stop7615" offset="1" style="stop-color:#a8a8a8;stop-opacity:1"/></linearGradient><radialGradient id="radialGradient2544" cx="142.622" cy="191.854" r="78.728" fx="142.622" fy="191.854" gradientTransform="matrix(0.2466032,0,0,-0.1743241,-4.1482291,59.731248)" gradientUnits="userSpaceOnUse" xlink:href="#linearGradient7609"/><radialGradient id="radialGradient2540" cx="113.065" cy="97.588" r="2.563" fx="113.667" fy="98" gradientTransform="matrix(-0.5034274,0,0,0.4878048,62.920656,-2.103415)" gradientUnits="userSpaceOnUse" xlink:href="#radialGradient4241"/><radialGradient id="radialGradient2536" cx="113.065" cy="97.588" r="2.563" fx="113.667" fy="98" gradientTransform="matrix(0.374113,-0.07929617,0.04213943,0.3149909,-33.911844,-8.7733407)" gradientUnits="userSpaceOnUse" xlink:href="#radialGradient4241"/><radialGradient id="radialGradient2532" cx="113.065" cy="97.588" r="2.563" fx="113.667" fy="98" gradientTransform="matrix(0.3782453,0.07056425,-0.03896353,0.3065004,11.53557,-24.903099)" gradientUnits="userSpaceOnUse" xlink:href="#radialGradient4241"/><linearGradient id="linearGradient5060"><stop id="stop5062" offset="0" style="stop-color:#000;stop-opacity:1"/><stop id="stop5064" offset="1" style="stop-color:#000;stop-opacity:0"/></linearGradient><linearGradient id="linearGradient2529" x1="7.063" x2="24.688" y1="35.281" y2="35.281" gradientTransform="matrix(1.3801029,0,0,1.2584266,0.9287064,8.1011299)" gradientUnits="userSpaceOnUse" xlink:href="#linearGradient5060"/><linearGradient id="linearGradient4236"><stop id="stop4238" offset="0" style="stop-color:#eee;stop-opacity:1"/><stop id="stop4240" offset="1" style="stop-color:#eee;stop-opacity:0"/></linearGradient><linearGradient id="linearGradient2526" x1="12.277" x2="12.222" y1="37.206" y2="33.759" gradientTransform="matrix(1.3504215,0,0,1.2464221,-0.08267968,10.210591)" gradientUnits="userSpaceOnUse" xlink:href="#linearGradient4236"/><linearGradient id="linearGradient4035"><stop id="stop4037" offset="0" style="stop-color:#f5f5f5;stop-opacity:1"/><stop id="stop4039" offset=".47" style="stop-color:#e7e7e7;stop-opacity:1"/><stop id="stop4041" offset=".693" style="stop-color:#8c8c8c;stop-opacity:1"/><stop id="stop4043" offset=".835" style="stop-color:#ddd;stop-opacity:1"/><stop id="stop4045" offset="1" style="stop-color:#a8a8a8;stop-opacity:1"/></linearGradient><radialGradient id="radialGradient2523" cx="127.317" cy="143.828" r="78.728" fx="127.317" fy="143.828" gradientTransform="matrix(0.2540562,-0.03579406,0.00825801,0.1439066,-9.916226,3.6124102)" gradientUnits="userSpaceOnUse" xlink:href="#linearGradient4035"/><radialGradient id="radialGradient4241" cx="113.065" cy="97.588" r="2.563" fx="113.667" fy="98" gradientUnits="userSpaceOnUse"><stop id="stop4243" offset="0" style="stop-color:#eee;stop-opacity:1"/><stop id="stop4245" offset=".16" style="stop-color:#cecece;stop-opacity:1"/><stop id="stop4247" offset=".468" style="stop-color:#888;stop-opacity:1"/><stop id="stop4249" offset="1" style="stop-color:#555;stop-opacity:1"/></radialGradient><radialGradient id="radialGradient2519" cx="113.065" cy="97.588" r="2.563" fx="113.667" fy="98" gradientTransform="matrix(0.5034273,0,0,0.4878048,1.0793577,-2.103415)" gradientUnits="userSpaceOnUse" xlink:href="#radialGradient4241"/><linearGradient id="linearGradient6310-8"><stop id="stop6312-6" offset="0" style="stop-color:#fff;stop-opacity:1"/><stop id="stop6314-6" offset="1" style="stop-color:#fff;stop-opacity:0"/></linearGradient><radialGradient id="radialGradient2516" cx="24" cy="42" r="21" fx="24" fy="42" gradientTransform="matrix(1.3526366,-1.4521173e-8,3.762037e-8,0.486864,-0.4632765,31.949499)" gradientUnits="userSpaceOnUse" xlink:href="#linearGradient6310-8"/></defs><g id="layer1"><rect id="rect2723" width="49.159" height="6.667" x="7.42" y="53.333" style="opacity:.3;fill:url(#linearGradient2566);fill-opacity:1;fill-rule:nonzero;stroke:none;stroke-width:.5;marker:none;visibility:visible;display:inline;overflow:visible"/><path id="path2725" d="m 56.555559,53.333564 c 0,0 0,6.666297 0,6.666297 3.079373,0.01255 7.444439,-1.49358 7.444439,-3.333576 0,-1.839996 -3.436346,-3.332721 -7.444439,-3.332721 z" style="opacity:.3;fill:url(#radialGradient2563);fill-opacity:1;fill-rule:nonzero;stroke:none;stroke-width:.5;marker:none;visibility:visible;display:inline;overflow:visible"/><path id="path2727" d="m 7.4444398,53.333564 c 0,0 0,6.666297 0,6.666297 C 4.3650531,60.012413 0,58.506281 0,56.666285 0,54.826289 3.4363598,53.333564 7.4444398,53.333564 z" style="opacity:.3;fill:url(#radialGradient2560);fill-opacity:1;fill-rule:nonzero;stroke:none;stroke-width:1;marker:none;visibility:visible;display:inline;overflow:visible"/><path id="rect6431" d="m 1.4639996,48.463998 61.0720034,0 -1.221119,8.072 -58.4940274,0 -1.356857,-8.072 0,0 z" style="fill:url(#linearGradient2557);fill-opacity:1;fill-rule:evenodd;stroke:#353537;stroke-width:.9279989;stroke-linecap:round;stroke-linejoin:round;stroke-miterlimit:4;stroke-opacity:1;stroke-dasharray:none;stroke-dashoffset:0;display:inline;enable-background:new"/><rect id="rect6381" width="60.869" height="1.363" x="1.566" y="47.626" style="fill:#d2d2d3;fill-opacity:1;fill-rule:evenodd;stroke:none;display:inline;enable-background:new"/><path id="path6345" d="M 62.501957,48.502108 53.290998,13.313517 C 53.030543,12.311454 51.666211,11.49789 50.51922,11.49789 l -37.35606,0 c -1.762134,0 -2.7719,0.271104 -3.143472,1.815627 L 1.4980451,48.467845" style="fill:url(#radialGradient2551);fill-opacity:1;fill-rule:nonzero;stroke:url(#linearGradient2553);stroke-width:.99578357;stroke-linecap:round;stroke-linejoin:round;stroke-miterlimit:4;stroke-opacity:1;stroke-dasharray:none;stroke-dashoffset:0;marker:none;visibility:visible;display:inline;overflow:visible;enable-background:accumulate"/><path id="path7046" d="M 61.499999,48.515874 2.5,48.484128" style="opacity:.4;fill:none;stroke:#fff;stroke-width:1;stroke-linecap:round;stroke-linejoin:miter;stroke-miterlimit:4;stroke-opacity:1;stroke-dasharray:none;stroke-dashoffset:0;marker:none;visibility:visible;display:inline;overflow:visible;enable-background:accumulate"/><path id="path9001" d="M 54.961301,32.763994 C 54.666794,30.016779 52.693084,27.397202 49.413701,25.330095 49.347733,24.535535 48.507156,14.371086 48.507156,14.371086 48.44273,13.589722 47.463026,13 46.22743,13 l -7.75407,0 c -1.244481,0 -2.206486,0.597472 -2.237863,1.389719 -0.142288,3.579408 -4.480975,5.448266 -10.952903,7.148352 -2.267692,0.399217 -8.179889,2.275839 -9.536833,3.099502 C 11.751285,26.80128 9.3690428,29.685844 9.0389558,32.763994 8.7386844,35.563589 10.181955,38.365126 13.103009,40.6526 17.378382,44.000787 24.442478,46 31.99986,46 39.557253,46 46.621333,44.000787 50.897247,40.6526 53.565116,38.563769 55,36.045449 55,33.491839 55,33.249344 54.98605,33.006475 54.96122,32.763994 l 7.7e-5,0 0,0 z M 31.99986,44.611455 c -12.587087,0 -22.2254192,-5.610446 -21.528108,-12.113994 0.300798,-2.803863 2.508843,-5.79705 6.165383,-7.769491 0.684753,-0.524539 6.868981,-2.56488 9.087487,-2.923369 6.148651,-1.611623 11.771576,-3.703172 11.947859,-8.110905 0.0077,-0.211063 0.361988,-0.378272 0.800879,-0.378272 l 7.753033,0 c 0.448825,0 0.827591,0.175356 0.845371,0.391853 l 0.941567,11.387714 c 3.258987,1.919284 5.233731,4.78405 5.514123,7.40247 0.697821,6.503548 -8.940494,12.113994 -21.527594,12.113994 l 0,0 0,0 z" style="fill:url(#radialGradient2547);fill-opacity:1"/><path id="path9003" d="M 31.999692,37 C 27.513074,37 24.073624,35.310513 24.001128,33.069566 24.000558,33.045333 24,33.021515 24,32.997697 c 0,-0.8109 0.450798,-1.582111 1.307418,-2.235096 C 26.75649,29.658836 29.258363,29 32.000247,29 c 2.741329,0 5.243188,0.658836 6.69226,1.762601 0.881921,0.671362 1.33386,1.469317 1.306304,2.306543 -0.07365,2.240947 -3.513072,3.930849 -7.999119,3.930849 l 0,4e-6 0,3e-6 z m 0,-6.746239 c -4.215702,0 -6.363454,1.674441 -6.312862,3.203083 0.04889,1.504831 2.87511,2.707192 6.312862,2.707192 3.437752,0 6.26394,-1.202784 6.312849,-2.707192 0.04999,-1.529063 -2.097161,-3.203083 -6.312849,-3.203083 l 0,0 0,0 z" style="fill:url(#radialGradient2544);fill-opacity:1;fill-rule:nonzero;stroke-width:1;stroke-linecap:butt;stroke-linejoin:miter;stroke-miterlimit:4;stroke-opacity:1;stroke-dasharray:none;stroke-dashoffset:0;marker:none;visibility:visible;display:inline;overflow:visible;enable-background:accumulate"/><path id="path9007" d="M 7.9967277,45.492684 C 7.9332943,46.322928 6.9833279,47 5.8757865,47 4.7687495,47 3.9305429,46.322928 4.0045466,45.492684 4.078048,44.666829 5.027512,44 6.1239769,44 c 1.096969,3.91e-4 1.9351757,0.666829 1.8727508,1.492684 l 0,0 z" style="fill:#e1e1e1;fill-opacity:1"/><path id="path9009" d="m 7.280349,44.90878 c 0.1011901,0.105359 0.2169781,0.274148 0.2169781,0.498536 0,0.01611 -0.00101,0.03219 -0.00202,0.04928 -0.0438,0.572194 -0.7853474,1.055609 -1.6190232,1.055609 -0.474732,0 -0.908686,-0.158536 -1.1604005,-0.424877 -0.1082352,-0.113658 -0.2315767,-0.301952 -0.2094255,-0.552683 0.050846,-0.567318 0.7913868,-1.046829 1.6180165,-1.046829 0.471208,3.9e-4 0.9036511,0.157561 1.1558678,0.420974 l 4.1e-6,0 -5e-7,-7e-6 z" style="fill:url(#radialGradient2540);fill-opacity:1"/><path id="path9019" d="m 11.015508,13.309735 c 0.118861,0.526123 0.883302,0.813697 1.706351,0.639247 0.822674,-0.174371 1.387082,-0.743609 1.260368,-1.268067 -0.125972,-0.521702 -0.889146,-0.802742 -1.703963,-0.630035 -0.815161,0.173038 -1.380487,0.735406 -1.262756,1.258855 z" style="fill:#f0f0f0;fill-opacity:1"/><path id="path9021" d="m 11.497432,12.819853 c -0.0661,0.08398 -0.137561,0.211202 -0.118178,0.356097 0.0014,0.01035 0.0035,0.02071 0.0058,0.03149 0.08198,0.362583 0.674806,0.557935 1.294338,0.426621 0.352787,-0.07477 0.661577,-0.245501 0.825625,-0.457134 0.07062,-0.09045 0.146001,-0.231456 0.107889,-0.389872 -0.0868,-0.358327 -0.678535,-0.551317 -1.29283,-0.421113 -0.350136,0.07447 -0.657921,0.24408 -0.822597,0.453902 l -2e-6,2e-6 -5e-6,9e-6 z" style="fill:url(#radialGradient2536);fill-opacity:1"/><path id="path9025" d="m 49.000386,12.701322 c -0.01865,0.530555 0.641011,1.089131 1.473151,1.244373 0.831763,0.15517 1.515621,-0.152769 1.526335,-0.684798 0.01067,-0.529209 -0.649366,-1.081279 -1.473185,-1.234967 -0.824228,-0.153508 -1.507238,0.147743 -1.526301,0.675392 z" style="fill:#e1e1e1;fill-opacity:1"/><path id="path9027" d="m 49.58527,12.434852 c -0.08445,0.05201 -0.184921,0.141835 -0.202845,0.282832 -0.0013,0.01005 -0.0019,0.02031 -0.0024,0.03125 -0.01287,0.365665 0.505746,0.773348 1.132121,0.890201 0.356685,0.06654 0.695395,0.02776 0.905794,-0.104309 0.09041,-0.05624 0.198111,-0.157263 0.201496,-0.317911 0.0071,-0.363587 -0.510985,-0.768676 -1.132066,-0.884543 -0.354069,-0.0658 -0.691536,-0.02765 -0.902077,0.102505 l -4e-6,-4e-6 -4.7e-5,-1.8e-5 z" style="fill:url(#radialGradient2532);fill-opacity:1"/><path id="rect8993" d="m 10,49 25,0 0,7 L 10.675687,56 10,49 z" style="fill:url(#linearGradient2529);fill-opacity:1;fill-rule:evenodd;stroke:none;stroke-width:2.40899992;marker:none;visibility:visible;display:inline;overflow:visible"/><path id="path8995" d="M 10.528925,56 C 10.528925,56 10,51 10,51 c 2.478736,3.962657 11.732684,5 18,5 0,0 -17.471075,0 -17.471075,0 l 0,0 z" style="opacity:.81142853;fill:url(#linearGradient2526);fill-opacity:1;fill-rule:evenodd;stroke:none"/><path id="path9039" d="M 14.542104,13 14.404406,13.544299 12.34874,21.645568 12,23 l 1.018663,-0.291135 17.32636,-5.063293 0.05503,-0.0253 0.04589,-0.0253 c 0.917513,-0.506221 1.407773,-1.529214 1.523397,-2.468355 0.05787,-0.469575 0.04052,-0.929393 -0.110053,-1.354427 -0.14219,-0.401253 -0.512368,-0.758253 -0.899355,-0.746839 l 0,-0.0253 -0.06428,0 -15.940611,0 -0.412973,0 4.4e-5,1e-6 -9e-6,-5.1e-5 z m 0.586449,0.500538 15.968721,0 c 0.0075,0.06838 0.02541,0.106328 0.0089,0.235714 -0.05009,0.407172 -0.265593,1.863855 -0.806989,2.181629 l -16.79474,4.910693 1.623456,-7.328033 5.21e-4,0 9.8e-5,-3e-6 z" style="fill:url(#radialGradient2523);fill-opacity:1;fill-rule:nonzero;stroke:none;stroke-width:1;marker:none;visibility:visible;display:inline;overflow:visible;enable-background:accumulate"/><path id="path9091" d="M 56.003272,45.492684 C 56.066707,46.322928 57.016672,47 58.124213,47 59.23125,47 60.069458,46.322928 59.995454,45.492684 59.921945,44.666829 58.972488,44 57.876023,44 c -1.09697,3.91e-4 -1.935174,0.666829 -1.872751,1.492684 l 0,0 z" style="fill:#e1e1e1;fill-opacity:1"/><path id="path9093" d="m 56.719652,44.90878 c -0.101194,0.105359 -0.216979,0.274148 -0.216979,0.498536 0,0.01611 10e-4,0.03219 0.002,0.04928 0.04381,0.572194 0.785346,1.055609 1.619022,1.055609 0.474732,0 0.908686,-0.158536 1.160399,-0.424877 0.108237,-0.113658 0.231578,-0.301952 0.209427,-0.552683 -0.05085,-0.567318 -0.791387,-1.046829 -1.618016,-1.046829 -0.471209,3.9e-4 -0.903651,0.157561 -1.155869,0.420974 l -3e-6,0 3.3e-5,-7e-6 z" style="fill:url(#radialGradient2519);fill-opacity:1"/><rect id="rect6300-3" width="56.811" height="6.816" x="3.595" y="48.99" style="opacity:.3;fill:url(#radialGradient2516);fill-opacity:1;stroke:none"/></g></svg>