<svg xmlns="http://www.w3.org/2000/svg" xmlns:svg="http://www.w3.org/2000/svg" xmlns:xlink="http://www.w3.org/1999/xlink" id="svg2925" width="64" height="64" version="1.1"><defs id="defs2927"><linearGradient id="linearGradient2871" x1="14" x2="32" y1="2" y2="40" gradientTransform="matrix(2.8614465,0,0,1.3542361,-30.979973,-4.7461153)" gradientUnits="userSpaceOnUse" xlink:href="#linearGradient3208"/><linearGradient id="linearGradient3208"><stop id="stop3210" offset="0" style="stop-color:#fff;stop-opacity:1"/><stop id="stop3212" offset="1" style="stop-color:#fff;stop-opacity:0"/></linearGradient><linearGradient id="linearGradient2875" x1="24.118" x2="-32.012" y1="33.658" y2="33.658" gradientTransform="matrix(2.2653959e-7,-0.96727559,1.0679179,4.7877698e-7,-3.943739,28.182207)" gradientUnits="userSpaceOnUse" xlink:href="#linearGradient3775"/><linearGradient id="linearGradient3775"><stop id="stop3777" offset="0" style="stop-color:#fff;stop-opacity:1"/><stop id="stop3779" offset="1" style="stop-color:#fff;stop-opacity:0"/></linearGradient><linearGradient id="linearGradient2878" x1="18.601" x2="18.601" y1=".854" y2="49.956" gradientTransform="matrix(1.3527629,0,0,1.1474484,23.01074,2.8486952)" gradientUnits="userSpaceOnUse" xlink:href="#linearGradient3600-8"/><linearGradient id="linearGradient3600-8"><stop id="stop3602-2" offset="0" style="stop-color:#f4f4f4;stop-opacity:1"/><stop id="stop3604-5" offset="1" style="stop-color:#dbdbdb;stop-opacity:1"/></linearGradient><linearGradient id="linearGradient2880" x1="-74.785" x2="-74.785" y1="54.703" y2="2.104" gradientTransform="matrix(1.0923517,0,0,1.0738408,103.37869,1.5698863)" gradientUnits="userSpaceOnUse" xlink:href="#linearGradient3104-5"/><linearGradient id="linearGradient3104-5"><stop id="stop3106-2" offset="0" style="stop-color:#aaa;stop-opacity:1"/><stop id="stop3108-2" offset="1" style="stop-color:#c8c8c8;stop-opacity:1"/></linearGradient><linearGradient id="linearGradient23419-5"><stop id="stop23421-7" offset="0" style="stop-color:#000;stop-opacity:1"/><stop id="stop23423-0" offset="1" style="stop-color:#000;stop-opacity:0"/></linearGradient><radialGradient id="radialGradient2923" cx="23.335" cy="41.636" r="22.627" fx="23.335" fy="41.636" gradientTransform="matrix(0.83968921,0,0,0.24304524,12.40625,47.380549)" gradientUnits="userSpaceOnUse" xlink:href="#linearGradient23419-5"/></defs><metadata id="metadata2930"/><g id="layer1"><path id="path23417-6" d="M 51,57.5 C 51.000855,60.537485 42.494107,63 32,63 21.505892,63 12.999023,60.537485 13,57.5 12.999145,54.462529 21.505892,52 32,52 c 10.494107,0 19.000964,2.462529 19,5.5 l 0,0 z" style="opacity:.3;fill:url(#radialGradient2923);fill-opacity:1;fill-rule:evenodd;stroke:none;stroke-width:2;marker:none;visibility:visible;display:inline;overflow:visible"/><path id="path4487" d="m 31.94137,4.5004814 c -3.660766,0.082317 -7.783893,0.2942507 -11.244842,2.5643877 -0.09308,0.056187 -0.17855,0.1236943 -0.253643,0.2003428 -3.223115,3.8311641 -3.05439,8.6976591 -3.550929,13.3829021 -0.650246,10.37273 -0.61429,20.890451 1.056846,31.253475 -2.29e-4,0.01333 -2.29e-4,0.02667 0,0.04 0.543568,2.743677 2.34584,5.65586 5.664695,6.41097 0.03233,0.0076 0.05195,0.03308 0.08455,0.04 l 0,-0.04 c 5.035633,1.463303 10.47336,1.463701 15.514499,0.360617 2.610981,-0.57218 5.31625,-2.105196 6.256529,-4.888365 0.004,-0.01154 -0.004,-0.02808 0,-0.04 1.227253,-3.325076 1.203485,-6.748071 1.564132,-9.856866 0.01439,-0.01302 0.02846,-0.02636 0.0422,-0.04 C 47.747419,33.915663 47.701438,23.847941 46.356752,13.876589 46.170584,12.462469 45.868621,10.90595 45.13081,9.4690468 44.400994,8.047722 43.207357,6.7620662 41.452986,6.0632193 c -0.0081,-0.00257 0.0081,-0.036927 0,-0.040005 -0.01217,-0.00513 -0.02949,0.00513 -0.0422,0 -3.067219,-1.3050167 -6.41793,-1.410785 -9.384797,-1.522605 -0.02817,-8.711e-4 -0.05638,-8.711e-4 -0.08455,0 l -6.9e-5,-1.279e-4 z" style="color:#000;fill:url(#linearGradient2878);fill-opacity:1;fill-rule:nonzero;stroke:url(#linearGradient2880);stroke-width:.99992192;stroke-linecap:butt;stroke-linejoin:round;stroke-miterlimit:4;stroke-opacity:1;stroke-dasharray:none;stroke-dashoffset:0;marker:none;visibility:visible;display:inline;overflow:visible;enable-background:accumulate"/><path id="rect1320-6-9-3" d="m 32.001588,5.4999998 c -3.702445,0.082218 -7.661926,0.3282467 -10.806756,2.365458 -3.223778,3.5228692 -2.674159,8.4430502 -3.2832,12.7431162 -0.66062,10.407597 -0.663286,20.921697 1.022553,31.246314 0.493829,2.461713 2.134028,4.962417 4.905696,5.54467 4.898502,1.422451 10.237582,1.396264 15.212423,0.321193 2.373609,-0.513719 4.672094,-1.851535 5.437584,-4.135074 1.168203,-3.10103 1.187232,-6.452179 1.567533,-9.689718 C 46.739763,33.895973 46.723427,23.807695 45.364804,13.857924 45.005107,11.15953 44.041078,8.0520994 41.090769,6.9222617 38.268917,5.7263098 35.047886,5.6133927 32.001588,5.4999998 z" style="fill:none;stroke:url(#linearGradient2875);stroke-width:.99999988;stroke-linecap:round;stroke-linejoin:round;stroke-miterlimit:4;stroke-opacity:1;stroke-dasharray:none;stroke-dashoffset:0;marker:none;visibility:visible;display:inline;overflow:visible"/><path id="rect3238" d="m 31.999999,6.0000044 c -3.574773,0.080667 -7.38028,0.33456 -10.416666,2.3333333 C 18.47072,11.789738 19.004706,16.614405 18.416666,20.833338 17.96021,28.140774 17.816125,35.483636 18.375,42.791671 L 45.041666,15.208338 c -0.04179,-0.333529 -0.08023,-0.666778 -0.125,-1 -0.347294,-2.64748 -1.276427,-5.7248136 -4.125,-6.8333336 -2.724547,-1.1733866 -5.850414,-1.2637466 -8.791667,-1.375 z" style="opacity:.4;fill:url(#linearGradient2871);fill-opacity:1;fill-rule:nonzero;stroke:none;stroke-width:.99992186;marker:none;visibility:visible;display:inline;overflow:visible;enable-background:accumulate"/></g></svg>