<svg xmlns="http://www.w3.org/2000/svg" xmlns:svg="http://www.w3.org/2000/svg" xmlns:xlink="http://www.w3.org/1999/xlink" id="svg4532" width="64" height="64" version="1.1"><defs id="defs4534"><linearGradient id="linearGradient4015-9" x1="24" x2="24" y1="5" y2="37.992" gradientTransform="matrix(1.4102551,0,0,1.4102551,-2.1641901,7.7223306)" gradientUnits="userSpaceOnUse" xlink:href="#linearGradient3924-803-9-8"/><linearGradient id="linearGradient3924-803-9-8"><stop id="stop3252-4-0" offset="0" style="stop-color:#fff;stop-opacity:1"/><stop id="stop3254-4-8" offset=".063" style="stop-color:#fff;stop-opacity:.23529412"/><stop id="stop3256-1-5" offset=".951" style="stop-color:#fff;stop-opacity:.15686275"/><stop id="stop3258-8-3" offset="1" style="stop-color:#fff;stop-opacity:.39215687"/></linearGradient><linearGradient id="linearGradient3107-996" x1="24" x2="24" y1="5" y2="43" gradientTransform="matrix(1.4324324,0,0,1.4324324,-2.3783747,-2.3783644)" gradientUnits="userSpaceOnUse" xlink:href="#linearGradient3924-45"/><linearGradient id="linearGradient3924-45"><stop id="stop3124" offset="0" style="stop-color:#fff;stop-opacity:1"/><stop id="stop3126" offset=".063" style="stop-color:#fff;stop-opacity:.23529412"/><stop id="stop3128" offset=".951" style="stop-color:#fff;stop-opacity:.15686275"/><stop id="stop3130" offset="1" style="stop-color:#fff;stop-opacity:.39215687"/></linearGradient><linearGradient id="linearGradient4021-4" x1="19.567" x2="19.567" y1="38.228" y2="34.481" gradientTransform="matrix(1.4102551,0,0,1.4102551,-1.846096,-4.6666323)" gradientUnits="userSpaceOnUse" xlink:href="#linearGradient4026-8"/><linearGradient id="linearGradient4026-8"><stop id="stop4028-6" offset="0" style="stop-color:#ffeeb6;stop-opacity:1"/><stop id="stop4030-7" offset="1" style="stop-color:#feeeb7;stop-opacity:1"/></linearGradient><linearGradient id="linearGradient4018-0" x1="15" x2="15" y1="32" y2="6" gradientTransform="matrix(1.4210527,0,0,1.4339623,-2.1052639,-3.6037731)" gradientUnits="userSpaceOnUse" xlink:href="#linearGradient3909-3-9"/><linearGradient id="linearGradient3909-3-9"><stop id="stop3911-8-7" offset="0" style="stop-color:#fff0bf;stop-opacity:1"/><stop id="stop3913-4-2" offset="1" style="stop-color:#fdde76;stop-opacity:1"/></linearGradient><linearGradient id="linearGradient4009" x1="25.525" x2="25.525" y1="35.429" y2="15.738" gradientTransform="matrix(1.0362862,0,0,0.89403617,7.12938,-1.5846168)" gradientUnits="userSpaceOnUse" spreadMethod="reflect" xlink:href="#linearGradient3866-6"/><linearGradient id="linearGradient3866-6"><stop id="stop3868-7" offset="0" style="stop-color:#969696;stop-opacity:1"/><stop id="stop3872-0" offset=".5" style="stop-color:#858585;stop-opacity:.63478261"/><stop id="stop3870-0" offset="1" style="stop-color:#939393;stop-opacity:0"/></linearGradient><linearGradient id="linearGradient4012" x1="24" x2="24" y1="44" y2="3.899" gradientTransform="matrix(-1.4102551,0,0,1.4102551,65.854401,-1.8461218)" gradientUnits="userSpaceOnUse" xlink:href="#linearGradient3856-8-9"/><linearGradient id="linearGradient3856-8-9"><stop id="stop3858-7-5" offset="0" style="stop-color:#b67926;stop-opacity:1"/><stop id="stop3860-2-2" offset="1" style="stop-color:#eab41a;stop-opacity:1"/></linearGradient><linearGradient id="linearGradient4027" x1="24" x2="24" y1="5" y2="43" gradientTransform="matrix(1.2162162,0,0,0.72972967,2.8108144,7.4864927)" gradientUnits="userSpaceOnUse" xlink:href="#linearGradient3924-803-0"/><linearGradient id="linearGradient3924-803-0"><stop id="stop3252-06" offset="0" style="stop-color:#fff;stop-opacity:1"/><stop id="stop3254-1" offset=".063" style="stop-color:#fff;stop-opacity:.23529412"/><stop id="stop3256-0" offset=".951" style="stop-color:#fff;stop-opacity:.15686275"/><stop id="stop3258-2" offset="1" style="stop-color:#fff;stop-opacity:.39215687"/></linearGradient><linearGradient id="linearGradient4030" x1="16.626" x2="20.055" y1="15.298" y2="24.628" gradientTransform="matrix(0.97973275,0,0,0.99399695,8.440608,5.1682525)" gradientUnits="userSpaceOnUse" xlink:href="#linearGradient8265-821-176-38-919-66-249-7-7"/><linearGradient id="linearGradient8265-821-176-38-919-66-249-7-7"><stop id="stop2687-1-9" offset="0" style="stop-color:#fff;stop-opacity:1"/><stop id="stop2689-5-4" offset="1" style="stop-color:#fff;stop-opacity:0"/></linearGradient><linearGradient id="linearGradient4033" x1="25.525" x2="25.525" y1="30.189" y2="15.738" gradientTransform="matrix(1.0362862,0,0,0.89403617,7.12938,-3.5516392)" gradientUnits="userSpaceOnUse" spreadMethod="reflect" xlink:href="#linearGradient3333-4-4"/><linearGradient id="linearGradient3333-4-4"><stop id="stop3335-4-6" offset="0" style="stop-color:#fff;stop-opacity:1"/><stop id="stop3337-7-2" offset="1" style="stop-color:#fff;stop-opacity:0"/></linearGradient><linearGradient id="linearGradient4036" x1="23.904" x2="23.904" y1="35.75" y2="20.443" gradientTransform="matrix(1.0342251,0,0,0.95412236,7.278352,-1.357436)" gradientUnits="userSpaceOnUse" xlink:href="#linearGradient3495"/><linearGradient id="linearGradient3495"><stop id="stop3497" offset="0" style="stop-color:#000;stop-opacity:1"/><stop id="stop3874" offset=".5" style="stop-color:#000;stop-opacity:.49803922"/><stop id="stop3499" offset="1" style="stop-color:#000;stop-opacity:0"/></linearGradient><linearGradient id="linearGradient4039" x1="25.525" x2="25.525" y1="30.189" y2="15.738" gradientTransform="matrix(1.0362862,0,0,0.89403617,7.12938,0.0781346)" gradientUnits="userSpaceOnUse" spreadMethod="reflect" xlink:href="#linearGradient3333-4"/><linearGradient id="linearGradient3333-4"><stop id="stop3335-4" offset="0" style="stop-color:#fff;stop-opacity:1"/><stop id="stop3337-7" offset="1" style="stop-color:#fff;stop-opacity:0"/></linearGradient><linearGradient id="linearGradient4042" x1="25.525" x2="25.525" y1="30.189" y2="15.738" gradientTransform="matrix(1.0362862,0,0,0.89403617,7.12938,-1.5846168)" gradientUnits="userSpaceOnUse" spreadMethod="reflect" xlink:href="#linearGradient3866"/><linearGradient id="linearGradient3866"><stop id="stop3868" offset="0" style="stop-color:#a0a0a0;stop-opacity:1"/><stop id="stop3872" offset=".5" style="stop-color:#8f8f8f;stop-opacity:.63478261"/><stop id="stop3870" offset="1" style="stop-color:#9d9d9d;stop-opacity:0"/></linearGradient><linearGradient id="linearGradient4045" x1="20.053" x2="20.053" y1="10.637" y2="45.244" gradientTransform="matrix(1.0222223,0,0,0.84848482,7.4666663,1.2424163)" gradientUnits="userSpaceOnUse" xlink:href="#linearGradient3600"/><linearGradient id="linearGradient3600"><stop id="stop3602" offset="0" style="stop-color:#f4f4f4;stop-opacity:1"/><stop id="stop3604" offset="1" style="stop-color:#dbdbdb;stop-opacity:1"/></linearGradient><radialGradient id="radialGradient4052-2" cx="19.74" cy="8.45" r="20" fx="19.74" fy="8.45" gradientTransform="matrix(5.3772158e-8,2.1660942,-1.5882782,0,45.420714,-0.3388722)" gradientUnits="userSpaceOnUse" xlink:href="#linearGradient3846-2"/><linearGradient id="linearGradient3846-2"><stop id="stop3848-3" offset="0" style="stop-color:#fff3cb;stop-opacity:1"/><stop id="stop3850-6" offset=".262" style="stop-color:#fdde76;stop-opacity:1"/><stop id="stop3852-8" offset=".661" style="stop-color:#f9c440;stop-opacity:1"/><stop id="stop3854-1" offset="1" style="stop-color:#e48b20;stop-opacity:1"/></linearGradient><linearGradient id="linearGradient4054-2" x1="24" x2="24" y1="44" y2="3.899" gradientTransform="matrix(1.4102551,0,0,1.4102551,-1.846158,-1.8461218)" gradientUnits="userSpaceOnUse" xlink:href="#linearGradient3856-5"/><linearGradient id="linearGradient3856-5"><stop id="stop3858-3" offset="0" style="stop-color:#b67926;stop-opacity:1"/><stop id="stop3860-4" offset="1" style="stop-color:#eab41a;stop-opacity:1"/></linearGradient><radialGradient id="radialGradient2873-966-168-714" cx="4.993" cy="43.5" r="2.5" fx="4.993" fy="43.5" gradientTransform="matrix(2.003784,0,0,1.4,27.98813,-17.4)" gradientUnits="userSpaceOnUse" xlink:href="#linearGradient3688-166-749-654"/><linearGradient id="linearGradient3688-166-749-654"><stop id="stop3088" offset="0" style="stop-color:#181818;stop-opacity:1"/><stop id="stop3090" offset="1" style="stop-color:#181818;stop-opacity:0"/></linearGradient><radialGradient id="radialGradient2875-742-326-419" cx="4.993" cy="43.5" r="2.5" fx="4.993" fy="43.5" gradientTransform="matrix(2.003784,0,0,1.4,-20.01187,-104.4)" gradientUnits="userSpaceOnUse" xlink:href="#linearGradient3688-464-309-604"/><linearGradient id="linearGradient3688-464-309-604"><stop id="stop3094" offset="0" style="stop-color:#181818;stop-opacity:1"/><stop id="stop3096" offset="1" style="stop-color:#181818;stop-opacity:0"/></linearGradient><linearGradient id="linearGradient2877-634-617-908" x1="25.058" x2="25.058" y1="47.028" y2="39.999" gradientUnits="userSpaceOnUse" xlink:href="#linearGradient3702-501-757-795"/><linearGradient id="linearGradient3702-501-757-795"><stop id="stop3100" offset="0" style="stop-color:#181818;stop-opacity:0"/><stop id="stop3102" offset=".5" style="stop-color:#181818;stop-opacity:1"/><stop id="stop3104" offset="1" style="stop-color:#181818;stop-opacity:0"/></linearGradient></defs><metadata id="metadata4537"/><g id="layer1"><g id="g2036" transform="matrix(1.5000021,0,0,0.5555561,-4.0000114,35.888881)" style="display:inline"><g id="g3712" transform="matrix(1.052632,0,0,1.285713,-1.263158,-13.42854)" style="opacity:.4"><rect id="rect2801" width="5" height="7" x="38" y="40" style="fill:url(#radialGradient2873-966-168-714);fill-opacity:1;stroke:none"/><rect id="rect3696" width="5" height="7" x="-10" y="-47" transform="scale(-1,-1)" style="fill:url(#radialGradient2875-742-326-419);fill-opacity:1;stroke:none"/><rect id="rect3700" width="28" height="7" x="10" y="40" style="fill:url(#linearGradient2877-634-617-908);fill-opacity:1;stroke:none"/></g></g><rect id="rect5505-21" width="55" height="55" x="4.5" y="4.5" rx="3" ry="3" style="color:#000;fill:url(#radialGradient4052-2);fill-opacity:1;fill-rule:nonzero;stroke:url(#linearGradient4054-2);stroke-width:1;stroke-linecap:round;stroke-linejoin:round;stroke-miterlimit:4;stroke-opacity:1;stroke-dasharray:none;stroke-dashoffset:0;marker:none;visibility:visible;display:inline;overflow:visible;enable-background:accumulate"/><path id="rect4813" d="M 16,39.0625 16,42 l 3,0 0,4.09375 26,0 L 45,42 l 3,0 0,-2.9375 -3,0 -26,0 -3,0 z" style="color:#000;fill:#b3b3b3;fill-opacity:1;fill-rule:nonzero;stroke:none;stroke-width:1;marker:none;visibility:visible;display:inline;overflow:visible;enable-background:accumulate"/><path id="path4815" d="m 19.011662,43.5 25.976675,0" style="opacity:.2;fill:none;stroke:#000;stroke-width:1px;stroke-linecap:butt;stroke-linejoin:miter;stroke-opacity:1"/><path id="path4815-2" d="m 19.307729,45.397425 25.384592,0" style="opacity:.17000002;fill:none;stroke:#000;stroke-width:1px;stroke-linecap:butt;stroke-linejoin:miter;stroke-opacity:1"/><rect id="rect2396-9-0" width="46" height="29" x="9" y="11" rx="2.821" ry="2.821" style="fill:#8f8f8f;fill-opacity:1;fill-rule:evenodd;stroke:none;stroke-width:.99999994;marker:none;visibility:visible;display:inline;overflow:visible;enable-background:accumulate"/><rect id="rect2396-9" width="46" height="28" x="9" y="11" rx="1.41" ry="1.41" style="fill:url(#linearGradient4045);fill-opacity:1;fill-rule:evenodd;stroke:none;stroke-width:.99999994;marker:none;visibility:visible;display:inline;overflow:visible;enable-background:accumulate"/><path id="path3341-2" d="m 26.462594,25.683486 -13.964535,12.18791 z m 11.107693,0.05587 14.061688,11.907945 z" style="fill:none;stroke:url(#linearGradient4042);stroke-width:.99999994;stroke-linecap:butt;stroke-linejoin:miter;stroke-miterlimit:4;stroke-opacity:1;stroke-dasharray:none;stroke-dashoffset:0;marker:none;visibility:visible;display:inline;overflow:visible;enable-background:accumulate"/><path id="path3341-2-6" d="M 26.462594,27.346236 13.666709,38.346148 z m 11.107693,0.05587 12.763054,10.944038 z" style="opacity:.7;fill:none;stroke:url(#linearGradient4039);stroke-width:.99999994;stroke-linecap:butt;stroke-linejoin:miter;stroke-miterlimit:4;stroke-opacity:1;stroke-dasharray:none;stroke-dashoffset:0;marker:none;visibility:visible;display:inline;overflow:visible;enable-background:accumulate"/><path id="path3493" d="M 15.898752,19.072162 32.099754,31.588668 48.101744,19.072162" style="opacity:.06000001;fill:none;stroke:url(#linearGradient4036);stroke-width:.99999994;stroke-linecap:butt;stroke-linejoin:miter;stroke-miterlimit:4;stroke-opacity:1;stroke-dasharray:none"/><path id="path3926" d="M 10.483533,11.077477 32.000248,27.739625 53.842146,10.965432" style="opacity:.7;fill:none;stroke:url(#linearGradient4033);stroke-width:.99999994;stroke-linecap:butt;stroke-linejoin:miter;stroke-miterlimit:4;stroke-opacity:1;stroke-dasharray:none;stroke-dashoffset:0;marker:none;visibility:visible;display:inline;overflow:visible;enable-background:accumulate"/><path id="path3333" d="m 10.978214,10.846173 c -0.806595,0 -1.542269,0.445556 -1.542269,1.123532 l 0.015,17.209784 c 1.298226,-0.01846 44.127757,-6.758048 45.113152,-7.08223 l 0,-9.908506 c 0,-0.518225 -0.67945,-1.342579 -1.377872,-1.342579 z" style="opacity:.2;fill:url(#linearGradient4030);fill-opacity:1;fill-rule:evenodd;stroke:none"/><rect id="rect6741-1-5" width="45" height="27" x="9.5" y="11.5" rx=".705" ry=".705" style="fill:none;stroke:url(#linearGradient4027);stroke-width:1;stroke-linecap:round;stroke-linejoin:round;stroke-miterlimit:4;stroke-opacity:1;stroke-dasharray:none;stroke-dashoffset:0"/><path id="path7715" d="M 8.9364558,8.5 C 8.4724626,8.5 8.5,8.5422749 8.5,8.8802019 l 0,28.7801451 C 8.5,38.287483 8.4195077,38.5 9.2446199,38.5 l 7.3134941,0 C 18.298862,38.5 19.5,39.851391 19.5,41.761754 l 0,3.738246 25,0 0,-4.209378 C 44.5,39.882422 45.85842,38.5 47.2627,38.5 l 7.738097,0 C 55.511502,38.5 55.5,38.484472 55.5,37.976575 l 0,-29.1136977 C 55.5,8.3733719 55.478731,8.5 55.044253,8.5 z" style="opacity:.3;color:#000;fill:none;stroke:#b67926;stroke-width:1;stroke-linejoin:miter;stroke-miterlimit:4;stroke-opacity:1;stroke-dasharray:none;marker:none;visibility:visible;display:inline;overflow:visible;enable-background:accumulate"/><rect id="rect2396-9-3" width="47" height="29" x="8.5" y="10.5" rx="2.115" ry="2.115" style="opacity:.1;fill:none;stroke:#000;stroke-width:.99999994;stroke-opacity:1;marker:none;visibility:visible;display:inline;overflow:visible;enable-background:accumulate"/><path id="rect4076-3" d="m 56.905312,42.568735 c 1.34937,-0.07349 2.521196,-1.245318 2.594688,-2.594687 m -14.06201,6.833632 0,-4.098554 c 0,-0.07813 0.05408,-0.132211 0.132212,-0.132211 l 10.98527,0 m -11.125675,3.437497 0,0.793268 c 0,1.562563 -1.290296,2.69232 -2.852859,2.69232 l -21.153826,0 c -1.562563,0 -2.857006,-1.129757 -2.857006,-2.69232 l 0,-4.098554 c 0,-0.07813 -0.05408,-0.132211 -0.132212,-0.132211 0,0 -9.794903,0.01058 -11.330962,-0.0082 -1.349369,-0.07349 -2.521197,-1.245318 -2.594686,-2.594687" style="opacity:.1;color:#000;fill:none;stroke:url(#linearGradient4012);stroke-width:1;stroke-linecap:round;stroke-linejoin:round;stroke-miterlimit:4;stroke-opacity:1;stroke-dasharray:none;stroke-dashoffset:0;marker:none;visibility:visible;display:inline;overflow:visible;enable-background:accumulate"/><path id="path3341-2-2" d="M 10.483533,13.0445 32.000248,29.706649 53.842146,12.932455" style="fill:none;stroke:url(#linearGradient4009);stroke-width:.99999994;stroke-linecap:butt;stroke-linejoin:miter;stroke-miterlimit:4;stroke-opacity:1;stroke-dasharray:none;stroke-dashoffset:0;marker:none;visibility:visible;display:inline;overflow:visible;enable-background:accumulate"/><path id="path4246" d="M 7.5,5 C 6.115,5 5,6.115 5,7.5 l 0,32 C 5,40.885 6.115,42 7.5,42 l 2.5625,0 3.90625,0 L 19,42 19,41.5 C 19,40.115 17.885,39 16.5,39 l -2.4375,0 -1.5,0 L 8.5,39 C 8.223,39 8,38.777 8,38.5 L 8,8.5 C 8,8.223 8.223,8 8.5,8 l 47,0 C 55.777,8 56,8.223 56,8.5 l 0,30 C 56,38.777 55.777,39 55.5,39 L 51.4375,39 47.5,39 C 46.115,39 45,40.115 45,41.5 l 0,0.5 8.9375,0 2.5625,0 c 1.385,0 2.5,-1.115 2.5,-2.5 l 0,-32 C 59,6.115 57.885,5 56.5,5 l -49,0 z" style="color:#000;fill:url(#linearGradient4018-0);fill-opacity:1;fill-rule:nonzero;stroke:none;stroke-width:1;marker:none;visibility:visible;display:inline;overflow:visible;enable-background:accumulate"/><path id="rect4115" d="m 19,43.5 0,3 c 0,1.385 1.115,2.5 2.5,2.5 l 21,0 c 1.385,0 2.5,-1.115 2.5,-2.5 l 0,-3 c 0,1.385 -1.115,2.5 -2.5,2.5 l -21,0 C 20.115,46 19,44.885 19,43.5 z" style="color:#000;fill:url(#linearGradient4021-4);fill-opacity:1;fill-rule:nonzero;stroke:none;stroke-width:1;marker:none;visibility:visible;display:inline;overflow:visible;enable-background:accumulate"/><rect id="rect6741" width="53" height="53" x="5.5" y="5.5" rx="2" ry="2" style="opacity:.8;fill:none;stroke:url(#linearGradient3107-996);stroke-width:1;stroke-linecap:round;stroke-linejoin:round;stroke-miterlimit:4;stroke-opacity:1;stroke-dasharray:none;stroke-dashoffset:0"/><path id="path4815-8" d="m 19.011662,41.5 25.976675,0" style="opacity:.2;fill:none;stroke:#000;stroke-width:1px;stroke-linecap:butt;stroke-linejoin:miter;stroke-opacity:1"/><path id="rect4076-3-16" d="m 56.905312,43.568545 c 0.28193,-0.01535 0.556109,-0.07865 0.814139,-0.181504 M 6.2546842,43.373156 c 0.2679246,0.111029 0.553861,0.179339 0.8482478,0.195369 1.536059,0.01878 10.331459,0.0082 10.331459,0.0082 0.07813,0 0.132212,0.05408 0.132212,0.132211 l 0,3.499192 c 0,1.562563 1.839318,3.291872 3.401881,3.291872 l 22.163217,0 c 1.562563,0 3.298526,-1.75388 3.298526,-3.316443 l 0.0082,-3.474621 c 0,-0.07813 0.05408,-0.132211 0.132212,-0.132211 l 9.98484,0" style="color:#000;fill:none;stroke:url(#linearGradient4015-9);stroke-width:1;stroke-linecap:round;stroke-linejoin:round;stroke-miterlimit:4;stroke-opacity:1;stroke-dasharray:none;stroke-dashoffset:0;marker:none;visibility:visible;display:inline;overflow:visible;enable-background:accumulate"/></g></svg>