<svg xmlns="http://www.w3.org/2000/svg" xmlns:svg="http://www.w3.org/2000/svg" xmlns:xlink="http://www.w3.org/1999/xlink" id="svg6333" width="64" height="64" version="1.1"><defs id="defs6335"><linearGradient id="linearGradient5809" x1="167.983" x2="167.983" y1="8.508" y2="54.78" gradientTransform="translate(-130,1.759402e-6)" gradientUnits="userSpaceOnUse" xlink:href="#linearGradient5803"/><linearGradient id="linearGradient5803"><stop id="stop5805" offset="0" style="stop-color:#fff5ef;stop-opacity:1"/><stop id="stop5807" offset="1" style="stop-color:#fef8dd;stop-opacity:1"/></linearGradient><linearGradient id="linearGradient5801" x1="27.096" x2="27.096" y1="10.881" y2="39.151" gradientTransform="matrix(1.4102564,0,0,1.4102564,0.391129,-2.2559982)" gradientUnits="userSpaceOnUse" xlink:href="#linearGradient3895-9-0-3-5-2-0-4-9"/><linearGradient id="linearGradient3895-9-0-3-5-2-0-4-9"><stop id="stop3897-0-5-7-89-6-6-7-0" offset="0" style="stop-color:#dc5639;stop-opacity:1"/><stop id="stop3899-8-7-06-3-8-3-8-0" offset="1" style="stop-color:#9d0f0f;stop-opacity:1"/></linearGradient><linearGradient id="linearGradient3381-5-4" x1="24" x2="24" y1="5" y2="43" gradientTransform="matrix(1.4324324,0,0,1.4362832,-2.378381,-2.4707782)" gradientUnits="userSpaceOnUse" xlink:href="#linearGradient3924-2-2-5-8"/><linearGradient id="linearGradient3924-2-2-5-8"><stop id="stop3926-9-4-9-6" offset="0" style="stop-color:#fff;stop-opacity:1"/><stop id="stop3928-9-8-6-5" offset=".063" style="stop-color:#fff;stop-opacity:.23529412"/><stop id="stop3930-3-5-1-7" offset=".951" style="stop-color:#fff;stop-opacity:.15686275"/><stop id="stop3932-8-0-4-8" offset="1" style="stop-color:#fff;stop-opacity:.39215687"/></linearGradient><radialGradient id="radialGradient3402-7-1-6" cx="6.73" cy="9.957" r="12.672" fx="6.2" fy="9.957" gradientTransform="matrix(0,13.393984,-16.443533,0,196.90205,-114.89368)" gradientUnits="userSpaceOnUse" xlink:href="#linearGradient2867-449-88-871-390-598-476-591-434-148-57-177-8-3-3-6-4-8-8-8"/><linearGradient id="linearGradient2867-449-88-871-390-598-476-591-434-148-57-177-8-3-3-6-4-8-8-8"><stop id="stop3750-1-0-7-6-6-1-3-9" offset="0" style="stop-color:#ffcd7d;stop-opacity:1"/><stop id="stop3752-3-7-4-0-32-8-923-0" offset=".262" style="stop-color:#fc8f36;stop-opacity:1"/><stop id="stop3754-1-8-5-2-7-6-7-1" offset=".705" style="stop-color:#e23a0e;stop-opacity:1"/><stop id="stop3756-1-6-2-6-6-1-96-6" offset="1" style="stop-color:#ac441f;stop-opacity:1"/></linearGradient><radialGradient id="radialGradient3337-2-2" cx="4.993" cy="43.5" r="2.5" fx="4.993" fy="43.5" gradientTransform="matrix(2.003784,0,0,1.4,27.98813,-17.4)" gradientUnits="userSpaceOnUse" xlink:href="#linearGradient3688-166-749-4-0-3-8"/><linearGradient id="linearGradient3688-166-749-4-0-3-8"><stop id="stop2883-4-0-1-8" offset="0" style="stop-color:#181818;stop-opacity:1"/><stop id="stop2885-9-2-9-6" offset="1" style="stop-color:#181818;stop-opacity:0"/></linearGradient><radialGradient id="radialGradient3339-1-4" cx="4.993" cy="43.5" r="2.5" fx="4.993" fy="43.5" gradientTransform="matrix(2.003784,0,0,1.4,-20.01187,-104.4)" gradientUnits="userSpaceOnUse" xlink:href="#linearGradient3688-464-309-9-2-4-2"/><linearGradient id="linearGradient3688-464-309-9-2-4-2"><stop id="stop2889-7-9-6-9" offset="0" style="stop-color:#181818;stop-opacity:1"/><stop id="stop2891-6-6-1-7" offset="1" style="stop-color:#181818;stop-opacity:0"/></linearGradient><linearGradient id="linearGradient3702-501-757-8-4-1-1"><stop id="stop2895-8-9-9-1" offset="0" style="stop-color:#181818;stop-opacity:0"/><stop id="stop2897-7-8-7-7" offset=".5" style="stop-color:#181818;stop-opacity:1"/><stop id="stop2899-4-5-1-5" offset="1" style="stop-color:#181818;stop-opacity:0"/></linearGradient><linearGradient id="linearGradient6394" x1="25.058" x2="25.058" y1="47.028" y2="39.999" gradientUnits="userSpaceOnUse" xlink:href="#linearGradient3702-501-757-8-4-1-1"/><linearGradient id="linearGradient3027" x1="167.983" x2="167.983" y1="8.508" y2="54.78" gradientTransform="translate(-126.77481,1.759402e-6)" gradientUnits="userSpaceOnUse" xlink:href="#linearGradient5803"/><linearGradient id="linearGradient3031" x1="27.096" x2="27.096" y1="10.881" y2="39.151" gradientTransform="matrix(1.4102564,0,0,1.4102564,-63.306509,-2.2559982)" gradientUnits="userSpaceOnUse" xlink:href="#linearGradient3895-9-0-3-5-2-0-4-9"/><linearGradient id="linearGradient3034" x1="24" x2="24" y1="5" y2="43" gradientTransform="matrix(1.4324324,0,0,1.4362832,-2.378381,-2.4707782)" gradientUnits="userSpaceOnUse" xlink:href="#linearGradient3924-2-2-5-8"/><radialGradient id="radialGradient3037" cx="6.73" cy="9.957" r="12.672" fx="6.2" fy="9.957" gradientTransform="matrix(0,13.393984,-16.443533,0,196.90205,-114.89368)" gradientUnits="userSpaceOnUse" xlink:href="#linearGradient2867-449-88-871-390-598-476-591-434-148-57-177-8-3-3-6-4-8-8-8"/><linearGradient id="linearGradient3027-4" x1="167.983" x2="167.983" y1="8.508" y2="54.78" gradientTransform="translate(-126.77481,1.759402e-6)" gradientUnits="userSpaceOnUse" xlink:href="#linearGradient5803-0"/><linearGradient id="linearGradient5803-0"><stop id="stop5805-3" offset="0" style="stop-color:#fff5ef;stop-opacity:1"/><stop id="stop5807-1" offset="1" style="stop-color:#fef8dd;stop-opacity:1"/></linearGradient></defs><metadata id="metadata6338"/><g id="g3712-8-2-4-4" transform="matrix(1.5789502,0,0,0.7142857,-5.894751,27.928572)" style="opacity:.6"><rect id="rect2801-5-5-7-9" width="5" height="7" x="38" y="40" style="fill:url(#radialGradient3337-2-2);fill-opacity:1;stroke:none"/><rect id="rect3696-3-0-3-7" width="5" height="7" x="-10" y="-47" transform="scale(-1,-1)" style="fill:url(#radialGradient3339-1-4);fill-opacity:1;stroke:none"/><rect id="rect3700-5-6-8-4" width="28" height="7" x="10" y="40" style="fill:url(#linearGradient6394);fill-opacity:1;stroke:none"/></g><rect id="rect5505-21-3-8-5-2" width="55" height="55" x="4.5" y="4.5" rx="3" ry="3" style="color:#000;fill:url(#radialGradient3037);fill-opacity:1;fill-rule:nonzero;stroke:none;stroke-width:.99999994;marker:none;visibility:visible;display:inline;overflow:visible;enable-background:accumulate"/><rect id="rect6741-5-0-2-3" width="53" height="53.142" x="5.5" y="5.429" rx="2" ry="2" style="opacity:.5;fill:none;stroke:url(#linearGradient3034);stroke-width:1;stroke-linecap:round;stroke-linejoin:round;stroke-miterlimit:4;stroke-opacity:1;stroke-dasharray:none;stroke-dashoffset:0"/><rect id="rect5505-21-3-8-9-1-1" width="55" height="55" x="4.5" y="4.5" rx="3" ry="3" style="opacity:.4;color:#000;fill:none;stroke:#640000;stroke-width:1;stroke-linecap:round;stroke-linejoin:round;stroke-miterlimit:4;stroke-opacity:1;stroke-dasharray:none;stroke-dashoffset:0;marker:none;visibility:visible;display:inline;overflow:visible;enable-background:accumulate"/><path id="path3890" d="m 10.189859,51.706013 c 0,-0.920888 0.318056,-1.693994 0.954102,-2.319325 0.636085,-0.636656 1.414138,-0.955 2.334161,-0.955025 0.897297,2.5e-5 1.658312,0.318369 2.283027,0.955025 0.636063,0.625331 0.954093,1.398437 0.954093,2.319325 0,0.898193 -0.31803,1.665618 -0.954093,2.302275 -0.624715,0.625331 -1.38573,0.937987 -2.283027,0.937968 -0.920023,1.9e-5 -1.698076,-0.312637 -2.334161,-0.937968 C 10.507915,53.383 10.189859,52.615581 10.189859,51.706013 M 10,36.918996 l 0,5.44712 c 6.960553,0 12.614019,5.662368 12.614019,12.633884 l 5.467019,0 C 28.081038,45.013772 19.970519,36.918996 10,36.918996 z m 0.0094,-11.91898 0,6.021154 c 13.215833,0 23.946432,10.740879 23.946432,23.969386 l 6.044168,0 c 4.4e-5,-16.559428 -13.44699,-29.99054 -29.990558,-29.99054 z" style="font-size:13.58991337px;font-style:normal;font-variant:normal;font-weight:700;font-stretch:normal;text-align:start;line-height:125%;writing-mode:lr-tb;text-anchor:start;opacity:.3;fill:#ba3d12;fill-opacity:1;stroke:none;font-family:Bitstream Vera Serif"/><path id="path3892" d="m 10.189859,51.706013 c 0,-0.920888 0.318056,-1.693994 0.954102,-2.319325 0.636085,-0.636656 1.414138,-0.955 2.334161,-0.955025 0.897297,2.5e-5 1.658312,0.318369 2.283027,0.955025 0.636063,0.625331 0.954093,1.398437 0.954093,2.319325 0,0.898193 -0.31803,1.665618 -0.954093,2.302275 -0.624715,0.625331 -1.38573,0.937987 -2.283027,0.937968 -0.920023,1.9e-5 -1.698076,-0.312637 -2.334161,-0.937968 C 10.507915,53.383 10.189859,52.615581 10.189859,51.706013 M 10,36.918996 l 0,5.44712 c 6.960553,0 12.614019,5.662368 12.614019,12.633884 l 5.467019,0 C 28.081038,45.013772 19.970519,36.918996 10,36.918996 z m 0.0094,-11.91898 0,6.021154 c 13.215833,0 23.946432,10.740879 23.946432,23.969386 l 6.044168,0 c 4.4e-5,-16.559428 -13.44699,-29.99054 -29.990558,-29.99054 z" style="font-size:13.58991337px;font-style:normal;font-variant:normal;font-weight:700;font-stretch:normal;text-align:start;line-height:125%;writing-mode:lr-tb;text-anchor:start;opacity:.1;fill:#ba3d12;fill-opacity:1;stroke:#ba3d12;stroke-width:2;stroke-linejoin:round;stroke-miterlimit:4;stroke-opacity:1;stroke-dasharray:none;font-family:Bitstream Vera Serif"/><path id="path4311" d="m 10.189859,50.706013 c 0,-0.920888 0.318056,-1.693994 0.954102,-2.319325 0.636085,-0.636656 1.414138,-0.955 2.334161,-0.955025 0.897297,2.5e-5 1.658312,0.318369 2.283027,0.955025 0.636063,0.625331 0.954093,1.398437 0.954093,2.319325 0,0.898193 -0.31803,1.665618 -0.954093,2.302275 -0.624715,0.625331 -1.38573,0.937987 -2.283027,0.937968 -0.920023,1.9e-5 -1.698076,-0.312637 -2.334161,-0.937968 C 10.507915,52.383 10.189859,51.615581 10.189859,50.706013 M 10,35.918996 l 0,5.44712 c 6.960553,0 12.614019,5.662368 12.614019,12.633884 l 5.467019,0 C 28.081038,44.013772 19.970519,35.918996 10,35.918996 z m 0.0094,-11.91898 0,6.021154 c 13.215833,0 23.946432,10.740879 23.946432,23.969386 l 6.044168,0 c 4.4e-5,-16.559428 -13.44699,-29.99054 -29.990558,-29.99054 z" style="font-size:13.58991337px;font-style:normal;font-variant:normal;font-weight:700;font-stretch:normal;text-align:start;line-height:125%;writing-mode:lr-tb;text-anchor:start;color:#000;fill:url(#linearGradient3027-4);fill-opacity:1;fill-rule:nonzero;stroke:none;marker:none;visibility:visible;display:inline;overflow:visible;enable-background:accumulate;font-family:Bitstream Vera Serif"/></svg>