<svg xmlns="http://www.w3.org/2000/svg" xmlns:svg="http://www.w3.org/2000/svg" xmlns:xlink="http://www.w3.org/1999/xlink" id="svg6333" width="64" height="64" version="1.1"><defs id="defs6335"><linearGradient id="linearGradient5809" x1="167.983" x2="167.983" y1="8.508" y2="54.78" gradientTransform="translate(-130,1.759402e-6)" gradientUnits="userSpaceOnUse" xlink:href="#linearGradient5803"/><linearGradient id="linearGradient5803"><stop id="stop5805" offset="0" style="stop-color:#fff5ef;stop-opacity:1"/><stop id="stop5807" offset="1" style="stop-color:#fef8dd;stop-opacity:1"/></linearGradient><linearGradient id="linearGradient5801" x1="27.096" x2="27.096" y1="10.881" y2="39.151" gradientTransform="matrix(1.4102564,0,0,1.4102564,0.391129,-2.2559982)" gradientUnits="userSpaceOnUse" xlink:href="#linearGradient3895-9-0-3-5-2-0-4-9"/><linearGradient id="linearGradient3895-9-0-3-5-2-0-4-9"><stop id="stop3897-0-5-7-89-6-6-7-0" offset="0" style="stop-color:#dc5639;stop-opacity:1"/><stop id="stop3899-8-7-06-3-8-3-8-0" offset="1" style="stop-color:#9d0f0f;stop-opacity:1"/></linearGradient><linearGradient id="linearGradient3381-5-4" x1="24" x2="24" y1="5" y2="43" gradientTransform="matrix(1.4324324,0,0,1.4362832,-2.378381,-2.4707782)" gradientUnits="userSpaceOnUse" xlink:href="#linearGradient3924-2-2-5-8"/><linearGradient id="linearGradient3924-2-2-5-8"><stop id="stop3926-9-4-9-6" offset="0" style="stop-color:#fff;stop-opacity:1"/><stop id="stop3928-9-8-6-5" offset=".063" style="stop-color:#fff;stop-opacity:.23529412"/><stop id="stop3930-3-5-1-7" offset=".951" style="stop-color:#fff;stop-opacity:.15686275"/><stop id="stop3932-8-0-4-8" offset="1" style="stop-color:#fff;stop-opacity:.39215687"/></linearGradient><radialGradient id="radialGradient3402-7-1-6" cx="6.73" cy="9.957" r="12.672" fx="6.2" fy="9.957" gradientTransform="matrix(0,13.393984,-16.443533,0,196.90205,-114.89368)" gradientUnits="userSpaceOnUse" xlink:href="#linearGradient2867-449-88-871-390-598-476-591-434-148-57-177-8-3-3-6-4-8-8-8"/><linearGradient id="linearGradient2867-449-88-871-390-598-476-591-434-148-57-177-8-3-3-6-4-8-8-8"><stop id="stop3750-1-0-7-6-6-1-3-9" offset="0" style="stop-color:#ffcd7d;stop-opacity:1"/><stop id="stop3752-3-7-4-0-32-8-923-0" offset=".262" style="stop-color:#fc8f36;stop-opacity:1"/><stop id="stop3754-1-8-5-2-7-6-7-1" offset=".705" style="stop-color:#e23a0e;stop-opacity:1"/><stop id="stop3756-1-6-2-6-6-1-96-6" offset="1" style="stop-color:#ac441f;stop-opacity:1"/></linearGradient><radialGradient id="radialGradient3337-2-2" cx="4.993" cy="43.5" r="2.5" fx="4.993" fy="43.5" gradientTransform="matrix(2.003784,0,0,1.4,27.98813,-17.4)" gradientUnits="userSpaceOnUse" xlink:href="#linearGradient3688-166-749-4-0-3-8"/><linearGradient id="linearGradient3688-166-749-4-0-3-8"><stop id="stop2883-4-0-1-8" offset="0" style="stop-color:#181818;stop-opacity:1"/><stop id="stop2885-9-2-9-6" offset="1" style="stop-color:#181818;stop-opacity:0"/></linearGradient><radialGradient id="radialGradient3339-1-4" cx="4.993" cy="43.5" r="2.5" fx="4.993" fy="43.5" gradientTransform="matrix(2.003784,0,0,1.4,-20.01187,-104.4)" gradientUnits="userSpaceOnUse" xlink:href="#linearGradient3688-464-309-9-2-4-2"/><linearGradient id="linearGradient3688-464-309-9-2-4-2"><stop id="stop2889-7-9-6-9" offset="0" style="stop-color:#181818;stop-opacity:1"/><stop id="stop2891-6-6-1-7" offset="1" style="stop-color:#181818;stop-opacity:0"/></linearGradient><linearGradient id="linearGradient3702-501-757-8-4-1-1"><stop id="stop2895-8-9-9-1" offset="0" style="stop-color:#181818;stop-opacity:0"/><stop id="stop2897-7-8-7-7" offset=".5" style="stop-color:#181818;stop-opacity:1"/><stop id="stop2899-4-5-1-5" offset="1" style="stop-color:#181818;stop-opacity:0"/></linearGradient><linearGradient id="linearGradient6394" x1="25.058" x2="25.058" y1="47.028" y2="39.999" gradientUnits="userSpaceOnUse" xlink:href="#linearGradient3702-501-757-8-4-1-1"/></defs><metadata id="metadata6338"/><g id="layer1"><g id="g3712-8-2-4-4" transform="matrix(1.5789502,0,0,0.7142857,-5.894751,27.928572)" style="opacity:.6"><rect id="rect2801-5-5-7-9" width="5" height="7" x="38" y="40" style="fill:url(#radialGradient3337-2-2);fill-opacity:1;stroke:none"/><rect id="rect3696-3-0-3-7" width="5" height="7" x="-10" y="-47" transform="scale(-1,-1)" style="fill:url(#radialGradient3339-1-4);fill-opacity:1;stroke:none"/><rect id="rect3700-5-6-8-4" width="28" height="7" x="10" y="40" style="fill:url(#linearGradient6394);fill-opacity:1;stroke:none"/></g><rect id="rect5505-21-3-8-5-2" width="55" height="55" x="4.5" y="4.5" rx="3" ry="3" style="color:#000;fill:url(#radialGradient3402-7-1-6);fill-opacity:1;fill-rule:nonzero;stroke:none;stroke-width:.99999994;marker:none;visibility:visible;display:inline;overflow:visible;enable-background:accumulate"/><rect id="rect6741-5-0-2-3" width="53" height="53.142" x="5.5" y="5.429" rx="2" ry="2" style="opacity:.5;fill:none;stroke:url(#linearGradient3381-5-4);stroke-width:1;stroke-linecap:round;stroke-linejoin:round;stroke-miterlimit:4;stroke-opacity:1;stroke-dasharray:none;stroke-dashoffset:0"/><path id="path4138-8-2-1" d="m 33.499999,10.000412 c -1.91837,-0.15347 -2.81209,1.83105 -2.5,3.46109 0,9.26297 0,18.52594 0,27.78891 -1.30097,-0.15568 -2.9912,0.11549 -4.36516,0.59809 -3.41161,1.13566 -6.25567,4.23794 -6.60359,7.83941 -0.62604,4.48046 4.33223,8.22793 8.48935,7.15341 4.70705,-0.75115 8.11429,-5.63807 7.4794,-10.30966 0.0109,-7.16667 -0.029,-14.33335 0,-21.5 3.47483,2.07457 6.40852,5.77259 6.12261,10.01103 -0.0172,2.92417 -1.06004,5.70077 -1.91636,8.44401 -0.0422,1.05173 1.51794,1.37078 1.95078,0.43405 4.19183,-5.25532 5.1363,-13.00811 1.84573,-18.94661 -1.77577,-3.24689 -5.01253,-5.42635 -6.57133,-8.82128 -1.331,-1.66417 -0.85485,-4.15164 -2.18921,-5.69639 -0.4949,-0.38081 -1.13472,-0.4787 -1.74222,-0.45606 z" style="opacity:.15;color:#000;fill:url(#linearGradient5801);fill-opacity:1;fill-rule:nonzero;stroke:none;stroke-width:.98542738;marker:none;visibility:visible;display:inline;overflow:visible;enable-background:accumulate"/><path id="path7249-8-0-3-6-1-6-6" d="m 33.500729,11.002382 c -1.52536,0 -1.49143,1.00853 -1.49143,2.03608 l -0.0186,29.20231 c -0.32042,0.33478 -0.8008,-0.21581 -1.20902,-0.0729 -4.44734,-0.27112 -9.30646,2.95378 -9.75107,7.60779 -0.52399,3.70021 3.38561,6.74466 6.87198,6.16916 4.39263,-0.46671 7.66087,-4.89935 7.08812,-9.27624 0.0124,-7.70634 -0.0248,-15.4216 0.0186,-23.12237 0.29943,-0.34295 0.91042,0.38724 1.22587,0.42306 3.53276,2.09034 6.65778,5.53738 6.86873,9.83008 0.23194,3.35433 -0.78358,6.63648 -1.92634,9.74613 3.82892,-4.71333 5.05465,-11.58914 2.39396,-17.15629 -1.36075,-3.23165 -4.43044,-5.22319 -6.14768,-8.22483 -1.26817,-2.0059 -2.23333,-4.24521 -2.53531,-6.61333 -0.24862,-0.49382 -0.90352,-0.55395 -1.3878,-0.54864 z" style="opacity:.3;fill:#ae2109;fill-opacity:1;stroke:none"/><path id="path7249-8-0-3-6-1-6" d="m 33.500729,10.001942 c -1.52536,0 -1.49143,1.00853 -1.49143,2.03608 l -0.0186,29.20231 c 0,0 -0.62318,-0.0729 -1.20902,-0.0729 -4.44734,-0.27112 -9.30646,2.95378 -9.75107,7.60779 -0.52399,3.70021 3.38561,6.74466 6.87198,6.16916 4.39263,-0.46671 7.66087,-4.89935 7.08812,-9.27624 0.0124,-7.70634 -0.0248,-15.4216 0.0186,-23.12237 0.29943,-0.34295 0.91042,0.38724 1.22587,0.42307 3.53276,2.09033 6.65778,5.53737 6.86873,9.83007 0.23194,3.35433 -0.78358,6.63648 -1.92634,9.74613 3.82892,-4.71333 5.05465,-11.58914 2.39396,-17.15629 -1.36075,-3.23165 -4.43044,-5.22319 -6.14768,-8.22483 -1.26817,-2.0059 -2.23333,-4.24521 -2.53531,-6.61333 -0.24862,-0.49382 -0.90352,-0.55395 -1.3878,-0.54864 z" style="fill:url(#linearGradient5809);fill-opacity:1;stroke:none"/><rect id="rect5505-21-3-8-9-1-1" width="55" height="55" x="4.5" y="4.5" rx="3" ry="3" style="opacity:.4;color:#000;fill:none;stroke:#640000;stroke-width:1;stroke-linecap:round;stroke-linejoin:round;stroke-miterlimit:4;stroke-opacity:1;stroke-dasharray:none;stroke-dashoffset:0;marker:none;visibility:visible;display:inline;overflow:visible;enable-background:accumulate"/></g></svg>