<svg xmlns="http://www.w3.org/2000/svg" xmlns:svg="http://www.w3.org/2000/svg" xmlns:xlink="http://www.w3.org/1999/xlink" id="svg4518" width="64" height="64" version="1.1"><defs id="defs4520"><linearGradient id="linearGradient4335"><stop style="stop-color:#fff;stop-opacity:1" id="stop4337" offset="0"/><stop style="stop-color:#fff;stop-opacity:0" id="stop4339" offset="1"/></linearGradient><linearGradient id="linearGradient3549" x1="71.204" x2="71.204" y1="15.369" y2="40.496" gradientTransform="matrix(2.363279,0,0,2.363279,-138.57229,-33.857264)" gradientUnits="userSpaceOnUse" xlink:href="#linearGradient4806-2-9"/><linearGradient id="linearGradient4806-2-9"><stop id="stop4808-4-5" offset="0" style="stop-color:#fff;stop-opacity:1"/><stop id="stop4810-0-5" offset=".424" style="stop-color:#fff;stop-opacity:.23529412"/><stop id="stop4812-8-4" offset=".821" style="stop-color:#fff;stop-opacity:.15686275"/><stop id="stop4814-0-5" offset="1" style="stop-color:#fff;stop-opacity:.39215687"/></linearGradient><radialGradient id="radialGradient3300" cx="99.189" cy="185.297" r="62.769" fx="99.189" fy="185.297" gradientTransform="matrix(0.3823536,7.5555777e-8,-1.8372241e-8,0.1115198,-5.9254255,36.334017)" gradientUnits="userSpaceOnUse" xlink:href="#linearGradient3820-7-2-7"/><linearGradient id="linearGradient3820-7-2-7"><stop id="stop3822-2-6-8" offset="0" style="stop-color:#000;stop-opacity:1"/><stop id="stop3824-1-2-6" offset="1" style="stop-color:#000;stop-opacity:0"/></linearGradient><radialGradient id="radialGradient4192" cx="99.189" cy="185.297" r="62.769" fx="99.189" fy="185.297" gradientTransform="matrix(0.2549024,5.3967361e-8,-1.2248161e-8,0.07965545,6.7163832,44.238834)" gradientUnits="userSpaceOnUse" xlink:href="#linearGradient3820-7-2-7"/><linearGradient id="linearGradient4330"><stop id="stop4332" offset="0" style="stop-color:#f0c1ff;stop-opacity:1"/><stop id="stop4334" offset=".262" style="stop-color:#c5a3f2;stop-opacity:1"/><stop id="stop4336" offset=".705" style="stop-color:#7a36b1;stop-opacity:1"/><stop id="stop4338" offset="1" style="stop-color:#4c2d81;stop-opacity:1"/></linearGradient><radialGradient id="radialGradient3092" cx="1.745" cy="8.45" r="20" fx="1.745" fy="8.45" gradientTransform="matrix(0,8.4853025,-8.9764378,-2.3095688e-7,107.84892,-32.827113)" gradientUnits="userSpaceOnUse" xlink:href="#linearGradient4330"/><linearGradient id="linearGradient4362" x1="3.5" x2="47.5" y1="23" y2="23" gradientTransform="matrix(0,1.3293011,1.3294662,0,1.5068698,-2.3335072)" gradientUnits="userSpaceOnUse" xlink:href="#linearGradient4804"/><linearGradient id="linearGradient4804"><stop id="stop4806" offset="0" style="stop-color:#fff;stop-opacity:0"/><stop style="stop-color:#fff;stop-opacity:.85098039" id="stop4808" offset=".292"/><stop id="stop4812" offset=".457" style="stop-color:#fff;stop-opacity:.12682927"/><stop style="stop-color:#fff;stop-opacity:.27317074" id="stop4818" offset=".725"/><stop style="stop-color:#fff;stop-opacity:1" id="stop4816" offset=".84"/><stop id="stop4810" offset="1" style="stop-color:#fff;stop-opacity:0"/></linearGradient><linearGradient id="linearGradient4355" x1="47.1" x2="4.287" y1="27.262" y2="27.243" gradientTransform="matrix(0.94007458,0.93995783,-0.94007458,0.93995783,29.734412,-14.024284)" gradientUnits="userSpaceOnUse" xlink:href="#linearGradient4820"/><linearGradient id="linearGradient4820"><stop style="stop-color:#fff;stop-opacity:0" id="stop4822" offset="0"/><stop id="stop4824" offset=".143" style="stop-color:#fff;stop-opacity:.85098039"/><stop style="stop-color:#fff;stop-opacity:.12682927" id="stop4826" offset=".346"/><stop id="stop4928" offset=".436" style="stop-color:#fff;stop-opacity:1"/><stop style="stop-color:#fff;stop-opacity:.20487805" id="stop4930" offset=".581"/><stop id="stop4828" offset=".725" style="stop-color:#fff;stop-opacity:.27317074"/><stop id="stop4830" offset=".84" style="stop-color:#fff;stop-opacity:1"/><stop style="stop-color:#fff;stop-opacity:0" id="stop4832" offset="1"/></linearGradient><linearGradient id="linearGradient4344" x1="4.49" x2="47.5" y1="23" y2="23" gradientTransform="matrix(1.3294662,0,0,-1.3293011,-1.8167904,62.137603)" gradientUnits="userSpaceOnUse" xlink:href="#linearGradient4834"/><linearGradient id="linearGradient4834"><stop style="stop-color:#fff;stop-opacity:0" id="stop4836" offset="0"/><stop id="stop4838" offset=".168" style="stop-color:#fff;stop-opacity:.85098039"/><stop style="stop-color:#fff;stop-opacity:.12682927" id="stop4840" offset=".457"/><stop id="stop4842" offset=".608" style="stop-color:#fff;stop-opacity:.27317074"/><stop id="stop4844" offset=".693" style="stop-color:#fff;stop-opacity:1"/><stop style="stop-color:#fff;stop-opacity:0" id="stop4846" offset="1"/></linearGradient><linearGradient id="linearGradient4898" x1="5.551" x2="44.629" y1="58.276" y2="22.18" gradientTransform="matrix(0,1.3293011,1.3294662,0,-15.833512,-2.3335072)" gradientUnits="userSpaceOnUse" xlink:href="#linearGradient4914"/><linearGradient id="linearGradient4914"><stop id="stop4916" offset="0" style="stop-color:#fff;stop-opacity:0"/><stop style="stop-color:#fff;stop-opacity:.85098039" id="stop4918" offset=".143"/><stop id="stop4920" offset=".346" style="stop-color:#fff;stop-opacity:.12682927"/><stop style="stop-color:#fff;stop-opacity:.27317074" id="stop4922" offset=".645"/><stop style="stop-color:#fff;stop-opacity:1" id="stop4924" offset=".728"/><stop id="stop4932" offset=".809" style="stop-color:#fff;stop-opacity:.2292683"/><stop id="stop4926" offset="1" style="stop-color:#fff;stop-opacity:0"/></linearGradient><linearGradient id="linearGradient4946" x1="5.551" x2="44.629" y1="58.276" y2="22.18" gradientTransform="matrix(0,-1.3293011,-1.3294662,0,55.626539,67.111067)" gradientUnits="userSpaceOnUse" xlink:href="#linearGradient4914"/><linearGradient id="linearGradient4950" x1="25.177" x2="40.761" y1="48.221" y2="17.055" gradientTransform="matrix(0,1.3293011,1.3294662,0,-1.1508353,4.8267357)" gradientUnits="userSpaceOnUse" xlink:href="#linearGradient4952"/><linearGradient id="linearGradient4952"><stop style="stop-color:#fff;stop-opacity:0" id="stop4954" offset="0"/><stop id="stop4960" offset=".448" style="stop-color:#fff;stop-opacity:.27317074"/><stop id="stop4962" offset=".55" style="stop-color:#fff;stop-opacity:1"/><stop style="stop-color:#fff;stop-opacity:.2292683" id="stop4964" offset=".721"/><stop style="stop-color:#fff;stop-opacity:0" id="stop4966" offset="1"/></linearGradient><radialGradient id="radialGradient4341" cx="46.263" cy="21.304" r="3.636" fx="46.263" fy="21.304" gradientTransform="matrix(1,0,0,0.99987575,0,0.00264709)" gradientUnits="userSpaceOnUse" xlink:href="#linearGradient4335"/><radialGradient id="radialGradient4343" cx="25.177" cy="43.295" r="3.636" fx="25.177" fy="43.295" gradientTransform="matrix(1,0,0,0.99987575,0,0.00537919)" gradientUnits="userSpaceOnUse" xlink:href="#linearGradient4335"/><radialGradient id="radialGradient4345" cx="41.15" cy="51.827" r="3.636" fx="41.15" fy="51.827" gradientTransform="matrix(1,0,0,0.99987575,0,0.00643933)" gradientUnits="userSpaceOnUse" xlink:href="#linearGradient4335"/><radialGradient id="radialGradient4347" cx="13.974" cy="22.656" r="3.636" fx="13.974" fy="22.656" gradientTransform="matrix(1,0,0,0.99987575,0,0.00281489)" gradientUnits="userSpaceOnUse" xlink:href="#linearGradient4335"/><linearGradient id="linearGradient5048-4"><stop id="stop5050-6-3" offset="0" style="stop-color:#000;stop-opacity:0"/><stop id="stop5056-9" offset=".5" style="stop-color:#000;stop-opacity:1"/><stop id="stop5052-3" offset="1" style="stop-color:#000;stop-opacity:0"/></linearGradient><linearGradient id="linearGradient3117"><stop id="stop3119" offset="0" style="stop-color:#fff;stop-opacity:1"/><stop id="stop3121" offset=".569" style="stop-color:#fff;stop-opacity:.23529412"/><stop id="stop3123" offset=".933" style="stop-color:#fff;stop-opacity:.15686275"/><stop id="stop3125" offset="1" style="stop-color:#fff;stop-opacity:.39215687"/></linearGradient><linearGradient id="linearGradient3196-3" x1="302.857" x2="302.857" y1="366.648" y2="609.505" gradientTransform="matrix(0.08449704,0,0,0.01235294,-6.5396456,38.470822)" gradientUnits="userSpaceOnUse" xlink:href="#linearGradient5048-4"/><radialGradient id="radialGradient3198-5" cx="605.714" cy="486.648" r="117.143" fx="605.714" fy="486.648" gradientTransform="matrix(-0.0289166,0,0,0.01235294,21.026894,38.470848)" gradientUnits="userSpaceOnUse" xlink:href="#linearGradient3820-7-2-7"/><radialGradient id="radialGradient3200-3" cx="605.714" cy="486.648" r="117.143" fx="605.714" fy="486.648" gradientTransform="matrix(0.02891661,0,0,0.01235294,26.973101,38.470848)" gradientUnits="userSpaceOnUse" xlink:href="#linearGradient3820-7-2-7"/><linearGradient id="linearGradient3042-5" x1="24" x2="24" y1="1.312" y2="44.449" gradientTransform="matrix(0.64447106,0,0,0.6279377,32.532692,34.525971)" gradientUnits="userSpaceOnUse" xlink:href="#linearGradient4171"/><linearGradient id="linearGradient3039-2" x1="29.127" x2="29.291" y1="19.788" y2="57.567" gradientTransform="matrix(0.6665434,0,-0.00290144,0.6778742,28.643187,22.78161)" gradientUnits="userSpaceOnUse" xlink:href="#linearGradient3117"/><linearGradient id="linearGradient4171"><stop id="stop4173" offset="0" style="stop-color:#ffe16b;stop-opacity:1"/><stop id="stop4175" offset="1" style="stop-color:#f9c440;stop-opacity:1"/></linearGradient></defs><metadata id="metadata4523"/><path style="opacity:.2;fill:url(#radialGradient3300);fill-opacity:1;stroke:none" id="path3818-0" d="m 56,56.999868 a 24,6.9985714 0 1 1 -47.9999995,0 24,6.9985714 0 1 1 47.9999995,0 z"/><path style="opacity:.4;fill:url(#radialGradient4192);fill-opacity:1;stroke:none" id="path4190" d="m 48,58.999868 a 16,4.9988822 0 1 1 -31.999999,0 16,4.9988822 0 1 1 31.999999,0 z"/><path id="path2555" d="m 31.999946,2.4999964 c -16.277083,0 -29.500004,13.2229156 -29.500004,29.4999976 0,16.277087 13.222921,29.500008 29.500004,29.500004 16.277077,0 29.50001,-13.222917 29.499996,-29.500004 0,-16.277082 -13.222919,-29.4999976 -29.499996,-29.4999976 z" style="color:#000;fill:url(#radialGradient3092);fill-opacity:1;fill-rule:nonzero;stroke:none;stroke-width:1;marker:none;visibility:visible;display:inline;overflow:visible;enable-background:accumulate"/><path id="path2555-7-1" d="m 32,2.499999 c -16.277082,0 -29.5,13.222915 -29.5,29.499998 0,16.277083 13.222918,29.500005 29.5,29.5 16.27708,0 29.50001,-13.222917 29.5,-29.5 C 61.5,15.722914 48.27708,2.499999 32,2.499999 z" style="opacity:.5;color:#000;fill:none;stroke:#6326b9;stroke-width:1;stroke-linecap:butt;stroke-linejoin:miter;stroke-miterlimit:4;stroke-opacity:1;stroke-dasharray:none;stroke-dashoffset:0;marker:none;visibility:visible;display:inline;overflow:visible;enable-background:accumulate"/><path id="path3026-5" d="m 60.499998,32 c 0,15.740111 -12.7599,28.499991 -28.500011,28.499991 C 16.259892,60.499991 3.5000025,47.740111 3.5000025,32 3.5000025,16.259889 16.259892,3.500005 31.999987,3.500005 47.740098,3.500005 60.499998,16.259889 60.499998,32 z" style="opacity:.5;color:#000;fill:none;stroke:url(#linearGradient3549);stroke-width:1;stroke-linecap:round;stroke-linejoin:round;stroke-miterlimit:4;stroke-opacity:1;stroke-dasharray:none;stroke-dashoffset:0;marker:none;visibility:visible;display:inline;overflow:visible;enable-background:accumulate"/><path style="opacity:1;fill:none;stroke:url(#linearGradient4362);stroke-width:1;stroke-linecap:round;stroke-linejoin:round;stroke-miterlimit:4;stroke-dasharray:none;stroke-dashoffset:0;stroke-opacity:1" id="path3609" d="M 34.478202,61.051489 C 55.131904,40.711636 47.177791,1.5066705 32.054264,2.9837796"/><path style="opacity:1;fill:none;stroke:url(#linearGradient4355);stroke-width:1;stroke-linecap:round;stroke-linejoin:round;stroke-miterlimit:4;stroke-dasharray:none;stroke-dashoffset:0;stroke-opacity:1" id="path3611" d="M 52.296203,51.772766 C 41.474462,62.230455 2.3210863,32.059646 16.293994,7.5016523"/><path style="fill:none;stroke:url(#linearGradient4344);stroke-width:1;stroke-linecap:round;stroke-linejoin:round;stroke-miterlimit:4;stroke-dasharray:none;stroke-dashoffset:0;stroke-opacity:1" id="path2835" d="M 60.02903,25.974802 C 44.555658,14.862553 2.1514814,19.121768 3.5323407,32.154182"/><path style="color:#000;display:inline;overflow:visible;visibility:visible;opacity:1;fill:url(#radialGradient4341);fill-opacity:1;fill-rule:nonzero;stroke:none;stroke-width:1.00042665;stroke-linecap:round;stroke-linejoin:round;stroke-miterlimit:4;stroke-dasharray:none;stroke-dashoffset:0;stroke-opacity:.52127662;marker:none;enable-background:accumulate" id="path3781-5-4" d="m 49.898434,21.303997 a 3.6355373,3.6350856 0 0 1 -7.271075,0 3.6355373,3.6350856 0 1 1 7.271075,0 z"/><path id="path4886" d="m 44.785139,51.828856 a 3.6355373,3.6350856 0 0 1 -7.271074,0 3.6355373,3.6350856 0 1 1 7.271074,0 z" style="color:#000;display:inline;overflow:visible;visibility:visible;opacity:1;fill:url(#radialGradient4345);fill-opacity:1;fill-rule:nonzero;stroke:none;stroke-width:1.00042665;stroke-linecap:round;stroke-linejoin:round;stroke-miterlimit:4;stroke-dasharray:none;stroke-dashoffset:0;stroke-opacity:.52127662;marker:none;enable-background:accumulate"/><path style="color:#000;display:inline;overflow:visible;visibility:visible;opacity:1;fill:url(#radialGradient4347);fill-opacity:1;fill-rule:nonzero;stroke:none;stroke-width:1.00042665;stroke-linecap:round;stroke-linejoin:round;stroke-miterlimit:4;stroke-dasharray:none;stroke-dashoffset:0;stroke-opacity:.52127662;marker:none;enable-background:accumulate" id="path4892" d="m 17.609498,22.657293 a 3.6355373,3.6350856 0 0 1 -7.271074,0 3.6355373,3.6350856 0 1 1 7.271074,0 z"/><path id="path4896" d="M 9.1396387,49.055706 C 29.657887,45.457082 45.47022,25.498236 46.343057,20.613946" style="opacity:1;fill:none;stroke:url(#linearGradient4898);stroke-width:1;stroke-linecap:round;stroke-linejoin:round;stroke-miterlimit:4;stroke-dasharray:none;stroke-dashoffset:0;stroke-opacity:1"/><path id="path4936" d="m 28.812317,43.296266 a 3.6355373,3.6350856 0 0 1 -7.271074,0 3.6355373,3.6350856 0 1 1 7.271074,0 z" style="color:#000;display:inline;overflow:visible;visibility:visible;opacity:1;fill:url(#radialGradient4343);fill-opacity:1;fill-rule:nonzero;stroke:none;stroke-width:1.00042665;stroke-linecap:round;stroke-linejoin:round;stroke-miterlimit:4;stroke-dasharray:none;stroke-dashoffset:0;stroke-opacity:.52127662;marker:none;enable-background:accumulate"/><path style="opacity:1;fill:none;stroke:url(#linearGradient4946);stroke-width:1;stroke-linecap:round;stroke-linejoin:round;stroke-miterlimit:4;stroke-dasharray:none;stroke-dashoffset:0;stroke-opacity:1" id="path4944" d="M 35.023601,3.3839633 C 12.385961,8.0421513 3.8592093,44.536251 7.8459626,48.918842"/><path id="path4948" d="M 19.729661,57.536763 C 25.770836,58.69344 54.645845,53.240504 60.498024,32.554601" style="opacity:1;fill:none;stroke:url(#linearGradient4950);stroke-width:1;stroke-linecap:round;stroke-linejoin:round;stroke-miterlimit:4;stroke-dasharray:none;stroke-dashoffset:0;stroke-opacity:1"/><g style="opacity:.4" id="g3257" transform="matrix(0.6666592,0,0,1.3333333,32,2.666668)"><rect style="display:inline;overflow:visible;visibility:visible;fill:url(#linearGradient3196-3);fill-opacity:1;fill-rule:nonzero;stroke:none;stroke-width:1;marker:none" id="rect2879" width="40.8" height="3" x="3.6" y="43"/><path style="display:inline;overflow:visible;visibility:visible;fill:url(#radialGradient3198-5);fill-opacity:1;fill-rule:nonzero;stroke:none;stroke-width:1;marker:none" id="path2881" d="m 3.6,43.00013 c 0,0 0,2.999835 0,2.999835 C 2.1108662,46.005612 0,45.327854 0,44.499854 0,43.671856 1.6617608,43.000131 3.6,43.00013 Z"/><path style="display:inline;overflow:visible;visibility:visible;fill:url(#radialGradient3200-3);fill-opacity:1;fill-rule:nonzero;stroke:none;stroke-width:1;marker:none" id="path2883" d="m 44.4,43.00013 c 0,0 0,2.999835 0,2.999835 1.489133,0.0056 3.6,-0.672111 3.6,-1.500111 0,-0.827998 -1.661761,-1.499723 -3.6,-1.499724 z"/></g><path style="fill:url(#linearGradient3042-5);fill-opacity:1;fill-rule:nonzero;stroke:none" id="path11155" d="M 62.293619,59.642856 49.706964,36.499999 c -0.361777,-0.642855 -1.016401,-0.999998 -1.745461,-0.999998 -0.729055,0 -1.38704,0.428567 -1.754313,1.071428 L 33.714265,59.714286 c -0.294065,0.571431 -0.297427,1.357145 0.06466,1.928571 0.362082,0.571431 0.944107,0.857144 1.673167,0.857144 l 25.07957,0 c 0.72906,0 1.386736,-0.357143 1.680806,-0.928573 0.366968,-0.571426 0.370025,-1.285711 0.08115,-1.928572 z"/><path style="opacity:.6;fill:none;stroke:url(#linearGradient3039-2);stroke-width:.99999994;stroke-miterlimit:4;stroke-dasharray:none;stroke-opacity:1" id="path11159" d="M 60.898533,58.883662 49.362546,37.705069 c -0.491305,-0.912352 -0.667525,-1.20507 -1.414174,-1.20507 -0.642174,0 -0.978182,0.426306 -1.44225,1.287491 L 35.098181,58.949028 c -0.662438,1.188097 -0.73341,1.497791 -0.414559,2.020717 0.318847,0.522931 0.728238,0.494449 2.240887,0.528561 l 22.421623,0 c 1.408249,0.01704 1.725466,-0.08806 1.984576,-0.610982 0.323323,-0.522931 0.185798,-0.93781 -0.432175,-2.003662 z"/><path style="color:#000;display:inline;overflow:visible;visibility:visible;opacity:.5;fill:none;stroke:#ad5f00;stroke-width:.99999982;stroke-linecap:butt;stroke-linejoin:miter;stroke-miterlimit:4;stroke-dasharray:none;stroke-dashoffset:0;stroke-opacity:1;marker:none;enable-background:accumulate;clip-rule:nonzero;isolation:auto;mix-blend-mode:normal;color-interpolation:sRGB;color-interpolation-filters:linearRGB;solid-color:#000;solid-opacity:1;fill-opacity:1;fill-rule:nonzero;filter-blend-mode:normal;filter-gaussianBlur-deviation:0;color-rendering:auto;image-rendering:auto;shape-rendering:auto;text-rendering:auto" id="path11155-59" d="M 62.293619,59.642855 49.706964,36.499998 C 49.345187,35.857142 48.690564,35.5 47.961504,35.5 c -0.729056,0 -1.387041,0.428567 -1.754314,1.071427 L 33.714265,59.714286 c -0.294065,0.571429 -0.297427,1.357144 0.06466,1.92857 C 34.141007,62.214287 34.723032,62.5 35.452092,62.5 l 25.07957,0 c 0.72906,0 1.386736,-0.357142 1.680806,-0.928572 0.366968,-0.571427 0.370025,-1.285713 0.08115,-1.928573 z"/><path style="opacity:.3;fill:#fff;fill-opacity:1;stroke:none;stroke-width:1;stroke-linejoin:round;stroke-miterlimit:4;stroke-dasharray:none;stroke-opacity:.49803922" id="path4238" d="m 48,43 c -1.104569,0 -2,0.895431 -2,2 0,2 0.666667,4.666667 1.333333,10 l 1.333334,0 C 49.333333,49.666667 50,47 50,45 50,43.895431 49.104569,43 48,43 Z m 0,14 c -1.104569,0 -2,0.895431 -2,2 0,1.104569 0.895431,2 2,2 1.104569,0 2,-0.895431 2,-2 0,-1.104569 -0.895431,-2 -2,-2 z"/><path id="path4159-3" d="m 48,42 c -1.104569,0 -2,0.895431 -2,2 0,2 0.666667,4.666667 1.333333,10 l 1.333334,0 C 49.333333,48.666667 50,46 50,44 50,42.895431 49.104569,42 48,42 Z m 0,14 c -1.104569,0 -2,0.895431 -2,2 0,1.104569 0.895431,2 2,2 1.104569,0 2,-0.895431 2,-2 0,-1.104569 -0.895431,-2 -2,-2 z" style="opacity:1;fill:#7a0000;fill-opacity:1;stroke:none;stroke-width:1;stroke-linejoin:round;stroke-miterlimit:4;stroke-dasharray:none;stroke-opacity:.49803922"/></svg>