<svg xmlns="http://www.w3.org/2000/svg" xmlns:svg="http://www.w3.org/2000/svg" xmlns:xlink="http://www.w3.org/1999/xlink" id="svg4161" width="64" height="64" version="1.1"><defs id="defs4163"><linearGradient id="linearGradient4069" x1="20" x2="20" y1="26" y2="13" gradientTransform="matrix(1.326882,0,0,1.326882,-0.399219,-0.2324859)" gradientUnits="userSpaceOnUse" xlink:href="#linearGradient3680-6-6-6-3-7-1"/><linearGradient id="linearGradient3680-6-6-6-3-7-1"><stop id="stop3682-4-6-1-3-7-7" offset="0" style="stop-color:#dcdcdc;stop-opacity:1"/><stop id="stop3684-8-5-8-0-2-6" offset="1" style="stop-color:#fff;stop-opacity:1"/></linearGradient><linearGradient id="linearGradient3180" x1="24" x2="24" y1="5" y2="43" gradientTransform="matrix(1.4324324,0,0,1.4362832,-2.378381,-2.4707781)" gradientUnits="userSpaceOnUse" xlink:href="#linearGradient3924-2-2-5-8"/><linearGradient id="linearGradient3924-2-2-5-8"><stop id="stop3926-9-4-9-6" offset="0" style="stop-color:#fff;stop-opacity:1"/><stop id="stop3928-9-8-6-5" offset=".063" style="stop-color:#fff;stop-opacity:.23529412"/><stop id="stop3930-3-5-1-7" offset=".951" style="stop-color:#fff;stop-opacity:.15686275"/><stop id="stop3932-8-0-4-8" offset="1" style="stop-color:#fff;stop-opacity:.39215687"/></linearGradient><radialGradient id="radialGradient3988-3" cx="7.118" cy="9.957" r="12.672" fx="7.118" fy="9.957" gradientTransform="matrix(0,12.890089,-15.824912,0,190.74237,-113.0978)" gradientUnits="userSpaceOnUse" xlink:href="#linearGradient2867-449-88-871-390-598-476-591-434-148-57-177-8-3-3-6-4-8-8-8-5-7"/><linearGradient id="linearGradient2867-449-88-871-390-598-476-591-434-148-57-177-8-3-3-6-4-8-8-8-5-7"><stop id="stop3750-1-0-7-6-6-1-3-9-3-9" offset="0" style="stop-color:#505050;stop-opacity:1"/><stop id="stop3752-3-7-4-0-32-8-923-0-7-0" offset=".262" style="stop-color:#2b2b2b;stop-opacity:1"/><stop id="stop3754-1-8-5-2-7-6-7-1-9-1" offset=".705" style="stop-color:#0a0a0a;stop-opacity:1"/><stop id="stop3756-1-6-2-6-6-1-96-6-0-1" offset="1" style="stop-color:#000;stop-opacity:1"/></linearGradient><radialGradient id="radialGradient3337-2-2" cx="4.993" cy="43.5" r="2.5" fx="4.993" fy="43.5" gradientTransform="matrix(2.003784,0,0,1.4,27.98813,-17.4)" gradientUnits="userSpaceOnUse" xlink:href="#linearGradient3688-166-749-4-0-3-8"/><linearGradient id="linearGradient3688-166-749-4-0-3-8"><stop id="stop2883-4-0-1-8" offset="0" style="stop-color:#181818;stop-opacity:1"/><stop id="stop2885-9-2-9-6" offset="1" style="stop-color:#181818;stop-opacity:0"/></linearGradient><radialGradient id="radialGradient3339-1-4" cx="4.993" cy="43.5" r="2.5" fx="4.993" fy="43.5" gradientTransform="matrix(2.003784,0,0,1.4,-20.01187,-104.4)" gradientUnits="userSpaceOnUse" xlink:href="#linearGradient3688-464-309-9-2-4-2"/><linearGradient id="linearGradient3688-464-309-9-2-4-2"><stop id="stop2889-7-9-6-9" offset="0" style="stop-color:#181818;stop-opacity:1"/><stop id="stop2891-6-6-1-7" offset="1" style="stop-color:#181818;stop-opacity:0"/></linearGradient><linearGradient id="linearGradient3702-501-757-8-4-1-1"><stop id="stop2895-8-9-9-1" offset="0" style="stop-color:#181818;stop-opacity:0"/><stop id="stop2897-7-8-7-7" offset=".5" style="stop-color:#181818;stop-opacity:1"/><stop id="stop2899-4-5-1-5" offset="1" style="stop-color:#181818;stop-opacity:0"/></linearGradient><linearGradient id="linearGradient4159" x1="25.058" x2="25.058" y1="47.028" y2="39.999" gradientUnits="userSpaceOnUse" xlink:href="#linearGradient3702-501-757-8-4-1-1"/></defs><metadata id="metadata4166"/><g id="layer1"><g id="g3712-8-2-4-4" transform="matrix(1.5789502,0,0,0.7142857,-5.894751,27.928572)" style="opacity:.6"><rect id="rect2801-5-5-7-9" width="5" height="7" x="38" y="40" style="fill:url(#radialGradient3337-2-2);fill-opacity:1;stroke:none"/><rect id="rect3696-3-0-3-7" width="5" height="7" x="-10" y="-47" transform="scale(-1,-1)" style="fill:url(#radialGradient3339-1-4);fill-opacity:1;stroke:none"/><rect id="rect3700-5-6-8-4" width="28" height="7" x="10" y="40" style="fill:url(#linearGradient4159);fill-opacity:1;stroke:none"/></g><rect id="rect5505-21-3-8-5-2" width="55" height="55" x="4.5" y="4.5" rx="3" ry="3" style="opacity:.9;color:#000;fill:url(#radialGradient3988-3);fill-opacity:1;fill-rule:nonzero;stroke:none;stroke-width:.99999994;marker:none;visibility:visible;display:inline;overflow:visible;enable-background:accumulate"/><rect id="rect6741-5-0-2-3" width="53" height="53.142" x="5.5" y="5.429" rx="2" ry="2" style="opacity:.3;fill:none;stroke:url(#linearGradient3180);stroke-width:1;stroke-linecap:round;stroke-linejoin:round;stroke-miterlimit:4;stroke-opacity:1;stroke-dasharray:none;stroke-dashoffset:0"/><rect id="rect5505-21-3-8-9-1-1" width="55" height="55" x="4.5" y="4.5" rx="3" ry="3" style="opacity:.7;color:#000;fill:none;stroke:#000;stroke-width:1;stroke-linecap:round;stroke-linejoin:round;stroke-miterlimit:4;stroke-opacity:1;stroke-dasharray:none;stroke-dashoffset:0;marker:none;visibility:visible;display:inline;overflow:visible;enable-background:accumulate"/><path id="path4108" d="M 17,16.0625 A 0.92595156,0.92595156 0 0 0 16.0625,17 l 0,0.3125 c -0.920804,0.174116 -1.828635,0.471612 -2.625,1.125 -0.0074,0.0061 -0.02386,-0.0061 -0.03125,0 l 0,0.03125 c -1.631359,1.29497 -1.750855,3.662789 -0.5625,5.21875 a 0.92595156,0.92595156 0 0 0 0.03125,0.03125 c 0.892594,1.083002 2.089768,1.57612 3.1875,2 l 0,1.03125 C 15.148159,26.5817 14.239385,26.421262 13.375,26.03125 A 0.92595156,0.92595156 0 0 0 12.0625,26.875 l 0,2.375 a 0.92595156,0.92595156 0 0 0 0.5625,0.84375 c 1.10256,0.467849 2.272026,0.614611 3.4375,0.71875 l 0,1.1875 A 0.92595156,0.92595156 0 0 0 17,32.9375 l 1,0 A 0.92595156,0.92595156 0 0 0 18.9375,32 l 0,-1.28125 c 0.705436,-0.09464 1.425619,-0.164929 2.125,-0.53125 l 0,0.03125 c 0.01345,-0.0066 0.01788,-0.02451 0.03125,-0.03125 1.319138,-0.665438 2.267517,-2.010517 2.21875,-3.53125 7.9e-5,-0.01028 1.5e-5,-0.02098 0,-0.03125 -0.0011,-0.742864 -0.262915,-1.439012 -0.6875,-2.03125 a 0.92595156,0.92595156 0 0 0 0,-0.03125 c -0.984633,-1.313902 -2.484858,-1.807082 -3.6875,-2.25 l 0,-0.90625 c 0.69467,0.120781 1.413199,0.217229 1.96875,0.4375 a 0.92595156,0.92595156 0 0 0 1.1875,-0.53125 l 0.875,-2.125 A 0.92595156,0.92595156 0 0 0 22.5,18 c -1.117568,-0.47877 -2.375157,-0.704659 -3.5625,-0.8125 l 0,-0.1875 A 0.92595156,0.92595156 0 0 0 18,16.0625 l -1,0 z m 9,16 A 0.92595156,0.92595156 0 0 0 25.0625,33 l 0,3 A 0.92595156,0.92595156 0 0 0 26,36.9375 l 11,0 A 0.92595156,0.92595156 0 0 0 37.9375,36 l 0,-3 A 0.92595156,0.92595156 0 0 0 37,32.0625 l -11,0 z" style="font-size:14.31169891px;font-style:normal;font-variant:normal;font-weight:700;font-stretch:normal;line-height:125%;letter-spacing:0;word-spacing:0;opacity:.15;color:#000;fill:#000;fill-opacity:1;fill-rule:nonzero;stroke:none;marker:none;visibility:visible;display:inline;overflow:visible;enable-background:accumulate;font-family:Open Sans;-inkscape-font-specification:Open Sans Bold"/><path id="path4041" d="m 17,17 0,1.0625 c -1.088974,0.104041 -2.154176,0.391472 -3,1.09375 -1.21398,0.93825 -1.298197,2.800888 -0.40625,3.96875 0.862432,1.046406 2.154572,1.527266 3.40625,2 l 0,2.8125 C 15.604363,27.823494 14.268165,27.447198 13,26.875 l 0,2.375 c 1.269335,0.538616 2.620137,0.785512 4,0.8125 L 17,32 l 1,0 0,-2 c 0.844638,-0.07591 1.908372,-0.226153 2.65625,-0.625 1.038951,-0.510076 1.764953,-1.58964 1.71875,-2.71875 0.0042,-0.545911 -0.175744,-1.078957 -0.5,-1.53125 C 21.007616,23.967556 19.308649,23.465104 18,22.9375 L 18,20.25 c 1.037582,0.08439 2.287384,0.337081 3.25,0.71875 l 0.875,-2.125 C 20.8958,18.317156 19.340107,18.086316 18,18.03125 L 18,17 17,17 z m 0,3.28125 0,2.15625 C 16.471711,22.205155 15.72597,21.91363 15.75,21.25 15.72528,20.623568 16.465193,20.34149 17,20.28125 z m 1,5.34375 c 0.523941,0.255688 1.488191,0.458683 1.5,1.125 0.03011,0.679927 -0.906863,1.014708 -1.5,1.09375 L 18,25.625 z m 8,7.375 0,3 11,0 0,-3 -11,0 z" style="font-size:14.31169891px;font-style:normal;font-variant:normal;font-weight:700;font-stretch:normal;line-height:125%;letter-spacing:0;word-spacing:0;opacity:.3;color:#000;fill:#000;fill-opacity:1;fill-rule:nonzero;stroke:none;marker:none;visibility:visible;display:inline;overflow:visible;enable-background:accumulate;font-family:Open Sans;-inkscape-font-specification:Open Sans Bold"/><path id="path4041-4" d="m 17,16 0,1.0625 c -1.088974,0.104041 -2.154176,0.391472 -3,1.09375 -1.21398,0.93825 -1.298197,2.800888 -0.40625,3.96875 0.862432,1.046406 2.154572,1.527266 3.40625,2 l 0,2.8125 C 15.604363,26.823494 14.268165,26.447198 13,25.875 l 0,2.375 c 1.269335,0.538616 2.620137,0.785512 4,0.8125 L 17,31 l 1,0 0,-2 c 0.844638,-0.07591 1.908372,-0.226153 2.65625,-0.625 1.038951,-0.510076 1.764953,-1.58964 1.71875,-2.71875 0.0042,-0.545911 -0.175744,-1.078957 -0.5,-1.53125 C 21.007616,22.967556 19.308649,22.465104 18,21.9375 L 18,19.25 c 1.037582,0.08439 2.287384,0.337081 3.25,0.71875 l 0.875,-2.125 C 20.8958,17.317156 19.340107,17.086316 18,17.03125 L 18,16 17,16 z m 0,3.28125 0,2.15625 C 16.471711,21.205155 15.72597,20.91363 15.75,20.25 15.72528,19.623568 16.465193,19.34149 17,19.28125 z m 1,5.34375 c 0.523941,0.255688 1.488191,0.458683 1.5,1.125 0.03011,0.679927 -0.906863,1.014708 -1.5,1.09375 L 18,24.625 z m 8,7.375 0,3 11,0 0,-3 -11,0 z" style="font-size:14.31169891px;font-style:normal;font-variant:normal;font-weight:700;font-stretch:normal;line-height:125%;letter-spacing:0;word-spacing:0;color:#000;fill:url(#linearGradient4069);fill-opacity:1;fill-rule:nonzero;stroke:none;marker:none;visibility:visible;display:inline;overflow:visible;enable-background:accumulate;font-family:Open Sans;-inkscape-font-specification:Open Sans Bold"/></g></svg>