<svg xmlns="http://www.w3.org/2000/svg" xmlns:svg="http://www.w3.org/2000/svg" xmlns:xlink="http://www.w3.org/1999/xlink" id="svg4569" width="64" height="64" version="1.0"><metadata id="metadata54"/><defs id="defs4571"><linearGradient id="linearGradient4084"><stop style="stop-color:#fff;stop-opacity:1" id="stop4086" offset="0"/><stop style="stop-color:#fff;stop-opacity:.23529412" id="stop4088" offset=".016"/><stop style="stop-color:#fff;stop-opacity:.15686275" id="stop4090" offset=".993"/><stop style="stop-color:#fff;stop-opacity:.39215687" id="stop4092" offset="1"/></linearGradient><linearGradient id="linearGradient3912"><stop id="stop3914" offset="0" style="stop-color:#787878;stop-opacity:1"/><stop id="stop3916" offset=".35" style="stop-color:#bebebe;stop-opacity:1"/><stop id="stop3918" offset=".494" style="stop-color:#c8c8c8;stop-opacity:1"/><stop id="stop3920" offset=".589" style="stop-color:#e6e6e6;stop-opacity:1"/><stop id="stop3922" offset="1" style="stop-color:#8c8c8c;stop-opacity:1"/></linearGradient><linearGradient id="linearGradient10691-1"><stop id="stop10693-3" offset="0" style="stop-color:#000;stop-opacity:1"/><stop id="stop10695-1" offset="1" style="stop-color:#000;stop-opacity:0"/></linearGradient><linearGradient id="linearGradient2451" x1="361.106" x2="361.106" y1="87.05" y2="94.396" gradientTransform="matrix(1.3111548,0,0,1.3337028,-437.61398,-66.532889)" gradientUnits="userSpaceOnUse" xlink:href="#linearGradient3912"/><radialGradient id="radialGradient2456" cx="6.703" cy="73.616" r="7.228" fx="6.703" fy="73.616" gradientTransform="matrix(2.5824009,0,0,0.5533716,14.690909,17.92982)" gradientUnits="userSpaceOnUse" xlink:href="#linearGradient10691-1"/><linearGradient id="outerBackgroundGradient-5-0"><stop id="stop3864-8-6-4" offset="0" style="stop-color:#261e2b;stop-opacity:1"/><stop id="stop3866-9-1-86" offset="1" style="stop-color:#352f39;stop-opacity:1"/></linearGradient><linearGradient id="linearGradient3880"><stop id="stop3883" offset="0" style="stop-color:#fff;stop-opacity:1"/><stop id="stop3885" offset="1" style="stop-color:#fff;stop-opacity:0"/></linearGradient><linearGradient id="linearGradient3141" x1="10" x2="20" y1="-3" y2="12" gradientTransform="matrix(1.5500003,0,0,1.5555554,-0.55000582,17.444445)" gradientUnits="userSpaceOnUse" xlink:href="#linearGradient3880"/><linearGradient id="linearGradient3144" x1="24" x2="24" y1="5.753" y2="42.121" gradientTransform="matrix(1.6486489,0,0,1.135135,-7.5675799,-0.74323082)" gradientUnits="userSpaceOnUse" xlink:href="#linearGradient4084"/><linearGradient id="linearGradient3148" x1="15" x2="15" y1="24.619" y2="2" gradientTransform="matrix(1.4000003,0,0,1.5652174,2.5999953,21.02178)" gradientUnits="userSpaceOnUse" xlink:href="#outerBackgroundGradient-5-0"/><linearGradient id="linearGradient3152-7" x1="25.005" x2="25.005" y1="51.076" y2="40.265" gradientTransform="matrix(1.2162163,0,0,0.83783786,2.6663586,14.977385)" gradientUnits="userSpaceOnUse" xlink:href="#linearGradient4054-5"/><linearGradient id="linearGradient4054-5"><stop style="stop-color:#fff;stop-opacity:1" id="stop4056-0" offset="0"/><stop style="stop-color:#fff;stop-opacity:.23529412" id="stop4058-4" offset=".063"/><stop style="stop-color:#fff;stop-opacity:.15686275" id="stop4060-4" offset=".969"/><stop style="stop-color:#fff;stop-opacity:.39215687" id="stop4062-0" offset="1"/></linearGradient><linearGradient id="outerBackgroundGradient-5-0-4"><stop id="stop3864-8-6-4-3" offset="0" style="stop-color:#261e2b;stop-opacity:1"/><stop id="stop3866-9-1-86-8" offset="1" style="stop-color:#352f39;stop-opacity:1"/></linearGradient><linearGradient id="linearGradient4109" x1="15" x2="15" y1="24.619" y2="2" gradientTransform="matrix(1.3500003,0,0,1.4782609,3.6499947,21.326128)" gradientUnits="userSpaceOnUse" xlink:href="#outerBackgroundGradient-5-0-4"/></defs><path id="path2589" d="m 50.666665,58.666665 c 0,2.20914 -8.357351,4 -18.666667,4 -10.309315,0 -18.666665,-1.79086 -18.666665,-4 0,-2.209138 8.35735,-4 18.666665,-4 10.309316,0 18.666667,1.790862 18.666667,4 l 0,0 z" style="opacity:.3;fill:url(#radialGradient2456);fill-opacity:1;fill-rule:nonzero;stroke:none;stroke-width:.80000001;marker:none;visibility:visible;display:inline;overflow:visible"/><path id="rect1789" d="m 23.919786,48.499137 c 0,0 0.186555,5.677784 -0.743925,7.001192 -0.93048,1.323409 -2.781966,1.338846 -2.781966,1.338846 -1.188092,0.139034 -1.19792,2.661687 0,2.661687 l 23.212115,0 c 1.197921,0 1.188341,-2.524427 0,-2.661687 0,0 -1.851406,-0.01544 -2.781873,-1.338846 -0.930466,-1.323405 -0.744017,-7.001192 -0.744017,-7.001192 l -16.160334,0 0,0 z" style="fill:url(#linearGradient2451);fill-opacity:1;fill-rule:nonzero;stroke:none;stroke-width:.99827456000000003;stroke-linecap:round;stroke-linejoin:round;stroke-miterlimit:4;stroke-opacity:1;stroke-dasharray:none;stroke-dashoffset:.50000001000000005;marker:none;visibility:visible;display:inline;overflow:visible;enable-background:new"/><rect id="rect2722" width="63" height="44" x=".5" y="4.5" rx="1.4" ry="1.333" style="fill:#1a1a1a;fill-opacity:1;stroke:#000;stroke-width:1.00023937;stroke-linecap:round;stroke-linejoin:round;stroke-miterlimit:4;stroke-opacity:1;stroke-dasharray:none;stroke-dashoffset:.50000001"/><path style="fill:url(#linearGradient3148);fill-opacity:1;stroke:none;display:inline" id="rect2722-0" d="m 3.9999997,8.5000405 55.9999993,0 0,36.0000005 -55.9999993,0 z"/><path style="opacity:.2;fill:#000;fill-opacity:1;stroke:none;display:inline" id="path3942" d="M 4 8.5 L 4 44.5 L 60 44.5 L 60 8.5 L 4 8.5 z M 5 9.5 L 59 9.5 L 59 43.5 L 5 43.5 L 5 9.5 z"/><rect id="rect6741" width="61" height="42" x="1.5" y="5.5" rx="0" ry="0" style="opacity:.20000000000000001;fill:none;stroke:url(#linearGradient3144);stroke-width:.99999987999999995;stroke-linecap:round;stroke-linejoin:round;stroke-miterlimit:4;stroke-opacity:1;stroke-dasharray:none;stroke-dashoffset:0"/><path style="opacity:.2;fill:url(#linearGradient3141);fill-opacity:1;stroke:none;display:inline" id="rect3872" d="M 1,5 1,33 63,12.583334 63,5 z"/><path id="rect1789-9" d="m 23.919786,48.499137 c 0,0 0.186555,5.677784 -0.743925,7.001192 -0.93048,1.323409 -2.781966,1.338846 -2.781966,1.338846 -1.188092,0.139034 -1.19792,2.661687 0,2.661687 l 23.212115,0 c 1.197921,0 1.188341,-2.524427 0,-2.661687 0,0 -1.851406,-0.01544 -2.781873,-1.338846 -0.930466,-1.323405 -0.744017,-7.001192 -0.744017,-7.001192 l -16.160334,0 0,0 z" style="fill:none;fill-opacity:1;fill-rule:nonzero;stroke:#000;stroke-width:.99827462;stroke-linecap:round;stroke-linejoin:round;stroke-miterlimit:4;stroke-opacity:1;stroke-dasharray:none;stroke-dashoffset:.50000001000000005;marker:none;visibility:visible;display:inline;overflow:visible;enable-background:new;opacity:.40000000000000002;color:#000"/><path style="opacity:.59999999999999998;color:#000;fill:none;stroke:url(#linearGradient3152-7);stroke-width:.99999994000000003;stroke-linecap:round;stroke-linejoin:round;stroke-miterlimit:4;stroke-opacity:1;stroke-dasharray:none;stroke-dashoffset:0;marker:none;visibility:visible;display:inline;overflow:visible;enable-background:accumulate" id="path4043" d="m 24.90625,49.5 c 0.01129,0.552305 0.04325,0.949789 0,2.03125 C 24.873643,52.346505 24.8079,53.220881 24.6875,54 24.5671,54.779119 24.435885,55.442547 24,56.0625 c -1.193603,1.697645 -3.115921,1.748832 -3.40625,1.75 -0.03548,0.06074 -0.09343,0.236278 -0.09375,0.40625 -2.61e-4,0.137285 0.04053,0.22439 0.0625,0.28125 l 22.875,0 c 0.02204,-0.05704 0.06275,-0.143846 0.0625,-0.28125 -3.15e-4,-0.170119 -0.05842,-0.345791 -0.09375,-0.40625 C 43.11592,57.811332 41.193593,57.760151 40,56.0625 39.564121,55.442548 39.432899,54.779118 39.3125,54 c -0.120399,-0.779118 -0.186142,-1.653495 -0.21875,-2.46875 -0.04326,-1.081461 -0.01129,-1.478945 0,-2.03125 l -14.1875,0 z m 18.5,8.3125 c -0.03533,-0.06046 0.01418,0.02567 0.0625,0.03125 l 0,-0.03125 c -0.005,3.2e-5 -0.0552,2.9e-5 -0.0625,0 z m -22.8125,0 c -0.0073,2.9e-5 -0.05749,3.2e-5 -0.0625,0 -3.58e-4,-2e-6 3.46e-4,0.03125 0,0.03125 0.04802,-0.0056 0.09798,-0.09199 0.0625,-0.03125 z"/></svg>