<svg xmlns="http://www.w3.org/2000/svg" xmlns:svg="http://www.w3.org/2000/svg" xmlns:xlink="http://www.w3.org/1999/xlink" id="svg6333" width="64" height="64" version="1.1"><defs id="defs6335"><linearGradient id="linearGradient872"><stop id="stop868" offset="0" style="stop-color:#64baff;stop-opacity:1"/><stop id="stop870" offset="1" style="stop-color:#3689e6;stop-opacity:1"/></linearGradient><linearGradient id="linearGradient3381-5-4" x1="24" x2="24" y1="5" y2="43" gradientTransform="matrix(1.4324324,0,0,1.4362832,-2.378381,-2.4707782)" gradientUnits="userSpaceOnUse" xlink:href="#linearGradient3924-2-2-5-8"/><linearGradient id="linearGradient3924-2-2-5-8"><stop style="stop-color:#fff;stop-opacity:1" id="stop3926-9-4-9-6" offset="0"/><stop style="stop-color:#fff;stop-opacity:.23529412" id="stop3928-9-8-6-5" offset=".063"/><stop style="stop-color:#fff;stop-opacity:.15686275" id="stop3930-3-5-1-7" offset=".951"/><stop style="stop-color:#fff;stop-opacity:.39215687" id="stop3932-8-0-4-8" offset="1"/></linearGradient><radialGradient id="radialGradient3337-2-2" cx="4.993" cy="43.5" r="2.5" fx="4.993" fy="43.5" gradientTransform="matrix(2.0304974,0,0,1.4,27.78793,-17.4)" gradientUnits="userSpaceOnUse" xlink:href="#linearGradient3688-166-749-4-0-3-8"/><linearGradient id="linearGradient3688-166-749-4-0-3-8"><stop style="stop-color:#181818;stop-opacity:1" id="stop2883-4-0-1-8" offset="0"/><stop style="stop-color:#181818;stop-opacity:0" id="stop2885-9-2-9-6" offset="1"/></linearGradient><radialGradient id="radialGradient3339-1-4" cx="4.993" cy="43.5" r="2.5" fx="4.993" fy="43.5" gradientTransform="matrix(2.0304974,0,0,1.4,-20.212001,-104.4)" gradientUnits="userSpaceOnUse" xlink:href="#linearGradient3688-464-309-9-2-4-2"/><linearGradient id="linearGradient3688-464-309-9-2-4-2"><stop style="stop-color:#181818;stop-opacity:1" id="stop2889-7-9-6-9" offset="0"/><stop style="stop-color:#181818;stop-opacity:0" id="stop2891-6-6-1-7" offset="1"/></linearGradient><linearGradient id="linearGradient3702-501-757-8-4-1-1"><stop style="stop-color:#181818;stop-opacity:0" id="stop2895-8-9-9-1" offset="0"/><stop style="stop-color:#181818;stop-opacity:1" id="stop2897-7-8-7-7" offset=".5"/><stop style="stop-color:#181818;stop-opacity:0" id="stop2899-4-5-1-5" offset="1"/></linearGradient><linearGradient id="linearGradient6394" x1="25.058" x2="25.058" y1="47.028" y2="39.999" gradientTransform="matrix(0.99523631,0,0,1,0.11429448,0)" gradientUnits="userSpaceOnUse" xlink:href="#linearGradient3702-501-757-8-4-1-1"/><linearGradient id="linearGradient874" x1="31.585" x2="31.585" y1="4.63" y2="59.185" gradientTransform="translate(1.4305115e-6,-1.9073486e-6)" gradientUnits="userSpaceOnUse" xlink:href="#linearGradient872"/><linearGradient id="linearGradient4182" x1="32" x2="32" y1="15" y2="48" gradientUnits="userSpaceOnUse" xlink:href="#linearGradient4176"/><linearGradient id="linearGradient4176"><stop id="stop4178" offset="0" style="stop-color:#fff;stop-opacity:1"/><stop id="stop4180" offset="1" style="stop-color:#fafafa;stop-opacity:1"/></linearGradient></defs><metadata id="metadata6338"/><g id="g3712-8-2-4-4" transform="matrix(1.5789502,0,0,0.7142857,-5.894751,27.928572)" style="opacity:.6"><rect id="rect2801-5-5-7-9" width="5.067" height="7" x="37.933" y="40" style="fill:url(#radialGradient3337-2-2);fill-opacity:1;stroke:none;stroke-width:1"/><rect id="rect3696-3-0-3-7" width="5.067" height="7" x="-10.067" y="-47" transform="scale(-1)" style="fill:url(#radialGradient3339-1-4);fill-opacity:1;stroke:none;stroke-width:1"/><rect id="rect3700-5-6-8-4" width="27.867" height="7" x="10.067" y="40" style="fill:url(#linearGradient6394);fill-opacity:1;stroke:none;stroke-width:1"/></g><rect id="rect5505-21-3-8-5-2" width="55" height="55" x="4.5" y="4.5" rx="3" ry="3" style="color:#000;display:inline;overflow:visible;visibility:visible;opacity:1;fill:url(#linearGradient874);fill-opacity:1;fill-rule:nonzero;stroke:none;stroke-width:.99999994;marker:none;enable-background:accumulate"/><rect id="rect6741-5-0-2-3" width="53" height="53.142" x="5.5" y="5.429" rx="2" ry="2" style="opacity:.5;fill:none;stroke:url(#linearGradient3381-5-4);stroke-width:1;stroke-linecap:round;stroke-linejoin:round;stroke-miterlimit:4;stroke-dasharray:none;stroke-dashoffset:0;stroke-opacity:1"/><rect id="rect5505-21-3-8-9-1-1" width="55" height="55" x="4.5" y="4.5" rx="3" ry="3" style="color:#000;display:inline;overflow:visible;visibility:visible;opacity:.5;fill:none;stroke:#002e99;stroke-width:1;stroke-linecap:round;stroke-linejoin:round;stroke-miterlimit:4;stroke-dasharray:none;stroke-dashoffset:0;stroke-opacity:1;marker:none;enable-background:accumulate"/><g id="g872"><path style="color:#000;clip-rule:nonzero;display:inline;overflow:visible;visibility:visible;opacity:.15;isolation:auto;mix-blend-mode:normal;color-interpolation:sRGB;color-interpolation-filters:linearRGB;solid-color:#000;solid-opacity:1;fill:#002e99;fill-opacity:1;fill-rule:nonzero;stroke:#002e99;stroke-width:2;stroke-linecap:round;stroke-linejoin:round;stroke-miterlimit:4;stroke-dasharray:none;stroke-dashoffset:0;stroke-opacity:1;marker:none;color-rendering:auto;image-rendering:auto;shape-rendering:auto;text-rendering:auto;enable-background:accumulate" id="path4283" d="m 17,15.999765 c -1.662,0 -3,1.338 -3,3 v 22 c 0,1.662 1.338,3 3,3 h 9.46875 l 2.255859,2.212891 2.623047,2.574218 c 0.290079,0.284168 1.014609,0.284168 1.304688,0 l 2.623047,-2.574218 2.255859,-2.212891 H 47 c 1.662,0 3,-1.338 3,-3 v -22 c 0,-1.662 -1.338,-3 -3,-3 z m 15,4 a 10,10 0 0 1 10,10 10,10 0 0 1 -10,10 10,10 0 0 1 -10,-10 10,10 0 0 1 10,-10 z m 0,1.734375 A 8.2644628,8.2644628 0 0 0 23.734375,29.999765 8.2644628,8.2644628 0 0 0 32,38.26539 8.2644628,8.2644628 0 0 0 40.265625,29.999765 8.2644628,8.2644628 0 0 0 32,21.73414 Z m 0,1.189453 a 3.7190083,3.7190083 0 0 1 3.720703,3.71875 A 3.7190083,3.7190083 0 0 1 32,30.361093 3.7190083,3.7190083 0 0 1 28.279297,26.642343 3.7190083,3.7190083 0 0 1 32,22.923593 Z m 0,8.523438 a 7.4380165,7.4380165 0 0 1 5.955078,2.99414 A 7.4380165,7.4380165 0 0 1 32,37.437265 7.4380165,7.4380165 0 0 1 26.044922,34.443124 7.4380165,7.4380165 0 0 1 32,31.447031 Z"/><path id="path4281" d="m 17,15.999765 c -1.662,0 -3,1.338 -3,3 v 22 c 0,1.662 1.338,3 3,3 h 9.46875 l 2.255859,2.212891 2.623047,2.574218 c 0.290079,0.284168 1.014609,0.284168 1.304688,0 l 2.623047,-2.574218 2.255859,-2.212891 H 47 c 1.662,0 3,-1.338 3,-3 v -22 c 0,-1.662 -1.338,-3 -3,-3 z m 15,4 a 10,10 0 0 1 10,10 10,10 0 0 1 -10,10 10,10 0 0 1 -10,-10 10,10 0 0 1 10,-10 z m 0,1.734375 A 8.2644628,8.2644628 0 0 0 23.734375,29.999765 8.2644628,8.2644628 0 0 0 32,38.26539 8.2644628,8.2644628 0 0 0 40.265625,29.999765 8.2644628,8.2644628 0 0 0 32,21.73414 Z m 0,1.189453 a 3.7190083,3.7190083 0 0 1 3.720703,3.71875 A 3.7190083,3.7190083 0 0 1 32,30.361093 3.7190083,3.7190083 0 0 1 28.279297,26.642343 3.7190083,3.7190083 0 0 1 32,22.923593 Z m 0,8.523438 a 7.4380165,7.4380165 0 0 1 5.955078,2.99414 A 7.4380165,7.4380165 0 0 1 32,37.437265 7.4380165,7.4380165 0 0 1 26.044922,34.443124 7.4380165,7.4380165 0 0 1 32,31.447031 Z" style="color:#000;clip-rule:nonzero;display:inline;overflow:visible;visibility:visible;opacity:.3;isolation:auto;mix-blend-mode:normal;color-interpolation:sRGB;color-interpolation-filters:linearRGB;solid-color:#000;solid-opacity:1;fill:#002e99;fill-opacity:1;fill-rule:nonzero;stroke:none;stroke-width:1;stroke-linecap:round;stroke-linejoin:round;stroke-miterlimit:4;stroke-dasharray:none;stroke-dashoffset:0;stroke-opacity:1;marker:none;color-rendering:auto;image-rendering:auto;shape-rendering:auto;text-rendering:auto;enable-background:accumulate"/><path style="color:#000;clip-rule:nonzero;display:inline;overflow:visible;visibility:visible;opacity:1;isolation:auto;mix-blend-mode:normal;color-interpolation:sRGB;color-interpolation-filters:linearRGB;solid-color:#000;solid-opacity:1;fill:url(#linearGradient4182);fill-opacity:1;fill-rule:nonzero;stroke:none;stroke-width:1;stroke-linecap:round;stroke-linejoin:round;stroke-miterlimit:4;stroke-dasharray:none;stroke-dashoffset:0;stroke-opacity:1;marker:none;color-rendering:auto;image-rendering:auto;shape-rendering:auto;text-rendering:auto;enable-background:accumulate" id="rect4256" d="m 17,14.999765 c -1.662,0 -3,1.338 -3,3 v 22 c 0,1.662 1.338,3 3,3 h 9.46875 l 2.255859,2.212891 2.623047,2.574218 c 0.290079,0.284168 1.014609,0.284168 1.304688,0 l 2.623047,-2.574218 2.255859,-2.212891 H 47 c 1.662,0 3,-1.338 3,-3 v -22 c 0,-1.662 -1.338,-3 -3,-3 z m 15,4 a 10,10 0 0 1 10,10 10,10 0 0 1 -10,10 10,10 0 0 1 -10,-10 10,10 0 0 1 10,-10 z m 0,1.734375 A 8.2644628,8.2644628 0 0 0 23.734375,28.999765 8.2644628,8.2644628 0 0 0 32,37.26539 8.2644628,8.2644628 0 0 0 40.265625,28.999765 8.2644628,8.2644628 0 0 0 32,20.73414 Z m 0,1.189453 a 3.7190083,3.7190083 0 0 1 3.720703,3.71875 A 3.7190083,3.7190083 0 0 1 32,29.361093 3.7190083,3.7190083 0 0 1 28.279297,25.642343 3.7190083,3.7190083 0 0 1 32,21.923593 Z m 0,8.523438 a 7.4380165,7.4380165 0 0 1 5.955078,2.99414 A 7.4380165,7.4380165 0 0 1 32,36.437265 7.4380165,7.4380165 0 0 1 26.044922,33.443124 7.4380165,7.4380165 0 0 1 32,30.447031 Z"/></g></svg>