<svg xmlns="http://www.w3.org/2000/svg" xmlns:svg="http://www.w3.org/2000/svg" id="svg2" width="360" height="360" version="1.1"><metadata id="metadata10"/><defs id="defs8"><filter style="color-interpolation-filters:sRGB" id="filter4288" width="1.024" height="1.024" x="-.012" y="-.012"><feGaussianBlur id="feGaussianBlur4290" stdDeviation="1.339"/></filter><filter style="color-interpolation-filters:sRGB" id="filter4298" width="1.12" height="1.12" x="-.06" y="-.06"><feGaussianBlur id="feGaussianBlur4300" stdDeviation="6.696"/></filter><clipPath id="highcharts-13"><rect id="rect9" width="580" height="338" x="0" y="0"/></clipPath></defs><path style="fill:#000;opacity:.1;filter:url(#filter4298)" id="path3461-1" d="M 180,46.085938 C 106.04162,46.085938 46.085938,106.04162 46.085938,180 46.085938,253.95838 106.04162,313.91406 180,313.91406 253.95838,313.91406 313.91406,253.95838 313.91406,180 313.91406,106.04162 253.95838,46.085938 180,46.085938 Z m 0.0469,11.125 -0.0469,0.0293 c 56.22444,0 103.63057,37.781295 118.16016,89.337886 -12.48263,25.82615 -30.32303,49.06976 -51.98828,67.875 -10.4261,9.02001 -21.80824,17.06591 -34.37696,22.72852 -12.56871,5.66262 -26.39989,8.87615 -40.17383,8.0918 -10.33045,-0.60261 -20.56612,-3.48235 -29.5957,-8.51367 24.00874,-13.00872 45.65453,-30.34111 63.37891,-51.09766 11.66958,-13.63046 21.80873,-29.12608 25.73047,-46.61133 1.98957,-8.74261 2.2959,-17.88708 0.47851,-26.66797 -1.8174,-8.78088 -5.87279,-17.121442 -12.01367,-23.66406 C 213.6022,82.348305 205.73144,77.81479 197.29492,75.5 c -8.41741,-2.324351 -17.40886,-2.506198 -26.01758,-0.9375 -17.21741,3.156531 -32.61922,13.162661 -44.92968,25.58789 -21.74177,21.90438 -35.180727,52.81829 -32.712894,83.58008 1.243475,15.38089 6.389834,30.49343 15.208984,43.13867 1.98,2.83131 4.15201,5.5201 6.4668,8.06445 -12.86524,4.52436 -26.208342,7.72734 -39.695316,9.53516 C 64.012606,225.7209 57.306641,203.62553 57.306641,179.9707 c 0,-67.81749 54.941859,-122.759763 122.740239,-122.759762 z m 0.72851,24.763671 -0.01,0.03906 c 8.64698,0 17.33178,2.621129 24.21876,7.84375 6.19827,4.686971 10.80801,11.325378 13.39062,18.652348 2.61132,7.32696 3.28215,15.27518 2.39258,23.0039 -1.76957,15.44784 -9.56633,29.61478 -18.97852,41.99219 -16.6722,21.90438 -38.83457,39.43701 -63.47461,51.71875 -2.51567,1.24349 -5.06973,2.44787 -7.65234,3.5957 -5.35654,-4.68697 -9.94679,-10.23377 -13.4668,-16.45117 -7.3174,-12.97045 -9.72835,-28.36118 -8.32226,-43.17773 1.43479,-14.82611 6.5046,-29.09746 13.34375,-42.32618 7.92002,-15.33307 18.71896,-29.842909 33.83203,-38.193355 7.55654,-4.180008 16.09871,-6.697266 24.72656,-6.697266 z M 301.65625,163.5918 c 0.71209,5.35583 1.09375,10.814 1.09375,16.36914 0,67.79837 -54.92234,122.76172 -122.7207,122.76172 -38.06964,0 -72.12327,-17.33379 -94.601566,-44.54688 13.888725,-3.15652 27.472146,-7.69896 40.499996,-13.4668 5.71044,4.32349 11.99575,7.88183 18.69141,10.44532 19.25482,7.38435 41.1291,6.31185 60.62305,-0.43164 19.48437,-6.75305 36.77851,-18.84246 51.84375,-32.95118 17.93345,-16.75826 33.05865,-36.51485 44.57031,-58.17968 z" transform="translate(0,6.000002)"/><path style="fill:#000;opacity:.3;filter:url(#filter4288)" id="path3461-3" d="M 180,46.085938 C 106.04162,46.085938 46.085938,106.04162 46.085938,180 46.085938,253.95838 106.04162,313.91406 180,313.91406 253.95838,313.91406 313.91406,253.95838 313.91406,180 313.91406,106.04162 253.95838,46.085938 180,46.085938 Z m 0.0469,11.125 -0.0469,0.0293 c 56.22444,0 103.63057,37.781295 118.16016,89.337886 -12.48263,25.82615 -30.32303,49.06976 -51.98828,67.875 -10.4261,9.02001 -21.80824,17.06591 -34.37696,22.72852 -12.56871,5.66262 -26.39989,8.87615 -40.17383,8.0918 -10.33045,-0.60261 -20.56612,-3.48235 -29.5957,-8.51367 24.00874,-13.00872 45.65453,-30.34111 63.37891,-51.09766 11.66958,-13.63046 21.80873,-29.12608 25.73047,-46.61133 1.98957,-8.74261 2.2959,-17.88708 0.47851,-26.66797 -1.8174,-8.78088 -5.87279,-17.121442 -12.01367,-23.66406 C 213.6022,82.348305 205.73144,77.81479 197.29492,75.5 c -8.41741,-2.324351 -17.40886,-2.506198 -26.01758,-0.9375 -17.21741,3.156531 -32.61922,13.162661 -44.92968,25.58789 -21.74177,21.90438 -35.180727,52.81829 -32.712894,83.58008 1.243475,15.38089 6.389834,30.49343 15.208984,43.13867 1.98,2.83131 4.15201,5.5201 6.4668,8.06445 -12.86524,4.52436 -26.208342,7.72734 -39.695316,9.53516 C 64.012606,225.7209 57.306641,203.62553 57.306641,179.9707 c 0,-67.81749 54.941859,-122.759763 122.740239,-122.759762 z m 0.72851,24.763671 -0.01,0.03906 c 8.64698,0 17.33178,2.621129 24.21876,7.84375 6.19827,4.686971 10.80801,11.325378 13.39062,18.652348 2.61132,7.32696 3.28215,15.27518 2.39258,23.0039 -1.76957,15.44784 -9.56633,29.61478 -18.97852,41.99219 -16.6722,21.90438 -38.83457,39.43701 -63.47461,51.71875 -2.51567,1.24349 -5.06973,2.44787 -7.65234,3.5957 -5.35654,-4.68697 -9.94679,-10.23377 -13.4668,-16.45117 -7.3174,-12.97045 -9.72835,-28.36118 -8.32226,-43.17773 1.43479,-14.82611 6.5046,-29.09746 13.34375,-42.32618 7.92002,-15.33307 18.71896,-29.842909 33.83203,-38.193355 7.55654,-4.180008 16.09871,-6.697266 24.72656,-6.697266 z M 301.65625,163.5918 c 0.71209,5.35583 1.09375,10.814 1.09375,16.36914 0,67.79837 -54.92234,122.76172 -122.7207,122.76172 -38.06964,0 -72.12327,-17.33379 -94.601566,-44.54688 13.888725,-3.15652 27.472146,-7.69896 40.499996,-13.4668 5.71044,4.32349 11.99575,7.88183 18.69141,10.44532 19.25482,7.38435 41.1291,6.31185 60.62305,-0.43164 19.48437,-6.75305 36.77851,-18.84246 51.84375,-32.95118 17.93345,-16.75826 33.05865,-36.51485 44.57031,-58.17968 z" transform="translate(0,2.000002)"/><path style="fill:#fff" id="path3461" d="M 180,46.085938 C 106.04162,46.085938 46.085938,106.04162 46.085938,180 46.085938,253.95838 106.04162,313.91406 180,313.91406 253.95838,313.91406 313.91406,253.95838 313.91406,180 313.91406,106.04162 253.95838,46.085938 180,46.085938 Z m 0.0469,11.125 -0.0469,0.0293 c 56.22444,0 103.63057,37.781295 118.16016,89.337886 -12.48263,25.82615 -30.32303,49.06976 -51.98828,67.875 -10.4261,9.02001 -21.80824,17.06591 -34.37696,22.72852 -12.56871,5.66262 -26.39989,8.87615 -40.17383,8.0918 -10.33045,-0.60261 -20.56612,-3.48235 -29.5957,-8.51367 24.00874,-13.00872 45.65453,-30.34111 63.37891,-51.09766 11.66958,-13.63046 21.80873,-29.12608 25.73047,-46.61133 1.98957,-8.74261 2.2959,-17.88708 0.47851,-26.66797 -1.8174,-8.78088 -5.87279,-17.121442 -12.01367,-23.66406 C 213.6022,82.348305 205.73144,77.81479 197.29492,75.5 c -8.41741,-2.324351 -17.40886,-2.506198 -26.01758,-0.9375 -17.21741,3.156531 -32.61922,13.162661 -44.92968,25.58789 -21.74177,21.90438 -35.180727,52.81829 -32.712894,83.58008 1.243475,15.38089 6.389834,30.49343 15.208984,43.13867 1.98,2.83131 4.15201,5.5201 6.4668,8.06445 -12.86524,4.52436 -26.208342,7.72734 -39.695316,9.53516 C 64.012606,225.7209 57.306641,203.62553 57.306641,179.9707 c 0,-67.81749 54.941859,-122.759763 122.740239,-122.759762 z m 0.72851,24.763671 -0.01,0.03906 c 8.64698,0 17.33178,2.621129 24.21876,7.84375 6.19827,4.686971 10.80801,11.325378 13.39062,18.652348 2.61132,7.32696 3.28215,15.27518 2.39258,23.0039 -1.76957,15.44784 -9.56633,29.61478 -18.97852,41.99219 -16.6722,21.90438 -38.83457,39.43701 -63.47461,51.71875 -2.51567,1.24349 -5.06973,2.44787 -7.65234,3.5957 -5.35654,-4.68697 -9.94679,-10.23377 -13.4668,-16.45117 -7.3174,-12.97045 -9.72835,-28.36118 -8.32226,-43.17773 1.43479,-14.82611 6.5046,-29.09746 13.34375,-42.32618 7.92002,-15.33307 18.71896,-29.842909 33.83203,-38.193355 7.55654,-4.180008 16.09871,-6.697266 24.72656,-6.697266 z M 301.65625,163.5918 c 0.71209,5.35583 1.09375,10.814 1.09375,16.36914 0,67.79837 -54.92234,122.76172 -122.7207,122.76172 -38.06964,0 -72.12327,-17.33379 -94.601566,-44.54688 13.888725,-3.15652 27.472146,-7.69896 40.499996,-13.4668 5.71044,4.32349 11.99575,7.88183 18.69141,10.44532 19.25482,7.38435 41.1291,6.31185 60.62305,-0.43164 19.48437,-6.75305 36.77851,-18.84246 51.84375,-32.95118 17.93345,-16.75826 33.05865,-36.51485 44.57031,-58.17968 z"/></svg>